<svg xmlns="http://www.w3.org/2000/svg" xmlns:xlink="http://www.w3.org/1999/xlink" viewBox="0 0 1025 1026"><defs><style>.cls-1,.cls-5{fill:none;}.cls-2{fill:#fff;}.cls-2,.cls-5{stroke:#000;stroke-miterlimit:10;}.cls-3{clip-path:url(#clip-path);}.cls-4{fill:#57ff60;}.cls-5{stroke-width:3.65px;}.cls-6{opacity:0.6;}.cls-7{clip-path:url(#clip-path-4);}</style><clipPath id="clip-path"><rect class="cls-1" x="137" y="125" width="750.74" height="721.32"/></clipPath><clipPath id="clip-path-4"><rect class="cls-1" x="562.65" y="240.06" width="325.09" height="325.09"/></clipPath></defs><g id="Layer_2" data-name="Layer 2"><g id="App_Icon_Kit_B" data-name="App Icon Kit B"><rect class="cls-2" x="0.5" y="0.5" width="1024" height="1025" rx="175.65"/><g id="Logo_w_o_text" data-name="Logo w/o text"><g class="cls-3"><g class="cls-3"><g class="cls-3"><path class="cls-4" d="M360.53,501.16a66.76,66.76,0,0,1-.36,7.11v.09L356,526.06,281.24,844.49H139.3l80.34-342.14,2.48-10.61,4.55-19.37,0,0,9.08-16.1a5.22,5.22,0,0,1,.36-.42,70.46,70.46,0,0,1,124.4,45.33"/><path class="cls-5" d="M360.53,501.16a66.76,66.76,0,0,1-.36,7.11v.09L356,526.06,281.24,844.49H139.3l80.34-342.14,2.48-10.61,4.55-19.37,0,0,9.08-16.1a5.22,5.22,0,0,1,.36-.42,70.46,70.46,0,0,1,124.4,45.33Z"/><path class="cls-4" d="M412.67,392.63c-.33.84-.62,1.71-.87,2.59l.4-1.75,0,0Z"/><path class="cls-5" d="M412.67,392.63c-.33.84-.62,1.71-.87,2.59l.4-1.75,0,0Z"/><path class="cls-4" d="M785,200.5,539.86,452.14l-12.7,54.07c0,.69-.11,1.38-.18,2.08v.07l-4.16,17.69L448.06,844.5h-142l80.34-342.16,2.48-10.58,4.56-19.38v0l.33-.59,11.38-48.45,2.48-10.54,1.46-6.2,2.67-11.35c.25-.88.54-1.75.87-2.59a73.9,73.9,0,0,1,5.8-12,67.78,67.78,0,0,1,4-5.91l0-.07,12.69-13L663.43,127.31Z"/><path class="cls-5" d="M785,200.5,539.86,452.14l-12.7,54.07c0,.69-.11,1.38-.18,2.08v.07l-4.16,17.69L448.06,844.5h-142l80.34-342.16,2.48-10.58,4.56-19.38v0l.33-.59,11.38-48.45,2.48-10.54,1.46-6.2,2.67-11.35c.25-.88.54-1.75.87-2.59a73.9,73.9,0,0,1,5.8-12,67.78,67.78,0,0,1,4-5.91l0-.07,12.69-13L663.43,127.31Z"/><path class="cls-4" d="M411.8,395.22l-2.67,11.35a65.16,65.16,0,0,1,2.67-11.35"/><path class="cls-5" d="M411.8,395.22l-2.67,11.35A65.16,65.16,0,0,1,411.8,395.22Z"/><path class="cls-4" d="M835.36,559.27a83.24,83.24,0,0,1-16,12.57,110.13,110.13,0,0,1-119.17,12.62l-61,260h142L852.39,541c-5.57,6.2-11.13,12.43-17,18.26"/><path class="cls-5" d="M835.36,559.27a83.24,83.24,0,0,1-16,12.57,110.13,110.13,0,0,1-119.17,12.62l-61,260h142L852.39,541C846.82,547.21,841.26,553.44,835.36,559.27Z"/><g class="cls-6"><g class="cls-7"><path class="cls-4" d="M885.92,402.61A160.73,160.73,0,1,1,725.2,241.88,160.72,160.72,0,0,1,885.92,402.61"/><circle class="cls-5" cx="725.2" cy="402.61" r="160.72"/></g></g></g></g></g></g></g></g></svg>