<?xml version="1.0" standalone="no"?>
<!DOCTYPE svg PUBLIC "-//W3C//DTD SVG 1.1//EN" "http://www.w3.org/Graphics/SVG/1.1/DTD/svg11.dtd" >
<svg xmlns="http://www.w3.org/2000/svg" xmlns:xlink="http://www.w3.org/1999/xlink" version="1.1">
<metadata></metadata>
<defs>
<font id="product_sansitalic" horiz-adv-x="1110" >
<font-face units-per-em="2048" ascent="1638" descent="-410" />
<missing-glyph horiz-adv-x="450" />
<glyph horiz-adv-x="0" />
<glyph unicode="&#xd;" horiz-adv-x="0" d="M0 0z" />
<glyph horiz-adv-x="0" d="M0 0z" />
<glyph horiz-adv-x="0" d="M0 0z" />
<glyph unicode=" " horiz-adv-x="450" d="M0 0z" />
<glyph unicode="!" horiz-adv-x="475" d="M-6 127q0 59 40 99t99 40t99 -40t40 -99t-40 -99t-99 -40t-99 40t-40 99zM115 455l75 549l82 462h189l-82 -462l-117 -549h-147z" />
<glyph unicode="&#x22;" horiz-adv-x="655" d="M137 1004l82 462h172l-82 -462h-172zM440 1004l82 462h172l-82 -462h-172z" />
<glyph unicode="#" horiz-adv-x="1294" d="M39 416l31 155h247l50 277h-256l28 156h254l70 397h164l-70 -397h279l69 397h164l-70 -397h252l-28 -156h-250l-49 -277h258l-29 -155h-256l-72 -416h-163l71 416h-278l-72 -416h-164l72 416h-252zM481 571h279l49 277h-279z" />
<glyph unicode="$" horiz-adv-x="1091" d="M-12 346l178 68q8 -94 62.5 -164t152.5 -92l86 491q-66 29 -122 66t-98 84t-66.5 106.5t-24.5 134.5q0 76 30.5 143.5t88 120t140.5 86t189 42.5l31 174h156l-33 -181q125 -25 197.5 -102.5t101.5 -171.5l-180 -72q-16 55 -51 98.5t-99 61.5l-82 -465q70 -35 128 -71.5 t98 -82t62.5 -101.5t22.5 -126q0 -94 -34.5 -167.5t-95 -128t-143.5 -86t-179 -40.5l-31 -176h-156l31 180q-63 12 -123.5 41t-109.5 75t-83 110.5t-44 144.5zM348 1036q0 -117 152 -196l71 409q-98 -10 -160.5 -60.5t-62.5 -152.5zM535 152q47 6 89 22t72.5 44t49 67 t18.5 92q0 78 -41 124t-113 83z" />
<glyph unicode="%" horiz-adv-x="1667" d="M123 1038q0 82 30.5 155t86 126t130 84t160.5 31q68 0 123.5 -22.5t95 -63.5t62.5 -96.5t23 -123.5q0 -84 -31 -155.5t-86 -124.5t-130 -84t-161 -31q-68 0 -123 22.5t-95 63.5t-62.5 96.5t-22.5 122.5zM201 68l1151 1349l102 -86l-1149 -1347zM276 1051q0 -84 48 -132.5 t120 -48.5q102 0 169 70t67 176q0 84 -48 132t-120 48q-104 0 -170 -69.5t-66 -175.5zM825 272q0 82 31 155t86 126t130 84t161 31q68 0 123 -22.5t95 -63.5t62.5 -96.5t22.5 -123.5q0 -84 -30.5 -155.5t-86 -124.5t-130.5 -84t-161 -31q-68 0 -123 22.5t-95 63.5 t-62.5 96.5t-22.5 122.5zM979 285q0 -84 48 -132.5t120 -48.5q102 0 168.5 70t66.5 176q0 84 -48 132t-120 48q-104 0 -169.5 -69.5t-65.5 -175.5z" />
<glyph unicode="&#x26;" horiz-adv-x="1265" d="M10 416q0 160 81 291t257 215q-29 51 -48 106t-19 119q0 63 24.5 126.5t72.5 114t118.5 81t162.5 30.5q141 0 221.5 -70.5t112.5 -189.5l-186 -74q-6 25 -16.5 51.5t-31 50t-49 38t-71.5 14.5q-68 0 -117 -46t-49 -126q0 -41 13.5 -78t33.5 -72l357 -606l153 223l123 -90 l-192 -276l112 -191l-166 -90l-78 133q-160 -133 -366 -133q-92 0 -175 31t-144.5 89t-97.5 141t-36 188zM184 426q0 -57 21.5 -108.5t60.5 -91.5t93 -63.5t122 -23.5q86 0 149.5 25.5t117.5 75.5l-318 542q-51 -25 -96 -58.5t-78 -78.5t-52.5 -99t-19.5 -120z" />
<glyph unicode="'" horiz-adv-x="352" d="M137 1004l82 462h172l-82 -462h-172z" />
<glyph unicode="(" horiz-adv-x="675" d="M113 520q0 160 41 313.5t113.5 292t173 259t221.5 212.5l106 -98q-109 -102 -195 -211.5t-145 -234.5t-92 -265.5t-33 -302.5q0 -207 54.5 -370.5t134.5 -294.5l-136 -99q-45 63 -89 146.5t-77.5 185t-55 218t-21.5 249.5z" />
<glyph unicode=")" horiz-adv-x="675" d="M-88 -180q106 100 193.5 210.5t146.5 235.5t92 265.5t33 302.5q0 207 -54.5 370.5t-134.5 294.5l136 98q45 -63 89 -146t77.5 -184.5t55 -219t21.5 -248.5q0 -160 -41 -313.5t-113.5 -292t-173 -259t-221.5 -213.5z" />
<glyph unicode="*" horiz-adv-x="892" d="M168 1161l59 139l213 -81l11 4l43 243h155l-43 -243l10 -4l215 75l50 -143l-240 -88l-6 -14l117 -203l-144 -92l-116 209h-13l-188 -209l-117 100l203 215l-2 14z" />
<glyph unicode="+" horiz-adv-x="1126" d="M70 477l26 156h371l65 371h156l-65 -371h370l-26 -156h-371l-66 -371h-155l65 371h-370z" />
<glyph unicode="," horiz-adv-x="475" d="M-45 -166l137 166q-10 4 -24.5 13.5t-26.5 24.5t-21.5 37.5t-9.5 51.5q0 59 42 99t95 40q59 0 100.5 -40t41.5 -99q0 -35 -25.5 -72t-60.5 -80l-172 -204z" />
<glyph unicode="-" horiz-adv-x="884" d="M82 557l27 156h655l-27 -156h-655z" />
<glyph unicode="." horiz-adv-x="475" d="M-8 127q0 59 40 99t99 40t99 -40t40 -99t-40 -99t-99 -40t-99 40t-40 99z" />
<glyph unicode="/" horiz-adv-x="894" d="M-78 0l866 1466h181l-869 -1466h-178z" />
<glyph unicode="0" horiz-adv-x="1306" d="M74 578q0 174 52 329.5t144 272t217 185.5t271 69q225 0 350 -160t125 -447q0 -176 -52.5 -332.5t-144.5 -273.5t-217 -185.5t-272 -68.5q-109 0 -197 43t-149.5 122t-94 191.5t-32.5 254.5zM268 590q0 -213 80 -328t215 -115q92 0 177 51.5t151.5 140.5t106.5 211 t40 261q0 203 -74.5 322.5t-228.5 119.5q-88 0 -172 -53t-149.5 -144t-105.5 -211t-40 -255z" />
<glyph unicode="1" horiz-adv-x="786" d="M162 1208l446 193h121l-248 -1401h-188l205 1161l-275 -110z" />
<glyph unicode="2" horiz-adv-x="1064" d="M-41 0l33 188q133 115 250 218q49 43 102 88q51 45 98 86t87 75.5t67 59.5q45 41 86 78.5t70.5 76.5t47 82t17.5 95q0 94 -59.5 150t-167.5 56q-57 0 -101.5 -20.5t-78 -51t-55 -65.5t-33.5 -65l-168 75q20 53 57 108.5t94 99.5t134 72t175 28q86 0 159 -27t127 -75 t84 -113.5t30 -141.5q0 -78 -24.5 -143.5t-66.5 -123.5t-96.5 -111.5t-115.5 -106.5q-16 -14 -45 -39q-29 -27 -66 -57q-37 -31 -78 -66q-41 -37 -82 -72q-96 -82 -207 -178h648l-31 -180h-891z" />
<glyph unicode="3" horiz-adv-x="1087" d="M4 317l184 72q12 -115 84 -178.5t183 -63.5q61 0 116.5 17.5t97.5 52.5t66.5 85t24.5 116q0 111 -71 169t-177 58h-121l31 176h106q135 0 215 61.5t80 178.5q0 88 -63.5 140t-155.5 52q-53 0 -95 -17t-74 -44t-55.5 -59.5t-37.5 -65.5l-168 78q25 55 63.5 107.5t94 92 t129.5 64.5t166 25q84 0 155.5 -26t123.5 -72t82 -108.5t30 -135.5q0 -135 -68.5 -218t-175.5 -129v-8q72 -33 126 -110.5t54 -188.5q0 -109 -42 -195.5t-113.5 -148t-167 -94.5t-199.5 -33q-74 0 -145.5 21.5t-131 64.5t-100.5 108.5t-51 155.5z" />
<glyph unicode="4" horiz-adv-x="1206" d="M4 295l25 143l809 963h215l-164 -930h180l-31 -176h-180l-53 -295h-189l54 295h-666zM270 471h430l115 653h-8z" />
<glyph unicode="5" horiz-adv-x="1136" d="M16 346l181 68q10 -115 73.5 -191t180.5 -76q74 0 137 23t110 64.5t75 100t28 132.5q0 117 -66.5 189.5t-183.5 72.5q-72 0 -139.5 -32.5t-116.5 -88.5l-176 82l215 711h735l-31 -180h-581l-123 -402l8 -2q53 39 119.5 61.5t138.5 22.5q88 0 159.5 -28.5t124 -82t81 -130 t28.5 -173.5q0 -104 -40 -199t-112.5 -166t-174 -113t-224.5 -42q-72 0 -143.5 23.5t-132 71t-101 118t-49.5 166.5z" />
<glyph unicode="6" horiz-adv-x="1124" d="M29 397q0 68 15 127.5t46 115.5t76 114.5t104 126.5l486 553l133 -105l-412 -471l4 -4q31 16 64 25.5t78 9.5q80 0 149.5 -32t119.5 -87t79.5 -133t29.5 -170q0 -117 -44 -210t-116.5 -157.5t-167.5 -98.5t-200 -34q-92 0 -174 32t-141.5 88t-94 135t-34.5 175zM221 401 q0 -55 21.5 -102t58.5 -81t85 -52.5t101 -18.5q68 0 126.5 21.5t102.5 61.5t68.5 96.5t24.5 126.5q0 119 -75 193.5t-195 74.5q-72 0 -130.5 -24.5t-100.5 -67.5t-64.5 -101.5t-22.5 -126.5z" />
<glyph unicode="7" horiz-adv-x="1071" d="M33 76l837 1145h-700l35 180h903l-33 -193l-899 -1241z" />
<glyph unicode="8" horiz-adv-x="1114" d="M16 336q0 139 83 243.5t212 153.5l2 8q-53 43 -94 105.5t-41 159.5q0 86 37 163.5t102.5 136t154.5 93.5t194 35q172 0 275 -93.5t103 -253.5q0 -72 -22.5 -127t-57 -98t-77.5 -72.5t-82 -48.5l-2 -8q72 -37 124 -116.5t52 -178.5q0 -109 -45 -195.5t-120 -148 t-173.5 -94.5t-202.5 -33q-96 0 -174 29t-133 79t-85 117.5t-30 143.5zM211 354q0 -94 70 -150.5t174 -56.5q57 0 116.5 19.5t106.5 55.5t76.5 88t29.5 118q0 49 -19.5 89t-53 68.5t-79.5 44t-100 15.5q-61 0 -119.5 -20.5t-102.5 -58.5t-71.5 -92t-27.5 -120zM373 1016 q0 -90 59.5 -142.5t151.5 -52.5q57 0 107 18.5t85 51.5t55.5 74t20.5 88q0 98 -58.5 149t-148.5 51q-57 0 -107.5 -17t-87 -48t-57 -75t-20.5 -97z" />
<glyph unicode="9" horiz-adv-x="1124" d="M121 934q0 117 44 210t116.5 157.5t168 98.5t199.5 34q92 0 174 -32t141.5 -88.5t94.5 -136t35 -173.5q0 -68 -15.5 -127.5t-46.5 -115.5t-76 -114.5t-104 -126.5l-485 -553l-134 105l412 471l-4 4q-31 -16 -63.5 -25.5t-69.5 -9.5q-80 0 -150.5 31.5t-123 87t-83 133.5 t-30.5 170zM313 948q0 -119 75 -193.5t196 -74.5q72 0 130 24.5t100 67.5t64.5 101.5t22.5 125.5q0 55 -21.5 101.5t-58.5 80t-85 53t-101 19.5q-68 0 -126 -21.5t-102.5 -61.5t-69 -96t-24.5 -126z" />
<glyph unicode=":" horiz-adv-x="475" d="M-8 127q0 59 40 99t99 40t99 -40t40 -99t-40 -99t-99 -40t-99 40t-40 99zM125 877q0 59 40 99t99 40t99 -40t40 -99t-40 -99.5t-99 -40.5t-99 40t-40 100z" />
<glyph unicode=";" horiz-adv-x="475" d="M-45 -127l137 166q-10 4 -24.5 13t-26.5 24.5t-21.5 38t-9.5 51.5q0 59 42 99t95 40q59 0 100.5 -40t41.5 -99q0 -35 -25.5 -72t-60.5 -80l-172 -204zM125 877q0 59 40 99t99 40t99 -40t40 -99t-40 -99.5t-99 -40.5t-99 40t-40 100z" />
<glyph unicode="&#x3c;" horiz-adv-x="1036" d="M72 485l22 140l867 379l-31 -181l-647 -270l-2 -8l550 -277l-28 -162z" />
<glyph unicode="=" horiz-adv-x="1150" d="M51 381l29 156h921l-28 -156h-922zM121 770l26 156h922l-27 -156h-921z" />
<glyph unicode="&#x3e;" horiz-adv-x="1036" d="M12 106l31 181l647 270l2 8l-551 277l29 162l731 -379l-22 -140z" />
<glyph unicode="?" horiz-adv-x="1009" d="M152 1196q20 61 59 116.5t95 96.5t131 65.5t167 24.5q82 0 151.5 -26.5t120 -71.5t78 -106.5t27.5 -131.5q0 -68 -22.5 -124t-59.5 -104t-85 -90t-101 -83q-70 -53 -112 -106.5t-52 -118.5l-14 -82h-193l16 96q8 47 22.5 85t41.5 73.5t66.5 73.5t101.5 83 q35 27 70.5 55.5t63.5 62.5t45 72t17 81q0 80 -55 131t-153 51q-53 0 -96.5 -16.5t-76 -44t-55 -62.5t-35.5 -74zM240 127q0 59 39.5 99t99.5 40q59 0 99 -40t40 -99t-40 -99t-99 -40t-99 40t-40 99z" />
<glyph unicode="@" horiz-adv-x="1777" d="M74 545q0 182 68.5 340.5t189.5 275.5t288.5 184.5t366.5 67.5q143 0 271 -48t225.5 -136t155 -212t57.5 -276q0 -104 -25.5 -201.5t-74 -174t-118 -122.5t-157.5 -46q-80 0 -136.5 39.5t-78.5 109.5q-53 -72 -133 -110.5t-168 -38.5q-68 0 -131.5 26.5t-112.5 73.5 t-78.5 114.5t-29.5 151.5q0 82 29.5 166t88 151.5t143.5 109.5t197 42q92 0 157 -37t95 -84h8l17 93h147l-94 -535q-2 -10 -3 -21.5t-1 -21.5q0 -33 22.5 -64.5t77.5 -31.5q47 0 86 36.5t67 95t42 131.5t14 144q0 121 -43 218.5t-119.5 167t-186.5 106.5t-241 37 q-158 0 -291 -54.5t-229 -149.5t-150.5 -226t-54.5 -283q0 -127 45.5 -231.5t122 -181.5t178 -118.5t216.5 -41.5q156 0 278 57l47 -137q-80 -35 -164 -51.5t-176 -16.5q-154 0 -282.5 56.5t-223 153.5t-146.5 227t-52 276zM621 569q0 -111 66.5 -164t158.5 -53 q57 0 108.5 22.5t89 62.5t59 93.5t21.5 116.5q0 104 -59 167t-164 63q-66 0 -117 -25t-88 -67t-56 -97t-19 -119z" />
<glyph unicode="A" horiz-adv-x="1368" d="M-104 0l811 1466h213l292 -1466h-202l-70 397h-616l-215 -397h-213zM418 573h487l-123 662h-8z" />
<glyph unicode="B" horiz-adv-x="1216" d="M16 0l260 1466h502q92 0 164 -28.5t122 -77.5t75.5 -114.5t25.5 -137.5q0 -70 -21.5 -126t-57 -99t-83 -73t-96.5 -48l-2 -8q88 -47 141.5 -120t53.5 -185q0 -96 -41 -178.5t-111.5 -141.5t-166 -94t-206.5 -35h-559zM238 180h378q49 0 101.5 16.5t93.5 48t67.5 82 t26.5 117.5q0 98 -63.5 158t-171.5 60h-348zM352 838h342q59 0 110.5 15t89.5 46t59.5 76t21.5 104q0 84 -54.5 145.5t-158.5 61.5h-330z" />
<glyph unicode="C" horiz-adv-x="1492" d="M63 625q0 170 67 327.5t185.5 279.5t281.5 194.5t355 72.5q86 0 162 -19.5t140.5 -52t115.5 -77.5t84 -97l-151 -125q-68 98 -156 144.5t-215 46.5q-141 0 -265 -57.5t-215.5 -152.5t-143.5 -218t-52 -256q0 -111 36 -201t100.5 -153.5t151.5 -98.5t189 -35 q154 0 266.5 58.5t214.5 159.5l121 -138q-70 -66 -139.5 -115t-144 -81.5t-158.5 -48t-182 -15.5q-141 0 -260 47t-205 133t-134.5 207t-48.5 271z" />
<glyph unicode="D" horiz-adv-x="1415" d="M16 0l260 1466h449q154 0 271.5 -49t196.5 -134t120 -200.5t41 -248.5q0 -164 -58.5 -314.5t-169 -266.5t-272.5 -184.5t-367 -68.5h-471zM238 180h260q141 0 262 49.5t210 136.5t139 203.5t50 251.5q0 227 -123 346t-344 119h-260z" />
<glyph unicode="E" d="M16 0l260 1466h857l-33 -180h-668l-82 -465h602l-30 -176h-603l-81 -465h667l-33 -180h-856z" />
<glyph unicode="F" horiz-adv-x="1069" d="M16 0l260 1466h857l-33 -180h-668l-84 -481h602l-30 -176h-603l-112 -629h-189z" />
<glyph unicode="G" horiz-adv-x="1640" d="M63 641q0 172 65 327.5t182.5 273.5t282.5 187.5t368 69.5q80 0 155.5 -16.5t141 -45t119 -70.5t87.5 -93l-153 -129q-51 82 -154.5 128t-226.5 46q-141 0 -264 -51t-214.5 -141.5t-142.5 -213t-51 -266.5q0 -121 40 -214t107.5 -156.5t155.5 -96.5t184 -33 q135 0 245 46.5t192 132.5q106 111 153 282h-520l31 176h710q0 -27 -3 -52t-7 -58q-25 -152 -83 -266.5t-144 -204.5q-225 -236 -598 -236q-127 0 -246 46t-210 133t-146.5 212t-55.5 283z" />
<glyph unicode="H" horiz-adv-x="1404" d="M16 0l260 1466h189l-113 -628h733l113 628h188l-260 -1466h-188l117 662h-733l-117 -662h-189z" />
<glyph unicode="I" horiz-adv-x="483" d="M16 0l260 1466h189l-260 -1466h-189z" />
<glyph unicode="J" horiz-adv-x="1073" d="M-23 307l185 72q6 -66 27.5 -110t54 -70.5t73.5 -39t86 -12.5q59 0 110.5 23t92.5 62.5t68.5 93t38.5 112.5l180 1028h188l-178 -1011q-23 -127 -71 -218.5t-117.5 -151.5t-154.5 -89t-181 -29q-80 0 -149.5 23.5t-123 68.5t-87 107.5t-42.5 140.5z" />
<glyph unicode="K" horiz-adv-x="1273" d="M16 0l260 1466h189l-131 -749h8l770 749h250l-2 -8l-655 -629l436 -821l-2 -8h-224l-360 684l-274 -260l-76 -424h-189z" />
<glyph unicode="L" horiz-adv-x="1019" d="M16 0l260 1466h189l-227 -1286h634l-32 -180h-824z" />
<glyph unicode="M" horiz-adv-x="1699" d="M16 0l260 1466h181l352 -893h8l662 893h202l-260 -1466h-188l153 870l52 246h-8l-601 -805h-110l-318 805h-8l-35 -246l-153 -870h-189z" />
<glyph unicode="N" horiz-adv-x="1425" d="M16 0l260 1466h216l524 -1140h8l43 282l152 858h188l-260 -1466h-180l-551 1196h-8l-41 -283l-162 -913h-189z" />
<glyph unicode="O" horiz-adv-x="1658" d="M63 631q0 168 62.5 324.5t176.5 277.5t273.5 193.5t354.5 72.5q139 0 261 -48t212 -136t141 -210t51 -269q0 -168 -62.5 -325t-176 -277.5t-272 -193.5t-351.5 -73q-141 0 -263 48t-213 136.5t-142.5 210t-51.5 269.5zM258 645q0 -117 39 -209t105.5 -156.5t157 -98.5 t192.5 -34q137 0 254.5 57.5t205.5 152t138.5 216t50.5 248.5q0 117 -39 209t-105.5 156.5t-156.5 98.5t-193 34q-137 0 -256 -57.5t-206 -151.5t-137 -215t-50 -250z" />
<glyph unicode="P" horiz-adv-x="1155" d="M16 0l260 1466h488q86 0 159.5 -27.5t127 -77.5t83 -121t29.5 -155q0 -117 -41 -208t-112.5 -154.5t-171 -96t-215.5 -32.5h-312l-106 -594h-189zM342 774h315q63 0 120 16.5t100 51.5t67.5 89t24.5 130q0 104 -63.5 164.5t-157.5 60.5h-316z" />
<glyph unicode="Q" horiz-adv-x="1658" d="M63 631q0 168 62.5 324.5t176.5 277.5t273.5 193.5t354.5 72.5q139 0 261 -48t212 -136t141 -210t51 -269q0 -209 -95 -395.5t-261 -309.5l70 -143l-168 -86l-68 135q-78 -33 -162 -51.5t-178 -18.5q-141 0 -263 48t-213 136.5t-142.5 210t-51.5 269.5zM258 645 q0 -117 39 -209t105.5 -156.5t157 -98.5t192.5 -34q66 0 124 13.5t115 38.5l-129 264l170 90l123 -250q113 98 179.5 234.5t66.5 283.5q0 117 -39 209t-105.5 156.5t-156.5 98.5t-193 34q-137 0 -256 -57.5t-206 -151.5t-137 -215t-50 -250z" />
<glyph unicode="R" horiz-adv-x="1183" d="M16 0l260 1466h486q86 0 159.5 -27.5t128 -78.5t84 -124t29.5 -163t-30.5 -167t-86 -137t-134 -102t-175.5 -61l-6 -6l303 -592l-2 -8h-213l-295 594h-213l-106 -594h-189zM342 770h303q66 0 125 19.5t103.5 57.5t70 94t25.5 130q0 88 -60.5 151.5t-177.5 63.5h-299z" />
<glyph unicode="S" horiz-adv-x="1132" d="M-6 365l182 73q6 -61 27.5 -113.5t60.5 -92t93.5 -62.5t123.5 -23q59 0 117.5 19.5t104 55.5t73 86t27.5 114q0 92 -61.5 148.5t-198.5 109.5l-88 33q-55 20 -107.5 51t-93.5 75t-66.5 102t-25.5 136q0 92 40 170t107.5 133.5t157.5 87t190 31.5q109 0 187 -30.5 t129 -76.5t77.5 -99.5t32.5 -96.5l-182 -68q-4 29 -18.5 63t-45 62.5t-77.5 47t-117 18.5q-57 0 -109.5 -15.5t-91.5 -44t-61.5 -70.5t-22.5 -95q0 -86 58.5 -137.5t165.5 -90.5l88 -32q68 -25 128 -61t104 -82t70.5 -106.5t26.5 -133.5q0 -113 -42 -203t-114.5 -152.5 t-171.5 -95.5t-212 -33q-88 0 -166 25.5t-140.5 77t-103.5 125t-55 170.5z" />
<glyph unicode="T" horiz-adv-x="1105" d="M145 1286l33 180h1008l-33 -180h-410l-227 -1286h-188l227 1286h-410z" />
<glyph unicode="U" horiz-adv-x="1314" d="M76 408q0 31 2 74.5t16 125.5l152 858h188l-160 -905q-8 -45 -10 -72.5t-2 -50.5q0 -129 72 -210t225 -81q88 0 158.5 30t124 82t88.5 123t49 155l164 929h188l-168 -952q-47 -260 -208 -403.5t-427 -143.5q-90 0 -172 31t-144 87t-99 138t-37 185z" />
<glyph unicode="V" horiz-adv-x="1294" d="M154 1466h204l191 -1190h8l629 1190h213l-793 -1466h-196z" />
<glyph unicode="W" horiz-adv-x="1888" d="M162 1466h192l107 -1153h8l481 957h180l148 -957h8l502 1153h197l-650 -1466h-192l-146 967h-8l-487 -967h-193z" />
<glyph unicode="X" horiz-adv-x="1294" d="M-96 0l628 768l-342 698h222l258 -557h8l452 557h232l-590 -712l373 -754h-223l-291 600h-8l-498 -600h-221z" />
<glyph unicode="Y" horiz-adv-x="1216" d="M154 1466h215l256 -596h8l461 596h227l-625 -784l-121 -682h-188l121 682z" />
<glyph unicode="Z" horiz-adv-x="1155" d="M-63 0l34 197l967 1089h-743l32 180h967l-35 -196l-969 -1090h785l-33 -180h-1005z" />
<glyph unicode="[" horiz-adv-x="630" d="M-16 -254l327 1876h418l-27 -156h-247l-275 -1564h246l-27 -156h-415z" />
<glyph unicode="\" horiz-adv-x="894" d="M186 1466h172l349 -1466h-172z" />
<glyph unicode="]" horiz-adv-x="630" d="M-98 -254l26 156h244l274 1564h-243l26 156h418l-330 -1876h-415z" />
<glyph unicode="^" horiz-adv-x="962" d="M43 840l494 626h147l272 -626h-188l-180 446h-8l-330 -446h-207z" />
<glyph unicode="_" horiz-adv-x="983" d="M-168 -442l29 155h981l-29 -155h-981z" />
<glyph unicode="`" horiz-adv-x="819" d="M328 1466h200l60 -262h-160z" />
<glyph unicode="a" horiz-adv-x="1044" d="M27 276q0 86 37.5 156t103 118t155 74.5t193.5 26.5q84 0 148.5 -17.5t123.5 -43.5l9 43q4 16 4 41q0 88 -63.5 141t-168.5 53q-80 0 -142 -30.5t-122 -102.5l-147 105q72 96 183.5 146t246.5 50q195 0 294 -90t99 -244q0 -25 -3 -52t-7 -56l-107 -594h-180l25 139h-9 q-49 -72 -135 -122t-192 -50q-74 0 -137.5 21.5t-109.5 62.5t-72.5 97.5t-26.5 127.5zM223 293q0 -39 16.5 -68.5t42 -49t59.5 -30t71 -10.5q63 0 121.5 22.5t104.5 62.5t79 94.5t43 115.5q-25 18 -62 35q-33 12 -81 23.5t-115 11.5q-51 0 -101.5 -12.5t-89.5 -39 t-63.5 -65.5t-24.5 -90z" />
<glyph unicode="b" horiz-adv-x="1179" d="M-14 0l258 1466h188l-82 -462l-33 -140h9q51 70 135 121t213 51q88 0 163.5 -32.5t132 -93t88.5 -147.5t32 -196q0 -117 -44.5 -224t-122 -191t-184 -134.5t-231.5 -50.5q-102 0 -185 49.5t-126 122.5h-9l-24 -139h-178zM244 438q0 -147 79.5 -223t198.5 -76 q78 0 146.5 32t119 88t80 132t29.5 164q0 145 -70.5 227t-205.5 82q-80 0 -150 -35.5t-120 -95t-78.5 -136.5t-28.5 -159z" />
<glyph unicode="c" horiz-adv-x="1069" d="M10 430q0 131 47 242.5t128 192.5t190.5 126t234.5 45q92 0 162 -25.5t120 -66.5t81 -93t45 -103l-176 -68q-25 86 -87.5 135t-166.5 49q-82 0 -152.5 -31.5t-122 -88t-81 -133t-29.5 -167.5q0 -61 18.5 -117.5t53 -97.5t88 -65.5t120.5 -24.5q96 0 173 51.5t130 139.5 l152 -72q-47 -74 -95 -129t-106.5 -91t-129.5 -53.5t-161 -17.5q-98 0 -179 36t-137 98.5t-88 147.5t-32 181z" />
<glyph unicode="d" horiz-adv-x="1179" d="M10 436q0 117 44 224.5t122 191.5t184.5 134t231.5 50q102 0 185 -49t126 -123h8l17 140l82 462h188l-258 -1466h-180l24 139h-8q-51 -70 -136 -121t-214 -51q-88 0 -164 33t-132 93.5t-88 147.5t-32 195zM203 449q0 -145 70.5 -227.5t205.5 -82.5q80 0 149.5 36 t120 95.5t79 136t28.5 158.5q0 147 -79.5 223t-198.5 76q-78 0 -147 -31.5t-120 -88t-79.5 -132t-28.5 -163.5z" />
<glyph unicode="e" horiz-adv-x="1097" d="M10 426q0 117 40 226.5t116 195.5t183.5 137t240.5 51q104 0 184 -32.5t133.5 -90t80 -133t26.5 -164.5q0 -37 -4 -77.5t-15 -71.5h-790q-2 -20 -2 -33v-26q0 -68 23.5 -119t62.5 -84t88 -49.5t100 -16.5q102 0 183 49.5t135 130.5l145 -81q-80 -133 -205 -202t-268 -69 q-111 0 -196 37t-143 99.5t-88 145.5t-30 177zM240 623h583v22q0 43 -15 83t-47 69.5t-79 48t-111 18.5q-123 0 -210 -66.5t-121 -174.5z" />
<glyph unicode="f" horiz-adv-x="753" d="M63 831l31 173h189l26 145q29 160 136.5 247t261.5 87q49 0 86.5 -11.5t66.5 -29.5l-78 -160q-16 10 -40.5 17.5t-53.5 7.5q-72 0 -125 -42t-69 -135l-23 -126h262l-31 -173h-262l-145 -831h-189l146 831h-189z" />
<glyph unicode="g" horiz-adv-x="1179" d="M-12 -178l182 69q14 -84 77.5 -139t170.5 -55q158 0 258 93t129 253l16 96h-8q-47 -76 -137 -124t-213 -48q-86 0 -161 32t-131 92.5t-89 148.5t-33 202q0 104 40 211t115 192t181.5 138t241.5 53q117 0 197.5 -52t117.5 -120h8l25 140h180l-178 -1004q-23 -127 -78 -217 t-132 -147.5t-172.5 -84t-195.5 -26.5q-94 0 -166.5 28.5t-123 72.5t-81 96.5t-40.5 99.5zM240 440q0 -147 77.5 -224t194.5 -77q80 0 149.5 35t121 95.5t81 139t29.5 169.5q0 70 -21.5 123t-57.5 89.5t-85 55t-104 18.5q-92 0 -164 -36.5t-121 -97t-74.5 -136.5t-25.5 -154 z" />
<glyph unicode="h" d="M-14 0l258 1466h188l-82 -462l-33 -140h9q55 74 147 123t201 49q84 0 145.5 -23.5t100 -64.5t57 -95t18.5 -116q0 -25 -3 -54.5t-11 -76.5l-109 -606h-188l107 602q4 20 6 40t2 36q0 92 -54.5 139t-146.5 47q-63 0 -118.5 -26.5t-98.5 -70.5t-72.5 -101.5t-40.5 -118.5 l-94 -547h-188z" />
<glyph unicode="i" horiz-adv-x="450" d="M0 0l176 1004h189l-177 -1004h-188zM199 1350q0 55 38.5 94t94.5 39q55 0 94 -39t39 -94t-39 -94t-94 -39t-94 38.5t-39 94.5z" />
<glyph unicode="j" horiz-adv-x="450" d="M-293 -442l72 163q25 -12 61 -12q106 0 131 133l205 1162h189l-205 -1164q-14 -84 -45 -141t-75 -93t-99 -52.5t-121 -16.5t-113 21zM199 1350q0 55 38.5 94t94.5 39q55 0 94 -39t39 -94t-39 -94t-94 -39t-94 38.5t-39 94.5z" />
<glyph unicode="k" horiz-adv-x="989" d="M-14 0l258 1466h188l-156 -888l492 426h258l-2 -9l-461 -389l305 -598l-2 -8h-221l-233 477l-181 -153l-57 -324h-188z" />
<glyph unicode="l" horiz-adv-x="417" d="M-14 0l258 1466h188l-258 -1466h-188z" />
<glyph unicode="m" horiz-adv-x="1744" d="M-14 0l176 1004h180l-25 -140h9q53 80 137 126t196 46q113 0 188 -51t103 -141q55 88 150.5 140t220.5 52q156 0 232.5 -82t76.5 -206q0 -35 -4 -72t-14 -88l-103 -588h-188l104 598q4 29 7.5 52.5t3.5 45.5q0 80 -45 124t-142 44q-61 0 -112.5 -26.5t-91 -69.5 t-67.5 -98.5t-38 -114.5l-98 -555h-189l105 598q4 29 7 52.5t3 45.5q0 80 -48 124t-138 44q-61 0 -113.5 -26.5t-92.5 -70.5t-66.5 -99.5t-37.5 -112.5l-98 -555h-188z" />
<glyph unicode="n" d="M-14 0l176 1004h180l-25 -140h9q51 74 139 123t201 49q147 0 236 -84t89 -225q0 -31 -3 -70t-11 -79l-103 -578h-188l107 602q8 41 8 82q0 92 -56.5 136t-150.5 44q-61 0 -115.5 -24.5t-96.5 -66.5t-70.5 -98.5t-39.5 -119.5l-98 -555h-188z" />
<glyph unicode="o" horiz-adv-x="1146" d="M10 446q0 125 45 232.5t125 187.5t190.5 125t239.5 45q104 0 191.5 -37.5t149 -103.5t95 -153t33.5 -185q0 -125 -45 -232.5t-125 -187.5t-190.5 -125t-239.5 -45q-104 0 -191 38t-148.5 103.5t-95.5 152.5t-34 185zM203 459q0 -70 23.5 -128.5t63.5 -101.5t94.5 -66.5 t113.5 -23.5q90 0 162.5 34t123 90t77 129t26.5 153q0 70 -23.5 128t-63.5 101t-94.5 66.5t-113.5 23.5q-90 0 -163 -33.5t-123 -90t-76.5 -129t-26.5 -152.5z" />
<glyph unicode="p" horiz-adv-x="1171" d="M-82 -442l256 1446h180l-24 -140h8q51 70 136 121t214 51q88 0 164 -32.5t132 -93t88 -147.5t32 -196q0 -117 -44 -224t-122 -191t-184.5 -134.5t-231.5 -50.5q-102 0 -185 49.5t-126 122.5h-8l-17 -139l-80 -442h-188zM258 438q0 -147 80 -223t199 -76q78 0 146.5 32 t118.5 88t79.5 132t29.5 164q0 145 -70.5 227t-205.5 82q-80 0 -149.5 -35.5t-120 -95t-79 -136.5t-28.5 -159z" />
<glyph unicode="q" horiz-adv-x="1171" d="M10 436q0 117 44 224.5t122 191.5t184.5 134t231.5 50q102 0 185 -49t126 -123h8l25 140h178l-252 -1446h-188l78 442l32 139h-8q-51 -70 -136 -121t-214 -51q-88 0 -164 33t-132 93.5t-88 147.5t-32 195zM203 449q0 -145 70.5 -227.5t205.5 -82.5q80 0 149.5 36 t120 95.5t79 136t28.5 158.5q0 147 -79.5 223t-198.5 76q-78 0 -147 -31.5t-120 -88t-79.5 -132t-28.5 -163.5z" />
<glyph unicode="r" horiz-adv-x="743" d="M-14 0l176 1004h180l-29 -164h9q47 86 136 139t191 53q47 0 73 -6t52 -18l-80 -183q-27 8 -50 11.5t-58 3.5q-55 0 -107.5 -22.5t-95.5 -62.5t-72.5 -96.5t-42.5 -123.5l-94 -535h-188z" />
<glyph unicode="s" horiz-adv-x="931" d="M-25 254l181 72q20 -94 87.5 -142.5t155.5 -48.5q98 0 155.5 41t57.5 100q0 57 -36.5 92t-122.5 58l-115 31q-109 29 -179.5 91t-70.5 177q0 68 33 125t88 98t129 64.5t158 23.5q143 0 243.5 -66.5t134.5 -170.5l-180 -70q-23 57 -75 98t-136 41q-88 0 -143 -33.5 t-55 -95.5q0 -39 30.5 -71.5t106.5 -53.5l129 -34q123 -35 190.5 -106t67.5 -175q0 -76 -30.5 -137.5t-88 -104.5t-136.5 -66.5t-173 -23.5q-88 0 -155.5 22.5t-118 60.5t-83 90.5t-49.5 113.5z" />
<glyph unicode="t" horiz-adv-x="724" d="M66 831l30 173h176l56 307h188l-55 -307h246l-31 -173h-246l-86 -487q-4 -27 -6 -45q-4 -20 -4 -37q0 -45 24.5 -73.5t75.5 -28.5q35 0 52.5 4t39.5 14l31 -168q-41 -14 -81 -20t-89 -6q-51 0 -96 16t-78 46t-52.5 73t-19.5 96q0 16 2 43t9 59l90 514h-176z" />
<glyph unicode="u" d="M39 276q0 31 3 70t11 80l103 578h188l-106 -603q-8 -41 -9 -82q0 -92 56.5 -136t150.5 -44q61 0 115.5 24.5t96.5 66.5t71 98.5t39 120.5l98 555h188l-176 -1004h-180l25 139h-8q-51 -74 -139.5 -123t-200.5 -49q-147 0 -236.5 84t-89.5 225z" />
<glyph unicode="v" horiz-adv-x="1019" d="M55 1004h201l158 -779h4l436 779h205l-588 -1004h-188z" />
<glyph unicode="w" horiz-adv-x="1544" d="M55 1004h193l88 -758h2l383 758h194l113 -758h2l356 758h197l-502 -1004h-192l-113 770l-385 -770h-190z" />
<glyph unicode="x" horiz-adv-x="966" d="M-117 0l443 516l-254 488h213l176 -353h2l293 353h229l-436 -498l266 -506h-213l-184 373h-2l-305 -373h-228z" />
<glyph unicode="y" horiz-adv-x="1019" d="M10 -442l324 505l-248 941h199l176 -723h4l420 723h209l-885 -1446h-199z" />
<glyph unicode="z" horiz-adv-x="942" d="M-63 0l26 164l684 667h-549l31 173h786l-28 -164l-684 -668h573l-31 -172h-808z" />
<glyph unicode="{" horiz-adv-x="651" d="M35 606l26 156q61 0 113.5 40t69.5 132l61 350q29 166 122 252t269 86h54l-27 -156h-45q-78 0 -131 -48t-70 -140l-63 -350q-18 -104 -62.5 -158.5t-120.5 -81.5l-2 -8q53 -20 81 -59t28 -105q0 -37 -8 -76l-64 -350q-6 -37 -6 -53q0 -68 42 -101.5t99 -33.5h45l-26 -156 h-45q-61 0 -114.5 18.5t-91.5 52t-59.5 81t-21.5 106.5q0 43 6 80l62 350q2 10 3 21.5t1 21.5q0 66 -34 97.5t-91 31.5z" />
<glyph unicode="|" horiz-adv-x="466" d="M-16 -246l327 1868h172l-329 -1868h-170z" />
<glyph unicode="}" horiz-adv-x="651" d="M-100 -254l26 156h45q78 0 131.5 48t69.5 140l64 350q18 104 62 158.5t120 81.5l2 8q-53 20 -81 59t-28 105q0 37 8 76l64 350q6 37 6 53q0 68 -42 101.5t-99 33.5h-45l26 156h45q61 0 114.5 -18.5t91.5 -52t59.5 -82t21.5 -105.5q0 -43 -6 -80l-61 -350 q-2 -10 -3.5 -21.5t-1.5 -21.5q0 -66 34 -97.5t91 -31.5l-26 -156q-61 0 -113.5 -40t-68.5 -132l-62 -350q-29 -166 -122 -252t-269 -86h-53z" />
<glyph unicode="~" horiz-adv-x="1085" d="M18 508q14 129 85 201.5t202 72.5q57 0 114.5 -20.5t112.5 -44.5q55 -27 108.5 -47.5t102.5 -20.5q53 0 84 34t41 71h148q-14 -129 -85 -202t-202 -73q-59 0 -116.5 20.5t-112.5 47.5q-55 25 -107.5 45t-101.5 20q-53 0 -84 -33.5t-41 -70.5h-148z" />
<glyph unicode="&#xa0;" horiz-adv-x="450" d="M0 0z" />
<glyph unicode="&#xa1;" horiz-adv-x="475" d="M-43 -442l82 462l117 549h147l-76 -549l-82 -462h-188zM145 897q0 59 40.5 99t99.5 40t99 -40t40 -99t-40 -99t-99 -40t-99.5 40t-40.5 99z" />
<glyph unicode="&#xa2;" horiz-adv-x="1069" d="M47 637q0 121 40 224.5t111.5 181t170 126t215.5 58.5l30 174h156l-33 -178q68 -12 120 -41t90 -67t62.5 -82t37.5 -89l-179 -70q-18 66 -57 111t-102 66l-125 -707q78 18 131 66.5t96 117.5l156 -71q-82 -133 -176.5 -202t-237.5 -83l-31 -172h-155l30 176 q-78 14 -142.5 54t-110.5 101.5t-71.5 139.5t-25.5 166zM238 651q0 -111 49 -192.5t141 -112.5l125 711q-72 -12 -129 -48t-99 -89.5t-64.5 -123t-22.5 -145.5z" />
<glyph unicode="&#xa3;" horiz-adv-x="1062" d="M-59 0l28 164q51 23 97.5 57.5t81 77.5t56 92t21.5 105v8h-196l26 158h135q-25 74 -51 153q-27 78 -26 170q0 88 32.5 170t95 143.5t151.5 98.5t202 37q86 0 149.5 -25t108.5 -64.5t72.5 -92t44.5 -109.5l-185 -72q-10 35 -25.5 67.5t-41 58.5t-62.5 41t-90 15 q-55 0 -103 -20.5t-83 -57t-54.5 -86t-19.5 -106.5q0 -82 33 -162q31 -80 55 -159h283l-27 -158h-235q-4 -94 -52.5 -174t-123.5 -142l8 -8h360q76 0 120 32t75 85l143 -66q-55 -113 -141 -172t-230 -59h-632z" />
<glyph unicode="&#xa4;" horiz-adv-x="1224" d="M123 297l123 119q-35 53 -55.5 116.5t-20.5 133.5t20.5 133t55.5 116l-123 121l108 111l121 -117q53 41 120 62.5t140 21.5q74 0 140.5 -21.5t119.5 -62.5l121 117l109 -111l-121 -118q35 -53 54.5 -117t19.5 -135q0 -70 -19.5 -133.5t-54.5 -116.5l121 -119l-109 -111 l-121 117q-53 -41 -119.5 -63.5t-140.5 -22.5t-140 22.5t-120 63.5l-121 -117zM342 666q0 -59 21.5 -111.5t58.5 -90.5t86 -60.5t104 -22.5t104.5 22.5t86.5 60.5t58.5 90t21.5 112q0 59 -21.5 111t-58.5 90t-86 60.5t-105 22.5q-55 0 -104 -22.5t-86 -60.5t-58.5 -90 t-21.5 -111z" />
<glyph unicode="&#xa5;" horiz-adv-x="1171" d="M74 340l28 156h351l30 172h-350l27 155h250l-269 578h207l248 -578h8l443 578h217l-467 -578h243l-26 -155h-342l-31 -172h342l-29 -156h-342l-59 -340h-188l59 340h-350z" />
<glyph unicode="&#xa6;" horiz-adv-x="466" d="M-10 -246l147 844h172l-149 -844h-170zM168 770l137 778h172l-137 -778h-172z" />
<glyph unicode="&#xa7;" horiz-adv-x="1095" d="M-47 -80l178 72q6 -57 26.5 -108.5t55.5 -91.5t84 -63.5t117 -23.5q57 0 107 14.5t88 44t60.5 72.5t22.5 98q0 100 -66.5 155.5t-199.5 96.5l-6 2q-145 47 -237.5 135.5t-92.5 215.5q0 53 19.5 102t52.5 91t77 76t91 56q-55 47 -89 112.5t-34 143.5t31.5 146.5t90 121 t142.5 82t188 29.5q92 0 162 -25.5t119 -66.5t80 -95.5t43 -109.5l-186 -72q-4 29 -18.5 63t-43.5 61.5t-72 46t-102 18.5q-43 0 -86 -11.5t-77 -34t-54.5 -55t-20.5 -75.5q0 -78 62.5 -128t187.5 -97l6 -3q74 -29 136.5 -64.5t106.5 -81.5t69.5 -103.5t25.5 -128.5 q0 -117 -56 -199t-148 -135q43 -43 68.5 -102.5t25.5 -141.5q0 -88 -35 -167t-98.5 -138.5t-155.5 -94t-205 -34.5q-80 0 -155.5 25.5t-136 75.5t-100.5 124t-48 170zM289 555q0 -72 58.5 -118t164.5 -81q37 -12 71.5 -26.5t69.5 -30.5q57 29 102.5 83t45.5 122 q0 166 -254 254l-39 12q-41 -12 -80 -31.5t-69.5 -47t-50 -62.5t-19.5 -74z" />
<glyph unicode="&#xa8;" horiz-adv-x="819" d="M225 1350q0 51 35 83.5t82 32.5q51 0 84 -32.5t33 -83.5q0 -47 -33 -82t-84 -35q-47 0 -82 35t-35 82zM569 1350q0 51 35 83.5t82 32.5q51 0 84 -32.5t33 -83.5q0 -47 -33 -82t-84 -35q-47 0 -82 35t-35 82z" />
<glyph unicode="&#xa9;" horiz-adv-x="1089" d="M74 1028q0 96 36.5 182t101 150.5t149.5 101.5t184 37q96 0 182 -37t150.5 -101.5t101.5 -150.5t37 -182q0 -98 -37 -183t-101.5 -149.5t-150.5 -101.5t-182 -37q-98 0 -183.5 37t-150 101.5t-101 149.5t-36.5 183zM172 1028q0 -76 29.5 -143.5t81 -118.5t119 -81 t143.5 -30q78 0 145.5 30t118.5 81t80 118.5t29 143.5q0 78 -29 145.5t-80 118.5t-118.5 80t-145.5 29q-76 0 -143.5 -29t-119 -80t-81 -118.5t-29.5 -145.5zM309 1028q0 51 18.5 95t51.5 77t77 52.5t97 19.5q63 0 103 -22.5t75 -57.5l-65 -59q-23 23 -45.5 36t-67.5 13 q-59 0 -104.5 -44t-45.5 -110t45.5 -110t104.5 -44q43 0 71.5 17.5t51.5 46.5l69 -55q-33 -43 -79.5 -71t-112.5 -28q-53 0 -97 19.5t-77 52.5t-51.5 78t-18.5 94z" />
<glyph unicode="&#xaa;" horiz-adv-x="978" d="M96 827q0 80 37 141.5t97.5 103.5t138 64.5t161.5 22.5q90 0 152.5 -18.5t103.5 -38.5l5 31q2 12 2 18v14q0 86 -58.5 130t-136.5 44t-136.5 -23.5t-105.5 -84.5l-139 82q20 35 55 68.5t84.5 59t112.5 42t143 16.5q74 0 138.5 -21.5t112.5 -61.5t76 -97t28 -127 q0 -35 -6 -72l-95 -534h-172l23 127h-8q-47 -61 -124 -108.5t-175 -47.5q-68 0 -125.5 18.5t-99.5 53.5t-65.5 85t-23.5 113zM285 844q0 -35 15 -59.5t38.5 -41t52 -23.5t55.5 -7q57 0 109.5 18.5t95.5 51t72 77.5t39 101q-23 16 -55 30q-29 10 -71 20.5t-99 10.5 q-43 0 -87 -9t-81 -30.5t-60.5 -55.5t-23.5 -83z" />
<glyph unicode="&#xab;" horiz-adv-x="1138" d="M41 555l491 449l97 -109l-383 -350l252 -340l-123 -99zM451 555l491 449l97 -109l-383 -350l252 -340l-123 -99z" />
<glyph unicode="&#xac;" horiz-adv-x="1150" d="M72 633l26 155h889l-100 -573h-148l74 418h-741z" />
<glyph unicode="&#xad;" horiz-adv-x="884" d="M82 557l27 156h655l-27 -156h-655z" />
<glyph unicode="&#xae;" horiz-adv-x="1089" d="M74 1028q0 96 36.5 182t101 150.5t149.5 101.5t184 37q96 0 182 -37t150.5 -101.5t101.5 -150.5t37 -182q0 -98 -37 -183t-101.5 -149.5t-150.5 -101.5t-182 -37q-98 0 -183.5 37t-150 101.5t-101 149.5t-36.5 183zM172 1028q0 -76 29.5 -143.5t81 -118.5t119 -81 t143.5 -30q78 0 145.5 30t118.5 81t80 118.5t29 143.5q0 78 -29 145.5t-80 118.5t-118.5 80t-145.5 29q-76 0 -143.5 -29t-119 -80t-81 -118.5t-29.5 -145.5zM387 797v463h197q59 0 104 -42t45 -106q0 -47 -29.5 -85t-72.5 -50l-4 -4l123 -172v-4h-107l-113 172h-49v-172 h-94zM481 1055h94q25 0 44.5 15t19.5 42q0 20 -16.5 38.5t-44.5 18.5h-97v-114z" />
<glyph unicode="&#xaf;" horiz-adv-x="819" d="M217 1276l27 147h573l-26 -147h-574z" />
<glyph unicode="&#xb0;" horiz-adv-x="665" d="M137 1139q0 66 22.5 120t62.5 93t94.5 60.5t119.5 21.5q49 0 93 -17.5t78 -48.5t53.5 -74t19.5 -94q0 -66 -22.5 -120t-62.5 -93t-95.5 -60.5t-118.5 -21.5q-49 0 -93 16.5t-78 47t-53.5 73.5t-19.5 97zM279 1155q0 -53 31.5 -86t82.5 -33q59 0 102.5 42t43.5 106 q0 53 -32 86t-83 33q-59 0 -102 -42t-43 -106z" />
<glyph unicode="&#xb1;" horiz-adv-x="1126" d="M-14 0l26 156h897l-28 -156h-895zM92 606l27 156h370l58 321h155l-57 -321h371l-27 -156h-371l-57 -321h-155l57 321h-371z" />
<glyph unicode="&#xb2;" horiz-adv-x="622" d="M47 717l23 123q86 74 153 133q29 25 57.5 49.5t53.5 44.5q23 20 39 33q14 12 18 16q35 27 72 67t37 85q0 41 -28 62.5t-69 21.5q-92 0 -137 -119l-123 55q29 94 104 144.5t171 50.5q104 0 167.5 -57.5t63.5 -143.5q0 -41 -12 -74.5t-33.5 -63.5t-50.5 -56.5t-59 -53.5 q-23 -18 -58 -49q-37 -31 -74 -61q-43 -37 -90 -76h310l-25 -131h-510z" />
<glyph unicode="&#xb3;" horiz-adv-x="661" d="M76 905l133 47q16 -66 51 -93.5t84 -27.5q55 0 96 34t41 83q0 96 -125 96h-65l22 123h76q53 0 89 30t36 75q0 41 -27.5 60.5t-62.5 19.5q-55 0 -86 -30t-47 -58l-119 51q29 74 99.5 121t168.5 47t161 -54.5t63 -134.5q0 -61 -42 -112.5t-94 -71.5q45 -23 73 -62.5 t28 -95.5q0 -53 -22.5 -99t-62.5 -80t-95.5 -53.5t-118.5 -19.5q-88 0 -162 49.5t-92 155.5z" />
<glyph unicode="&#xb4;" horiz-adv-x="819" d="M385 1204l154 262h209l-195 -262h-168z" />
<glyph unicode="&#xb5;" d="M-98 -442l254 1446h188l-106 -603q-8 -41 -9 -82q0 -92 57 -136q56 -44 150 -44q61 0 116 25q54 25 96 66q42 42 71 99q29 56 39 120l98 555h188l-176 -1004h-180l25 139h-8q-51 -74 -140 -123q-88 -49 -200 -49q-57 0 -108 23q-50 23 -79 59h-8l-12 -115l-70 -376h-186z " />
<glyph unicode="&#xb6;" horiz-adv-x="1277" d="M49 1036q0 100 38 180t100.5 135.5t145.5 85t175 29.5h606v-1908h-172v1728h-172v-1728h-172v1048h-90q-92 0 -175 30t-145.5 85t-100.5 135t-38 180z" />
<glyph unicode="&#xb7;" horiz-adv-x="360" d="M41 664q0 59 40 99t99 40t99 -40t40 -99t-40 -99.5t-99 -40.5t-99 40t-40 100z" />
<glyph unicode="&#xb8;" horiz-adv-x="819" d="M-14 -348l114 47q4 -29 25.5 -49.5t54.5 -20.5q37 0 65.5 24.5t28.5 72.5q0 29 -19 50t-54 21q-23 0 -38.5 -8t-31.5 -25l-88 46l104 190h115l-59 -98q8 2 16 3t25 1q72 0 113.5 -50.5t41.5 -129.5q0 -92 -61.5 -151.5t-165.5 -59.5q-70 0 -122 39.5t-64 97.5z" />
<glyph unicode="&#xb9;" horiz-adv-x="495" d="M154 1356l254 110h94l-133 -749h-144l103 577l-129 -51z" />
<glyph unicode="&#xba;" horiz-adv-x="1056" d="M113 961q0 98 36.5 194t106.5 173t167 124t220 47q90 0 164 -28.5t125 -81t78.5 -126t27.5 -165.5q0 -109 -41 -206t-112.5 -172t-167.5 -119t-207 -44q-88 0 -162 29.5t-126 83t-80.5 127t-28.5 164.5zM297 973q0 -117 66.5 -184.5t160.5 -67.5q66 0 126.5 26.5 t105.5 74.5t71.5 116t26.5 149q0 57 -19.5 102.5t-51 78t-74.5 50t-88 17.5q-70 0 -129.5 -29.5t-102.5 -78.5t-67.5 -114.5t-24.5 -139.5z" />
<glyph unicode="&#xbb;" horiz-adv-x="1138" d="M29 215l383 350l-252 340l123 99l333 -449l-491 -449zM439 215l383 350l-252 340l123 99l333 -449l-491 -449z" />
<glyph unicode="&#xbc;" horiz-adv-x="1507" d="M103 70l1212 1413l109 -86l-1207 -1415zM205 1356l254 110h94l-133 -749h-144l103 577l-129 -51zM688 147l16 99l447 504h137l-84 -480h98l-22 -123h-99l-26 -147h-144l27 147h-350zM868 270h193l45 258h-9z" />
<glyph unicode="&#xbd;" horiz-adv-x="1589" d="M103 70l1212 1413l109 -86l-1207 -1415zM205 1356l254 110h94l-133 -749h-144l103 577l-129 -51zM893 0l23 123q86 74 153 133q29 25 57.5 49.5t53.5 44.5q23 20 39 33q14 12 18 16q35 27 72 67t37 85q0 41 -27.5 62.5t-68.5 21.5q-92 0 -138 -119l-123 55 q29 94 104 144.5t171 50.5q104 0 167.5 -57.5t63.5 -143.5q0 -41 -12 -74.5t-33.5 -63.5t-50.5 -56.5t-59 -53.5q-23 -18 -58 -49q-37 -31 -73 -61q-43 -37 -90 -76h309l-25 -131h-510z" />
<glyph unicode="&#xbe;" horiz-adv-x="1697" d="M125 905l133 47q16 -66 51 -93.5t84 -27.5q55 0 96 34t41 83q0 96 -125 96h-65l22 123h76q53 0 89 30t36 75q0 41 -27.5 60.5t-62.5 19.5q-55 0 -86 -30t-47 -58l-119 51q29 74 99.5 121t168.5 47t161 -54.5t63 -134.5q0 -61 -42 -112.5t-94 -71.5q45 -23 73 -62.5 t28 -95.5q0 -53 -22.5 -99t-62.5 -80t-95.5 -53.5t-118.5 -19.5q-88 0 -162 49.5t-92 155.5zM240 70l1212 1413l109 -86l-1207 -1415zM881 147l16 99l447 504h137l-84 -480h98l-22 -123h-99l-26 -147h-144l27 147h-350zM1061 270h193l45 258h-9z" />
<glyph unicode="&#xbf;" horiz-adv-x="987" d="M-31 -139q0 68 22.5 124t59.5 104t85 90t102 83q70 53 111.5 106.5t51.5 118.5l15 82h192l-16 -96q-8 -47 -22.5 -85t-41 -73.5t-66.5 -73.5t-102 -83q-35 -27 -70.5 -55.5t-63 -62.5t-45 -72t-17.5 -81q0 -80 55 -131t154 -51q53 0 96 16.5t76 44t55.5 62.5t34.5 74 l164 -74q-23 -61 -61 -116.5t-94 -96.5t-131 -65.5t-167 -24.5q-84 0 -152.5 26.5t-118.5 71.5t-78 106.5t-28 131.5zM432 897q0 59 40 99t99 40t99.5 -40t40.5 -99t-40 -99t-100 -40q-59 0 -99 40t-40 99z" />
<glyph unicode="&#xc0;" horiz-adv-x="1368" d="M-104 0l811 1466h213l292 -1466h-202l-70 397h-616l-215 -397h-213zM418 573h487l-123 662h-8zM645 1843h200l60 -262h-160z" />
<glyph unicode="&#xc1;" horiz-adv-x="1368" d="M-104 0l811 1466h213l292 -1466h-202l-70 397h-616l-215 -397h-213zM418 573h487l-123 662h-8zM743 1581l154 262h209l-195 -262h-168z" />
<glyph unicode="&#xc2;" horiz-adv-x="1368" d="M-104 0l811 1466h213l292 -1466h-202l-70 397h-616l-215 -397h-213zM418 573h487l-123 662h-8zM506 1594l2 10l254 239h163l168 -239l-2 -10h-170l-84 122h-16l-121 -122h-194z" />
<glyph unicode="&#xc3;" horiz-adv-x="1368" d="M-104 0l811 1466h213l292 -1466h-202l-70 397h-616l-215 -397h-213zM418 573h487l-123 662h-8zM469 1614q16 123 79.5 182.5t153.5 59.5q37 0 69.5 -14.5t63.5 -30.5q29 -18 59.5 -33t65.5 -15q61 0 80 72h156q-16 -123 -80 -182t-154 -59q-37 0 -68.5 14t-60.5 33 q-31 16 -61.5 30.5t-67.5 14.5q-61 0 -80 -72h-155z" />
<glyph unicode="&#xc4;" horiz-adv-x="1368" d="M-104 0l811 1466h213l292 -1466h-202l-70 397h-616l-215 -397h-213zM418 573h487l-123 662h-8zM542 1727q0 51 35 83.5t82 32.5q51 0 84 -32.5t33 -83.5q0 -47 -33 -82t-84 -35q-47 0 -82 35t-35 82zM886 1727q0 51 35 83.5t82 32.5q51 0 84 -32.5t33 -83.5 q0 -47 -33 -82t-84 -35q-47 0 -82 35t-35 82z" />
<glyph unicode="&#xc5;" horiz-adv-x="1368" d="M-104 0l772 1397q-29 29 -46.5 67.5t-17.5 83.5q0 90 61.5 151.5t151.5 61.5q43 0 82 -16t68.5 -45t46 -68t16.5 -84q0 -53 -25.5 -100t-66.5 -76l274 -1372h-202l-70 397h-616l-215 -397h-213zM418 573h487l-123 662h-8zM735 1548q0 -33 21.5 -56.5t52.5 -25.5h8 q35 0 58.5 23.5t23.5 58.5t-23.5 58.5t-58.5 23.5t-58.5 -23.5t-23.5 -58.5z" />
<glyph unicode="&#xc6;" horiz-adv-x="1966" d="M-121 0l1131 1466h979l-33 -180h-668l-82 -465h602l-30 -176h-602l-82 -465h667l-32 -180h-857l70 397h-530l-303 -397h-230zM547 573h426l127 713h-8l-80 -104z" />
<glyph unicode="&#xc7;" horiz-adv-x="1492" d="M63 625q0 170 67 327.5t185.5 279.5t281.5 194.5t355 72.5q86 0 162 -19.5t140.5 -52t115.5 -77.5t84 -97l-151 -125q-68 98 -156 144.5t-215 46.5q-141 0 -265 -57.5t-215.5 -152.5t-143.5 -218t-52 -256q0 -111 36 -201t100.5 -153.5t151.5 -98.5t189 -35 q154 0 266.5 58.5t214.5 159.5l121 -138q-70 -66 -139.5 -115t-144 -81.5t-157.5 -48t-177 -15.5l-39 -65q8 2 16 3t25 1q72 0 113.5 -50.5t41.5 -129.5q0 -92 -61.5 -151.5t-165.5 -59.5q-70 0 -122 39.5t-64 97.5l114 47q4 -29 26 -49.5t54 -20.5q37 0 66 24.5t29 72.5 q0 29 -19.5 50t-54.5 21q-23 0 -38 -8t-32 -25l-88 46l90 165q-121 14 -221 67.5t-172 137.5t-112 196.5t-40 248.5z" />
<glyph unicode="&#xc8;" d="M16 0l260 1466h857l-33 -180h-668l-82 -465h602l-30 -176h-603l-81 -465h667l-33 -180h-856zM539 1843h200l60 -262h-160z" />
<glyph unicode="&#xc9;" d="M16 0l260 1466h857l-33 -180h-668l-82 -465h602l-30 -176h-603l-81 -465h667l-33 -180h-856zM610 1581l154 262h209l-195 -262h-168z" />
<glyph unicode="&#xca;" d="M16 0l260 1466h857l-33 -180h-668l-82 -465h602l-30 -176h-603l-81 -465h667l-33 -180h-856zM404 1594l2 10l254 239h163l168 -239l-2 -10h-170l-84 122h-16l-121 -122h-194z" />
<glyph unicode="&#xcb;" d="M16 0l260 1466h857l-33 -180h-668l-82 -465h602l-30 -176h-603l-81 -465h667l-33 -180h-856zM422 1727q0 51 35 83.5t82 32.5q51 0 84 -32.5t33 -83.5q0 -47 -33 -82t-84 -35q-47 0 -82 35t-35 82zM766 1727q0 51 35 83.5t82 32.5q51 0 84 -32.5t33 -83.5q0 -47 -33 -82 t-84 -35q-47 0 -82 35t-35 82z" />
<glyph unicode="&#xcc;" horiz-adv-x="483" d="M16 0l260 1466h189l-260 -1466h-189zM226 1843h200l60 -262h-160z" />
<glyph unicode="&#xcd;" horiz-adv-x="483" d="M16 0l260 1466h189l-260 -1466h-189zM293 1581l154 262h209l-195 -262h-168z" />
<glyph unicode="&#xce;" horiz-adv-x="483" d="M16 0l260 1466h189l-260 -1466h-189zM76 1594l2 10l254 239h163l168 -239l-2 -10h-170l-84 122h-16l-121 -122h-194z" />
<glyph unicode="&#xcf;" horiz-adv-x="483" d="M16 0l260 1466h189l-260 -1466h-189zM152 1729q0 51 34.5 83.5t81.5 32.5q51 0 84 -32.5t33 -83.5q0 -47 -33 -82t-84 -35q-47 0 -81.5 34.5t-34.5 82.5zM430 1729q0 51 35 83.5t82 32.5q51 0 84 -32.5t33 -83.5q0 -47 -33 -82t-84 -35q-47 0 -82 34.5t-35 82.5z" />
<glyph unicode="&#xd0;" horiz-adv-x="1538" d="M100 653l27 156h156l116 657h449q154 0 271.5 -49t196.5 -134t120 -200.5t41 -248.5q0 -164 -58.5 -314.5t-169 -266.5t-272.5 -184.5t-367 -68.5h-471l115 653h-154zM360 180h261q141 0 262 49.5t210 136.5t139 203.5t50 251.5q0 227 -123 346t-344 119h-260l-84 -477 h410l-27 -156h-412z" />
<glyph unicode="&#xd1;" horiz-adv-x="1425" d="M16 0l260 1466h216l524 -1140h8l43 282l152 858h188l-260 -1466h-180l-551 1196h-8l-41 -283l-162 -913h-189zM619 1614q16 123 79.5 182.5t153.5 59.5q37 0 69.5 -14.5t63.5 -30.5q29 -18 59.5 -33t65.5 -15q61 0 80 72h156q-16 -123 -80 -182t-154 -59q-37 0 -68.5 14 t-60.5 33q-31 16 -61.5 30.5t-67.5 14.5q-61 0 -80 -72h-155z" />
<glyph unicode="&#xd2;" horiz-adv-x="1658" d="M63 631q0 168 62.5 324.5t176.5 277.5t273.5 193.5t354.5 72.5q139 0 261 -48t212 -136t141 -210t51 -269q0 -168 -62.5 -325t-176 -277.5t-272 -193.5t-351.5 -73q-141 0 -263 48t-213 136.5t-142.5 210t-51.5 269.5zM258 645q0 -117 39 -209t105.5 -156.5t157 -98.5 t192.5 -34q137 0 254.5 57.5t205.5 152t138.5 216t50.5 248.5q0 117 -39 209t-105.5 156.5t-156.5 98.5t-193 34q-137 0 -256 -57.5t-206 -151.5t-137 -215t-50 -250zM764 1843h200l60 -262h-160z" />
<glyph unicode="&#xd3;" horiz-adv-x="1658" d="M63 631q0 168 62.5 324.5t176.5 277.5t273.5 193.5t354.5 72.5q139 0 261 -48t212 -136t141 -210t51 -269q0 -168 -62.5 -325t-176 -277.5t-272 -193.5t-351.5 -73q-141 0 -263 48t-213 136.5t-142.5 210t-51.5 269.5zM258 645q0 -117 39 -209t105.5 -156.5t157 -98.5 t192.5 -34q137 0 254.5 57.5t205.5 152t138.5 216t50.5 248.5q0 117 -39 209t-105.5 156.5t-156.5 98.5t-193 34q-137 0 -256 -57.5t-206 -151.5t-137 -215t-50 -250zM870 1581l154 262h209l-195 -262h-168z" />
<glyph unicode="&#xd4;" horiz-adv-x="1658" d="M63 631q0 168 62.5 324.5t176.5 277.5t273.5 193.5t354.5 72.5q139 0 261 -48t212 -136t141 -210t51 -269q0 -168 -62.5 -325t-176 -277.5t-272 -193.5t-351.5 -73q-141 0 -263 48t-213 136.5t-142.5 210t-51.5 269.5zM258 645q0 -117 39 -209t105.5 -156.5t157 -98.5 t192.5 -34q137 0 254.5 57.5t205.5 152t138.5 216t50.5 248.5q0 117 -39 209t-105.5 156.5t-156.5 98.5t-193 34q-137 0 -256 -57.5t-206 -151.5t-137 -215t-50 -250zM666 1596l2 10l254 239h163l168 -239l-2 -10h-170l-84 122h-16l-121 -122h-194z" />
<glyph unicode="&#xd5;" horiz-adv-x="1658" d="M63 631q0 168 62.5 324.5t176.5 277.5t273.5 193.5t354.5 72.5q139 0 261 -48t212 -136t141 -210t51 -269q0 -168 -62.5 -325t-176 -277.5t-272 -193.5t-351.5 -73q-141 0 -263 48t-213 136.5t-142.5 210t-51.5 269.5zM258 645q0 -117 39 -209t105.5 -156.5t157 -98.5 t192.5 -34q137 0 254.5 57.5t205.5 152t138.5 216t50.5 248.5q0 117 -39 209t-105.5 156.5t-156.5 98.5t-193 34q-137 0 -256 -57.5t-206 -151.5t-137 -215t-50 -250zM609 1614q16 123 79.5 182.5t153.5 59.5q37 0 69.5 -14.5t63.5 -30.5q29 -18 59.5 -33t65.5 -15 q61 0 80 72h156q-16 -123 -80 -182t-154 -59q-37 0 -68.5 14t-60.5 33q-31 16 -61.5 30.5t-67.5 14.5q-61 0 -80 -72h-155z" />
<glyph unicode="&#xd6;" horiz-adv-x="1658" d="M63 631q0 168 62.5 324.5t176.5 277.5t273.5 193.5t354.5 72.5q139 0 261 -48t212 -136t141 -210t51 -269q0 -168 -62.5 -325t-176 -277.5t-272 -193.5t-351.5 -73q-141 0 -263 48t-213 136.5t-142.5 210t-51.5 269.5zM258 645q0 -117 39 -209t105.5 -156.5t157 -98.5 t192.5 -34q137 0 254.5 57.5t205.5 152t138.5 216t50.5 248.5q0 117 -39 209t-105.5 156.5t-156.5 98.5t-193 34q-137 0 -256 -57.5t-206 -151.5t-137 -215t-50 -250zM682 1727q0 51 35 83.5t82 32.5q51 0 84 -32.5t33 -83.5q0 -47 -33 -82t-84 -35q-47 0 -82 35t-35 82z M1026 1727q0 51 35 83.5t82 32.5q51 0 84 -32.5t33 -83.5q0 -47 -33 -82t-84 -35q-47 0 -82 35t-35 82z" />
<glyph unicode="&#xd7;" d="M33 244l383 317l-266 313l116 101l269 -316l383 320l94 -115l-381 -317l266 -311l-117 -101l-268 314l-385 -320z" />
<glyph unicode="&#xd8;" horiz-adv-x="1658" d="M63 631q0 168 62.5 324.5t176.5 277.5t273.5 193.5t354.5 72.5q94 0 179 -22.5t161 -63.5l110 139l129 -98l-110 -137q92 -88 144 -210t52 -271q0 -168 -62.5 -325t-176 -277.5t-272 -193.5t-351.5 -73q-96 0 -182 22.5t-162 63.5l-108 -137l-131 96l108 138 q-92 88 -143.5 209.5t-51.5 271.5zM258 645q0 -109 32 -194.5t91 -149.5l768 961q-111 57 -242 57q-137 0 -256 -57.5t-206 -151.5t-137 -215t-50 -250zM510 203q53 -27 114.5 -41.5t127.5 -14.5q137 0 254.5 57.5t205.5 152t138.5 216t50.5 248.5q0 109 -33 195t-90 149z " />
<glyph unicode="&#xd9;" horiz-adv-x="1314" d="M76 408q0 31 2 74.5t16 125.5l152 858h188l-160 -905q-8 -45 -10 -72.5t-2 -50.5q0 -129 72 -210t225 -81q88 0 158.5 30t124 82t88.5 123t49 155l164 929h188l-168 -952q-47 -260 -208 -403.5t-427 -143.5q-90 0 -172 31t-144 87t-99 138t-37 185zM629 1843h200l60 -262 h-160z" />
<glyph unicode="&#xda;" horiz-adv-x="1314" d="M76 408q0 31 2 74.5t16 125.5l152 858h188l-160 -905q-8 -45 -10 -72.5t-2 -50.5q0 -129 72 -210t225 -81q88 0 158.5 30t124 82t88.5 123t49 155l164 929h188l-168 -952q-47 -260 -208 -403.5t-427 -143.5q-90 0 -172 31t-144 87t-99 138t-37 185zM696 1581l154 262h209 l-195 -262h-168z" />
<glyph unicode="&#xdb;" horiz-adv-x="1314" d="M76 408q0 31 2 74.5t16 125.5l152 858h188l-160 -905q-8 -45 -10 -72.5t-2 -50.5q0 -129 72 -210t225 -81q88 0 158.5 30t124 82t88.5 123t49 155l164 929h188l-168 -952q-47 -260 -208 -403.5t-427 -143.5q-90 0 -172 31t-144 87t-99 138t-37 185zM484 1594l2 10 l254 239h163l168 -239l-2 -10h-170l-84 122h-16l-121 -122h-194z" />
<glyph unicode="&#xdc;" horiz-adv-x="1314" d="M76 408q0 31 2 74.5t16 125.5l152 858h188l-160 -905q-8 -45 -10 -72.5t-2 -50.5q0 -129 72 -210t225 -81q88 0 158.5 30t124 82t88.5 123t49 155l164 929h188l-168 -952q-47 -260 -208 -403.5t-427 -143.5q-90 0 -172 31t-144 87t-99 138t-37 185zM512 1727 q0 51 35 83.5t82 32.5q51 0 84 -32.5t33 -83.5q0 -47 -33 -82t-84 -35q-47 0 -82 35t-35 82zM856 1727q0 51 35 83.5t82 32.5q51 0 84 -32.5t33 -83.5q0 -47 -33 -82t-84 -35q-47 0 -82 35t-35 82z" />
<glyph unicode="&#xdd;" horiz-adv-x="1216" d="M154 1466h215l256 -596h8l461 596h227l-625 -784l-121 -682h-188l121 682zM637 1581l154 262h209l-195 -262h-168z" />
<glyph unicode="&#xde;" horiz-adv-x="1155" d="M16 0l260 1466h189l-45 -249h301q86 0 159.5 -28t127 -78t83 -120.5t29.5 -154.5q0 -117 -41 -208t-112.5 -154.5t-171 -96.5t-215.5 -33h-314l-61 -344h-189zM299 524h315q63 0 120 16.5t100 51.5t67.5 89t24.5 130q0 104 -63.5 164.5t-157.5 60.5h-316z" />
<glyph unicode="&#xdf;" horiz-adv-x="1150" d="M16 0l187 1057q16 94 53 175t97.5 140.5t145.5 93t195 33.5q90 0 164 -27.5t125 -76.5t79 -115t28 -139q0 -131 -68 -216t-170 -128v-9q78 -39 131 -118.5t53 -196.5q0 -111 -42 -202t-113.5 -154.5t-170 -98t-210.5 -34.5q-35 0 -66 2t-59 6l31 180q31 -4 59.5 -6 t48.5 -2q68 0 127 18.5t104.5 55t71 91t25.5 126.5q0 104 -62.5 172.5t-199.5 68.5h-64l31 176h51q55 0 108.5 16.5t95.5 48.5t67.5 79t25.5 108q0 92 -61.5 143.5t-159.5 51.5q-113 0 -185.5 -72.5t-93.5 -189.5l-186 -1057h-193z" />
<glyph unicode="&#xe0;" horiz-adv-x="1044" d="M27 276q0 86 37.5 156t103 118t155 74.5t193.5 26.5q84 0 148.5 -17.5t123.5 -43.5l9 43q4 16 4 41q0 88 -63.5 141t-168.5 53q-80 0 -142 -30.5t-122 -102.5l-147 105q72 96 183.5 146t246.5 50q195 0 294 -90t99 -244q0 -25 -3 -52t-7 -56l-107 -594h-180l25 139h-9 q-49 -72 -135 -122t-192 -50q-74 0 -137.5 21.5t-109.5 62.5t-72.5 97.5t-26.5 127.5zM223 293q0 -39 16.5 -68.5t42 -49t59.5 -30t71 -10.5q63 0 121.5 22.5t104.5 62.5t79 94.5t43 115.5q-25 18 -62 35q-33 12 -81 23.5t-115 11.5q-51 0 -101.5 -12.5t-89.5 -39 t-63.5 -65.5t-24.5 -90zM443 1466h200l60 -262h-160z" />
<glyph unicode="&#xe1;" horiz-adv-x="1044" d="M27 276q0 86 37.5 156t103 118t155 74.5t193.5 26.5q84 0 148.5 -17.5t123.5 -43.5l9 43q4 16 4 41q0 88 -63.5 141t-168.5 53q-80 0 -142 -30.5t-122 -102.5l-147 105q72 96 183.5 146t246.5 50q195 0 294 -90t99 -244q0 -25 -3 -52t-7 -56l-107 -594h-180l25 139h-9 q-49 -72 -135 -122t-192 -50q-74 0 -137.5 21.5t-109.5 62.5t-72.5 97.5t-26.5 127.5zM223 293q0 -39 16.5 -68.5t42 -49t59.5 -30t71 -10.5q63 0 121.5 22.5t104.5 62.5t79 94.5t43 115.5q-25 18 -62 35q-33 12 -81 23.5t-115 11.5q-51 0 -101.5 -12.5t-89.5 -39 t-63.5 -65.5t-24.5 -90zM500 1204l154 262h209l-195 -262h-168z" />
<glyph unicode="&#xe2;" horiz-adv-x="1044" d="M27 276q0 86 37.5 156t103 118t155 74.5t193.5 26.5q84 0 148.5 -17.5t123.5 -43.5l9 43q4 16 4 41q0 88 -63.5 141t-168.5 53q-80 0 -142 -30.5t-122 -102.5l-147 105q72 96 183.5 146t246.5 50q195 0 294 -90t99 -244q0 -25 -3 -52t-7 -56l-107 -594h-180l25 139h-9 q-49 -72 -135 -122t-192 -50q-74 0 -137.5 21.5t-109.5 62.5t-72.5 97.5t-26.5 127.5zM223 293q0 -39 16.5 -68.5t42 -49t59.5 -30t71 -10.5q63 0 121.5 22.5t104.5 62.5t79 94.5t43 115.5q-25 18 -62 35q-33 12 -81 23.5t-115 11.5q-51 0 -101.5 -12.5t-89.5 -39 t-63.5 -65.5t-24.5 -90zM301 1217l2 10l254 239h163l168 -239l-2 -10h-170l-84 122h-16l-121 -122h-194z" />
<glyph unicode="&#xe3;" horiz-adv-x="1044" d="M27 276q0 86 37.5 156t103 118t155 74.5t193.5 26.5q84 0 148.5 -17.5t123.5 -43.5l9 43q4 16 4 41q0 88 -63.5 141t-168.5 53q-80 0 -142 -30.5t-122 -102.5l-147 105q72 96 183.5 146t246.5 50q195 0 294 -90t99 -244q0 -25 -3 -52t-7 -56l-107 -594h-180l25 139h-9 q-49 -72 -135 -122t-192 -50q-74 0 -137.5 21.5t-109.5 62.5t-72.5 97.5t-26.5 127.5zM223 293q0 -39 16.5 -68.5t42 -49t59.5 -30t71 -10.5q63 0 121.5 22.5t104.5 62.5t79 94.5t43 115.5q-25 18 -62 35q-33 12 -81 23.5t-115 11.5q-51 0 -101.5 -12.5t-89.5 -39 t-63.5 -65.5t-24.5 -90zM273 1239q16 123 79.5 182.5t153.5 59.5q37 0 69.5 -14.5t63.5 -30.5q29 -18 59.5 -33t65.5 -15q61 0 80 72h156q-16 -123 -80 -182t-154 -59q-37 0 -68.5 14t-60.5 33q-31 16 -61.5 30.5t-67.5 14.5q-61 0 -80 -72h-155z" />
<glyph unicode="&#xe4;" horiz-adv-x="1044" d="M27 276q0 86 37.5 156t103 118t155 74.5t193.5 26.5q84 0 148.5 -17.5t123.5 -43.5l9 43q4 16 4 41q0 88 -63.5 141t-168.5 53q-80 0 -142 -30.5t-122 -102.5l-147 105q72 96 183.5 146t246.5 50q195 0 294 -90t99 -244q0 -25 -3 -52t-7 -56l-107 -594h-180l25 139h-9 q-49 -72 -135 -122t-192 -50q-74 0 -137.5 21.5t-109.5 62.5t-72.5 97.5t-26.5 127.5zM223 293q0 -39 16.5 -68.5t42 -49t59.5 -30t71 -10.5q63 0 121.5 22.5t104.5 62.5t79 94.5t43 115.5q-25 18 -62 35q-33 12 -81 23.5t-115 11.5q-51 0 -101.5 -12.5t-89.5 -39 t-63.5 -65.5t-24.5 -90zM340 1350q0 51 35 83.5t82 32.5q51 0 84 -32.5t33 -83.5q0 -47 -33 -82t-84 -35q-47 0 -82 35t-35 82zM684 1350q0 51 35 83.5t82 32.5q51 0 84 -32.5t33 -83.5q0 -47 -33 -82t-84 -35q-47 0 -82 35t-35 82z" />
<glyph unicode="&#xe5;" horiz-adv-x="1044" d="M27 276q0 86 37.5 156t103 118t155 74.5t193.5 26.5q84 0 148.5 -17.5t123.5 -43.5l9 43q4 16 4 41q0 88 -63.5 141t-168.5 53q-80 0 -142 -30.5t-122 -102.5l-147 105q72 96 183.5 146t246.5 50q195 0 294 -90t99 -244q0 -25 -3 -52t-7 -56l-107 -594h-180l25 139h-9 q-49 -72 -135 -122t-192 -50q-74 0 -137.5 21.5t-109.5 62.5t-72.5 97.5t-26.5 127.5zM223 293q0 -39 16.5 -68.5t42 -49t59.5 -30t71 -10.5q63 0 121.5 22.5t104.5 62.5t79 94.5t43 115.5q-25 18 -62 35q-33 12 -81 23.5t-115 11.5q-51 0 -101.5 -12.5t-89.5 -39 t-63.5 -65.5t-24.5 -90zM416 1370q0 90 61.5 151.5t151.5 61.5q43 0 82 -16.5t68.5 -45t46 -67.5t16.5 -84q0 -43 -16.5 -82t-46 -68.5t-68.5 -46t-82 -16.5q-45 0 -84 16.5t-67.5 46t-45 68.5t-16.5 82zM539 1370q0 -37 26.5 -64.5t63.5 -27.5t63.5 27.5t26.5 64.5 t-26.5 63.5t-63.5 26.5t-63.5 -26.5t-26.5 -63.5z" />
<glyph unicode="&#xe6;" horiz-adv-x="1853" d="M27 276q0 86 37.5 156t103 118t156 74.5t192.5 26.5q84 0 148.5 -17.5t123.5 -43.5l9 43q4 20 4 41q0 90 -63.5 142t-162.5 52q-84 0 -158.5 -37.5t-111.5 -103.5l-158 84q63 98 172 161.5t279 63.5q123 0 207 -54t127 -140q76 88 183.5 141t238.5 53q102 0 180 -31.5 t130 -89t78.5 -134t26.5 -165.5q0 -37 -4 -75.5t-14 -73.5h-788q-2 -10 -3.5 -27.5t-1.5 -31.5q0 -68 24 -119t61.5 -84t86 -49.5t97.5 -16.5q106 0 186 48.5t133 129.5l150 -79q-80 -133 -206 -202t-276 -69q-147 0 -244.5 65.5t-146.5 170.5q-78 -106 -189.5 -171 t-252.5 -65q-78 0 -142.5 21.5t-111.5 62.5t-73.5 97.5t-26.5 127.5zM223 293q0 -39 16.5 -68.5t42 -49t59.5 -30t71 -10.5q63 0 121.5 22.5t104.5 62.5t79 94.5t43 115.5q-25 18 -62 35q-33 12 -81 23.5t-115 11.5q-51 0 -101.5 -12.5t-89.5 -38t-63.5 -64.5t-24.5 -92z M999 623h580v22q0 33 -10 72t-39 71.5t-78 54t-125 21.5q-117 0 -205 -66.5t-123 -174.5z" />
<glyph unicode="&#xe7;" horiz-adv-x="1069" d="M10 430q0 131 47 242.5t128 192.5t190.5 126t234.5 45q92 0 162 -25.5t120 -66.5t81 -93t45 -103l-176 -68q-25 86 -87.5 135t-166.5 49q-82 0 -152.5 -31.5t-122 -88t-81 -133t-29.5 -167.5q0 -61 18.5 -117.5t53 -97.5t88 -65.5t120.5 -24.5q96 0 173 51.5t130 139.5 l152 -72q-47 -74 -95 -129t-106.5 -91t-127 -53.5t-154.5 -17.5l-39 -65q8 2 16 3t25 1q72 0 113.5 -50.5t41.5 -129.5q0 -92 -61.5 -151.5t-165.5 -59.5q-70 0 -122 39.5t-64 97.5l114 47q4 -29 25.5 -49.5t54.5 -20.5q37 0 65.5 24.5t28.5 72.5q0 29 -19 50t-54 21 q-23 0 -38.5 -8t-31.5 -25l-88 46l92 167q-78 16 -140.5 57.5t-106.5 102t-67.5 135t-23.5 158.5z" />
<glyph unicode="&#xe8;" horiz-adv-x="1097" d="M10 426q0 117 40 226.5t116 195.5t183.5 137t240.5 51q104 0 184 -32.5t133.5 -90t80 -133t26.5 -164.5q0 -37 -4 -77.5t-15 -71.5h-790q-2 -20 -2 -33v-26q0 -68 23.5 -119t62.5 -84t88 -49.5t100 -16.5q102 0 183 49.5t135 130.5l145 -81q-80 -133 -205 -202t-268 -69 q-111 0 -196 37t-143 99.5t-88 145.5t-30 177zM240 623h583v22q0 43 -15 83t-47 69.5t-79 48t-111 18.5q-123 0 -210 -66.5t-121 -174.5zM457 1466h200l60 -262h-160z" />
<glyph unicode="&#xe9;" horiz-adv-x="1097" d="M10 426q0 117 40 226.5t116 195.5t183.5 137t240.5 51q104 0 184 -32.5t133.5 -90t80 -133t26.5 -164.5q0 -37 -4 -77.5t-15 -71.5h-790q-2 -20 -2 -33v-26q0 -68 23.5 -119t62.5 -84t88 -49.5t100 -16.5q102 0 183 49.5t135 130.5l145 -81q-80 -133 -205 -202t-268 -69 q-111 0 -196 37t-143 99.5t-88 145.5t-30 177zM240 623h583v22q0 43 -15 83t-47 69.5t-79 48t-111 18.5q-123 0 -210 -66.5t-121 -174.5zM524 1204l154 262h209l-195 -262h-168z" />
<glyph unicode="&#xea;" horiz-adv-x="1097" d="M10 426q0 117 40 226.5t116 195.5t183.5 137t240.5 51q104 0 184 -32.5t133.5 -90t80 -133t26.5 -164.5q0 -37 -4 -77.5t-15 -71.5h-790q-2 -20 -2 -33v-26q0 -68 23.5 -119t62.5 -84t88 -49.5t100 -16.5q102 0 183 49.5t135 130.5l145 -81q-80 -133 -205 -202t-268 -69 q-111 0 -196 37t-143 99.5t-88 145.5t-30 177zM240 623h583v22q0 43 -15 83t-47 69.5t-79 48t-111 18.5q-123 0 -210 -66.5t-121 -174.5zM344 1199l2 10l254 239h163l168 -239l-2 -10h-170l-84 122h-16l-121 -122h-194z" />
<glyph unicode="&#xeb;" horiz-adv-x="1097" d="M10 426q0 117 40 226.5t116 195.5t183.5 137t240.5 51q104 0 184 -32.5t133.5 -90t80 -133t26.5 -164.5q0 -37 -4 -77.5t-15 -71.5h-790q-2 -20 -2 -33v-26q0 -68 23.5 -119t62.5 -84t88 -49.5t100 -16.5q102 0 183 49.5t135 130.5l145 -81q-80 -133 -205 -202t-268 -69 q-111 0 -196 37t-143 99.5t-88 145.5t-30 177zM240 623h583v22q0 43 -15 83t-47 69.5t-79 48t-111 18.5q-123 0 -210 -66.5t-121 -174.5zM360 1350q0 51 35 83.5t82 32.5q51 0 84 -32.5t33 -83.5q0 -47 -33 -82t-84 -35q-47 0 -82 35t-35 82zM704 1350q0 51 35 83.5t82 32.5 q51 0 84 -32.5t33 -83.5q0 -47 -33 -82t-84 -35q-47 0 -82 35t-35 82z" />
<glyph unicode="&#xec;" horiz-adv-x="450" d="M0 0l176 1004h189l-177 -1004h-188zM133 1466h200l60 -262h-160z" />
<glyph unicode="&#xed;" horiz-adv-x="450" d="M0 0l176 1004h189l-177 -1004h-188zM215 1204l154 262h209l-195 -262h-168z" />
<glyph unicode="&#xee;" horiz-adv-x="450" d="M0 0l176 1004h189l-177 -1004h-188zM11 1217l2 10l254 239h163l168 -239l-2 -10h-170l-84 122h-16l-121 -122h-194z" />
<glyph unicode="&#xef;" horiz-adv-x="450" d="M0 0l176 1004h189l-177 -1004h-188zM74 1350q0 51 34.5 83.5t81.5 32.5q51 0 84 -32.5t33 -83.5q0 -47 -33 -82t-84 -35q-47 0 -81.5 35t-34.5 82zM352 1350q0 51 35 83.5t82 32.5q51 0 84 -32.5t33 -83.5q0 -47 -33 -82t-84 -35q-47 0 -82 35t-35 82z" />
<glyph unicode="&#xf0;" horiz-adv-x="1169" d="M29 414q0 111 42 212t115.5 178t176 122t223.5 45q92 0 157.5 -31t108.5 -74l10 6q-23 86 -59.5 153t-87.5 120l-266 -109l-54 129l193 78q-88 53 -201 82l64 158q98 -27 180 -68t149 -94l232 96l51 -127l-176 -73q92 -113 137 -254.5t45 -305.5q0 -131 -35 -254.5 t-105.5 -221t-178 -156t-252.5 -58.5q-96 0 -181.5 33t-150 91.5t-101 140t-36.5 182.5zM223 422q0 -66 23.5 -116t63.5 -86t93.5 -54.5t112.5 -18.5q66 0 127.5 28t108.5 75t75.5 112.5t28.5 139.5q0 129 -68.5 212t-209.5 83q-78 0 -142.5 -29t-112 -80t-74 -118.5 t-26.5 -147.5z" />
<glyph unicode="&#xf1;" d="M-14 0l176 1004h180l-25 -140h9q51 74 139 123t201 49q147 0 236 -84t89 -225q0 -31 -3 -70t-11 -79l-103 -578h-188l107 602q8 41 8 82q0 92 -56.5 136t-150.5 44q-61 0 -115.5 -24.5t-96.5 -66.5t-70.5 -98.5t-39.5 -119.5l-98 -555h-188zM314 1239q16 123 79.5 182.5 t153.5 59.5q37 0 69.5 -14.5t63.5 -30.5q29 -18 59.5 -33t65.5 -15q61 0 80 72h156q-16 -123 -80 -182t-154 -59q-37 0 -68.5 14t-60.5 33q-31 16 -61.5 30.5t-67.5 14.5q-61 0 -80 -72h-155z" />
<glyph unicode="&#xf2;" horiz-adv-x="1146" d="M10 446q0 125 45 232.5t125 187.5t190.5 125t239.5 45q104 0 191.5 -37.5t149 -103.5t95 -153t33.5 -185q0 -125 -45 -232.5t-125 -187.5t-190.5 -125t-239.5 -45q-104 0 -191 38t-148.5 103.5t-95.5 152.5t-34 185zM203 459q0 -70 23.5 -128.5t63.5 -101.5t94.5 -66.5 t113.5 -23.5q90 0 162.5 34t123 90t77 129t26.5 153q0 70 -23.5 128t-63.5 101t-94.5 66.5t-113.5 23.5q-90 0 -163 -33.5t-123 -90t-76.5 -129t-26.5 -152.5zM465 1466h200l60 -262h-160z" />
<glyph unicode="&#xf3;" horiz-adv-x="1146" d="M10 446q0 125 45 232.5t125 187.5t190.5 125t239.5 45q104 0 191.5 -37.5t149 -103.5t95 -153t33.5 -185q0 -125 -45 -232.5t-125 -187.5t-190.5 -125t-239.5 -45q-104 0 -191 38t-148.5 103.5t-95.5 152.5t-34 185zM203 459q0 -70 23.5 -128.5t63.5 -101.5t94.5 -66.5 t113.5 -23.5q90 0 162.5 34t123 90t77 129t26.5 153q0 70 -23.5 128t-63.5 101t-94.5 66.5t-113.5 23.5q-90 0 -163 -33.5t-123 -90t-76.5 -129t-26.5 -152.5zM557 1204l154 262h209l-195 -262h-168z" />
<glyph unicode="&#xf4;" horiz-adv-x="1146" d="M10 446q0 125 45 232.5t125 187.5t190.5 125t239.5 45q104 0 191.5 -37.5t149 -103.5t95 -153t33.5 -185q0 -125 -45 -232.5t-125 -187.5t-190.5 -125t-239.5 -45q-104 0 -191 38t-148.5 103.5t-95.5 152.5t-34 185zM203 459q0 -70 23.5 -128.5t63.5 -101.5t94.5 -66.5 t113.5 -23.5q90 0 162.5 34t123 90t77 129t26.5 153q0 70 -23.5 128t-63.5 101t-94.5 66.5t-113.5 23.5q-90 0 -163 -33.5t-123 -90t-76.5 -129t-26.5 -152.5zM357 1217l2 10l254 239h163l168 -239l-2 -10h-170l-84 122h-16l-121 -122h-194z" />
<glyph unicode="&#xf5;" horiz-adv-x="1146" d="M10 446q0 125 45 232.5t125 187.5t190.5 125t239.5 45q104 0 191.5 -37.5t149 -103.5t95 -153t33.5 -185q0 -125 -45 -232.5t-125 -187.5t-190.5 -125t-239.5 -45q-104 0 -191 38t-148.5 103.5t-95.5 152.5t-34 185zM203 459q0 -70 23.5 -128.5t63.5 -101.5t94.5 -66.5 t113.5 -23.5q90 0 162.5 34t123 90t77 129t26.5 153q0 70 -23.5 128t-63.5 101t-94.5 66.5t-113.5 23.5q-90 0 -163 -33.5t-123 -90t-76.5 -129t-26.5 -152.5zM316 1239q16 123 79.5 182.5t153.5 59.5q37 0 69.5 -14.5t63.5 -30.5q29 -18 59.5 -33t65.5 -15q61 0 80 72h156 q-16 -123 -80 -182t-154 -59q-37 0 -68.5 14t-60.5 33q-31 16 -61.5 30.5t-67.5 14.5q-61 0 -80 -72h-155z" />
<glyph unicode="&#xf6;" horiz-adv-x="1146" d="M10 446q0 125 45 232.5t125 187.5t190.5 125t239.5 45q104 0 191.5 -37.5t149 -103.5t95 -153t33.5 -185q0 -125 -45 -232.5t-125 -187.5t-190.5 -125t-239.5 -45q-104 0 -191 38t-148.5 103.5t-95.5 152.5t-34 185zM203 459q0 -70 23.5 -128.5t63.5 -101.5t94.5 -66.5 t113.5 -23.5q90 0 162.5 34t123 90t77 129t26.5 153q0 70 -23.5 128t-63.5 101t-94.5 66.5t-113.5 23.5q-90 0 -163 -33.5t-123 -90t-76.5 -129t-26.5 -152.5zM389 1350q0 51 35 83.5t82 32.5q51 0 84 -32.5t33 -83.5q0 -47 -33 -82t-84 -35q-47 0 -82 35t-35 82zM733 1350 q0 51 35 83.5t82 32.5q51 0 84 -32.5t33 -83.5q0 -47 -33 -82t-84 -35q-47 0 -82 35t-35 82z" />
<glyph unicode="&#xf7;" horiz-adv-x="1126" d="M68 477l28 156h897l-28 -156h-897zM326 180q0 59 40 99t99 40t99 -39.5t40 -99.5q0 -59 -40 -99t-99 -40t-99 40t-40 99zM457 930q0 59 40 99t99 40t99 -40t40 -99t-40 -99t-99 -40t-99 39.5t-40 99.5z" />
<glyph unicode="&#xf8;" horiz-adv-x="1146" d="M10 446q0 125 45 232.5t125 187.5t190.5 125t239.5 45q137 0 246 -67l92 116l117 -90l-98 -121q53 -66 82.5 -145.5t29.5 -171.5q0 -125 -45 -232.5t-125 -187.5t-190.5 -125t-239.5 -45q-57 0 -107 11.5t-96 31.5l-69 -86l-119 88l66 82q-68 66 -106 157t-38 195z M203 459q0 -63 18.5 -117.5t52.5 -95.5l463 577q-66 41 -145 41q-90 0 -163 -33.5t-123 -90t-76.5 -129t-26.5 -152.5zM395 158q46 -19 103 -19q90 0 162.5 34t123 90t77 129t26.5 153q0 47 -12.5 91t-32.5 81z" />
<glyph unicode="&#xf9;" d="M39 276q0 31 3 70t11 80l103 578h188l-106 -603q-8 -41 -9 -82q0 -92 56.5 -136t150.5 -44q61 0 115.5 24.5t96.5 66.5t71 98.5t39 120.5l98 555h188l-176 -1004h-180l25 139h-8q-51 -74 -139.5 -123t-200.5 -49q-147 0 -236.5 84t-89.5 225zM469 1466h200l60 -262h-160z " />
<glyph unicode="&#xfa;" d="M39 276q0 31 3 70t11 80l103 578h188l-106 -603q-8 -41 -9 -82q0 -92 56.5 -136t150.5 -44q61 0 115.5 24.5t96.5 66.5t71 98.5t39 120.5l98 555h188l-176 -1004h-180l25 139h-8q-51 -74 -139.5 -123t-200.5 -49q-147 0 -236.5 84t-89.5 225zM530 1204l154 262h209 l-195 -262h-168z" />
<glyph unicode="&#xfb;" d="M39 276q0 31 3 70t11 80l103 578h188l-106 -603q-8 -41 -9 -82q0 -92 56.5 -136t150.5 -44q61 0 115.5 24.5t96.5 66.5t71 98.5t39 120.5l98 555h188l-176 -1004h-180l25 139h-8q-51 -74 -139.5 -123t-200.5 -49q-147 0 -236.5 84t-89.5 225zM344 1186l2 10l254 239h163 l168 -239l-2 -10h-170l-84 122h-16l-121 -122h-194z" />
<glyph unicode="&#xfc;" d="M39 276q0 31 3 70t11 80l103 578h188l-106 -603q-8 -41 -9 -82q0 -92 56.5 -136t150.5 -44q61 0 115.5 24.5t96.5 66.5t71 98.5t39 120.5l98 555h188l-176 -1004h-180l25 139h-8q-51 -74 -139.5 -123t-200.5 -49q-147 0 -236.5 84t-89.5 225zM375 1350q0 51 35 83.5 t82 32.5q51 0 84 -32.5t33 -83.5q0 -47 -33 -82t-84 -35q-47 0 -82 35t-35 82zM719 1350q0 51 35 83.5t82 32.5q51 0 84 -32.5t33 -83.5q0 -47 -33 -82t-84 -35q-47 0 -82 35t-35 82z" />
<glyph unicode="&#xfd;" horiz-adv-x="1019" d="M10 -442l324 505l-248 941h199l176 -723h4l420 723h209l-885 -1446h-199zM504 1204l154 262h209l-195 -262h-168z" />
<glyph unicode="&#xfe;" horiz-adv-x="1179" d="M-53 -442l336 1908h188l-82 -462l-33 -140h9q51 70 136 121t214 51q88 0 163.5 -32.5t132 -93t88 -147.5t31.5 -196q0 -117 -44 -224t-121.5 -191t-184 -134.5t-231.5 -50.5q-102 0 -185 49.5t-126 122.5h-9l-16 -139l-78 -442h-188zM285 438q0 -147 79.5 -223t198.5 -76 q78 0 146.5 32t119 88t80 132t29.5 164q0 145 -70.5 227t-205.5 82q-80 0 -150 -35.5t-120 -95t-78.5 -136.5t-28.5 -159z" />
<glyph unicode="&#xff;" horiz-adv-x="1019" d="M10 -442l324 505l-248 941h199l176 -723h4l420 723h209l-885 -1446h-199zM327 1350q0 51 35 83.5t82 32.5q51 0 84 -32.5t33 -83.5q0 -47 -33 -82t-84 -35q-47 0 -82 35t-35 82zM671 1350q0 51 35 83.5t82 32.5q51 0 84 -32.5t33 -83.5q0 -47 -33 -82t-84 -35 q-47 0 -82 35t-35 82z" />
<glyph unicode="&#x152;" horiz-adv-x="2353" d="M63 631q0 168 62.5 324.5t176.5 277.5t274.5 193.5t355.5 72.5q176 0 319.5 -74.5t229.5 -207.5l45 249h856l-33 -180h-668l-82 -465h603l-31 -176h-602l-82 -465h667l-32 -180h-856l32 186q-113 -102 -254 -160.5t-311 -58.5q-141 0 -263 48t-213 136.5t-142.5 210 t-51.5 269.5zM258 645q0 -117 39 -209t105.5 -156.5t157 -98.5t192.5 -34q137 0 254.5 57.5t205.5 152t138.5 216t50.5 248.5q0 117 -39 209t-105.5 156.5t-156.5 98.5t-193 34q-137 0 -256 -57.5t-206 -151.5t-137 -215t-50 -250z" />
<glyph unicode="&#x153;" horiz-adv-x="1949" d="M43 446q0 125 45 232.5t125 187.5t190.5 125t239.5 45q137 0 237.5 -62.5t155.5 -166.5q74 104 186.5 166.5t262.5 62.5q102 0 180 -31.5t130 -89t79 -134t27 -165.5q0 -76 -19 -149h-788q-2 -10 -3 -27.5t-1 -31.5q0 -68 23.5 -119t61 -84t86 -49.5t97.5 -16.5 q106 0 186 48.5t133 129.5l150 -79q-80 -133 -206 -202t-275 -69q-137 0 -230.5 58.5t-144.5 154.5q-78 -98 -195 -155.5t-264 -57.5q-104 0 -191.5 38t-148.5 103.5t-95 152.5t-34 185zM236 459q0 -70 23.5 -128.5t63 -101.5t94 -66.5t113.5 -23.5q90 0 163 34t123 90 t77 129t27 153q0 70 -24 128t-63.5 101t-94 66.5t-113.5 23.5q-90 0 -163 -33.5t-123 -90t-76.5 -129t-26.5 -152.5zM1130 623h580v22q0 33 -10 72t-39 71.5t-78 54t-125 21.5q-117 0 -205 -66.5t-123 -174.5z" />
<glyph unicode="&#x2c6;" horiz-adv-x="819" d="M199 1217l2 10l254 239h163l168 -239l-2 -10h-170l-84 122h-16l-121 -122h-194z" />
<glyph unicode="&#x2dc;" horiz-adv-x="819" d="M152 1237q16 123 79.5 182.5t153.5 59.5q37 0 69.5 -14.5t63.5 -30.5q29 -18 59.5 -33t65.5 -15q61 0 80 72h156q-16 -123 -80 -182t-154 -59q-37 0 -68.5 14t-60.5 33q-31 16 -61.5 30.5t-67.5 14.5q-61 0 -80 -72h-155z" />
<glyph unicode="&#x2000;" horiz-adv-x="928" />
<glyph unicode="&#x2001;" horiz-adv-x="1856" />
<glyph unicode="&#x2002;" horiz-adv-x="928" />
<glyph unicode="&#x2003;" horiz-adv-x="1856" />
<glyph unicode="&#x2004;" horiz-adv-x="618" />
<glyph unicode="&#x2005;" horiz-adv-x="464" />
<glyph unicode="&#x2006;" horiz-adv-x="309" />
<glyph unicode="&#x2007;" horiz-adv-x="309" />
<glyph unicode="&#x2008;" horiz-adv-x="232" />
<glyph unicode="&#x2009;" horiz-adv-x="371" />
<glyph unicode="&#x200a;" horiz-adv-x="103" />
<glyph unicode="&#x2010;" horiz-adv-x="884" d="M82 557l27 156h655l-27 -156h-655z" />
<glyph unicode="&#x2011;" horiz-adv-x="884" d="M82 557l27 156h655l-27 -156h-655z" />
<glyph unicode="&#x2012;" horiz-adv-x="884" d="M82 557l27 156h655l-27 -156h-655z" />
<glyph unicode="&#x2013;" horiz-adv-x="1212" d="M86 557l27 156h983l-27 -156h-983z" />
<glyph unicode="&#x2014;" horiz-adv-x="1826" d="M86 557l27 156h1597l-27 -156h-1597z" />
<glyph unicode="&#x2018;" horiz-adv-x="475" d="M154 1159q0 35 25.5 72t60.5 80l157 188l76 -63l-123 -150q20 -8 51 -38.5t31 -88.5q0 -59 -42 -99t-95 -40q-59 0 -100 40t-41 99z" />
<glyph unicode="&#x2019;" horiz-adv-x="475" d="M180 1083l123 150q-10 4 -24.5 13t-26.5 24.5t-21.5 38t-9.5 51.5q0 59 42 99t95 40q59 0 100.5 -40t41.5 -99q0 -35 -25.5 -72t-60.5 -80l-158 -188z" />
<glyph unicode="&#x201a;" horiz-adv-x="475" d="M-43 -148l123 150q-10 4 -24.5 13t-26.5 24.5t-21.5 38t-9.5 51.5q0 59 42 99t95 40q59 0 100.5 -40t41.5 -99q0 -35 -25.5 -72t-60.5 -80l-158 -188z" />
<glyph unicode="&#x201c;" horiz-adv-x="835" d="M154 1159q0 35 25.5 72t60.5 80l157 188l76 -63l-123 -150q20 -8 51 -38.5t31 -88.5q0 -59 -42 -99t-95 -40q-59 0 -100 40t-41 99zM514 1159q0 35 25.5 72t60.5 80l157 188l76 -63l-123 -150q20 -8 51 -38.5t31 -88.5q0 -59 -42 -99t-95 -40q-59 0 -100 40t-41 99z" />
<glyph unicode="&#x201d;" horiz-adv-x="835" d="M180 1083l123 150q-10 4 -24.5 13t-26.5 24.5t-21.5 38t-9.5 51.5q0 59 42 99t95 40q59 0 100.5 -40t41.5 -99q0 -35 -25.5 -72t-60.5 -80l-158 -188zM540 1083l123 150q-10 4 -24.5 13t-26.5 24.5t-21.5 38t-9.5 51.5q0 59 42 99t95 40q59 0 100.5 -40t41.5 -99 q0 -35 -25.5 -72t-60.5 -80l-158 -188z" />
<glyph unicode="&#x201e;" horiz-adv-x="835" d="M-43 -148l123 150q-10 4 -24.5 13t-26.5 24.5t-21.5 38t-9.5 51.5q0 59 42 99t95 40q59 0 100.5 -40t41.5 -99q0 -35 -25.5 -72t-60.5 -80l-158 -188zM315 -148l123 150q-10 4 -24.5 13t-26.5 24.5t-21.5 38t-9.5 51.5q0 59 42 99t95 40q59 0 100.5 -40t41.5 -99 q0 -35 -25.5 -72t-60.5 -80l-158 -188z" />
<glyph unicode="&#x2022;" horiz-adv-x="819" d="M152 664q0 51 19 95t53 77.5t78 53t95 19.5t95.5 -19.5t78 -53t53 -77.5t19.5 -95t-19.5 -95.5t-53 -78t-78 -53t-95.5 -19.5t-95 19.5t-78 53t-53 77.5t-19 96z" />
<glyph unicode="&#x2026;" horiz-adv-x="1441" d="M-8 127q0 59 40 99t99 40t99 -40t40 -99t-40 -99t-99 -40t-99 40t-40 99zM475 127q0 59 40 99t99 40t99 -40t40 -99t-40 -99t-99 -40t-99 40t-40 99zM959 127q0 59 40 99t99 40t99 -40t40 -99t-40 -99t-99 -40t-99 40t-40 99z" />
<glyph unicode="&#x202f;" horiz-adv-x="371" />
<glyph unicode="&#x2039;" horiz-adv-x="729" d="M41 555l491 449l97 -109l-383 -350l252 -340l-123 -99z" />
<glyph unicode="&#x203a;" horiz-adv-x="729" d="M29 215l383 350l-252 340l123 99l333 -449l-491 -449z" />
<glyph unicode="&#x205f;" horiz-adv-x="464" />
<glyph unicode="&#x20ac;" horiz-adv-x="1288" d="M2 459l27 155h166q0 43 5 86t15 86h-156l27 156h178q45 104 119 193.5t169 156t211 104.5t249 38q100 0 171.5 -25t131.5 -66l-103 -155q-41 29 -97 46t-134 17q-174 0 -306 -86t-206 -223h471l-27 -156h-503q-20 -80 -21 -172h494l-27 -155h-448q41 -162 150.5 -235.5 t242.5 -73.5q135 0 262 65l74 -158q-88 -49 -174 -69.5t-187 -20.5q-109 0 -204 32t-169.5 94.5t-126 153.5t-71.5 212h-203z" />
<glyph unicode="&#x25fc;" horiz-adv-x="1003" d="M0 0v1004h1004v-1004h-1004z" />
<glyph unicode="&#xfb01;" horiz-adv-x="1196" d="M63 831l31 173h189l26 145q29 160 136.5 247t261.5 87q49 0 86.5 -11.5t66.5 -29.5l-78 -160q-16 10 -40.5 17.5t-53.5 7.5q-72 0 -125 -42t-69 -135l-23 -126h639l-176 -1004h-189l146 831h-451l-145 -831h-189l146 831h-189zM944 1350q0 55 39 94t94 39t94 -39t39 -94 t-39 -94t-94 -39t-94 38.5t-39 94.5z" />
<glyph unicode="&#xfb02;" horiz-adv-x="1179" d="M63 831l31 173h189l28 149q12 72 44 131t83 101t122 66t163 24h471l-260 -1475h-189l230 1303h-283q-168 0 -198 -173l-23 -126h244l-31 -173h-244l-145 -831h-189l146 831h-189z" />
<glyph unicode="&#xfb03;" horiz-adv-x="1835" d="M63 831l31 173h189l26 145q29 160 136.5 247t261.5 87q49 0 86.5 -11.5t66.5 -29.5l-78 -160q-16 10 -40.5 17.5t-53.5 7.5q-72 0 -125 -42t-69 -135l-23 -126h451l26 145q29 160 136.5 247t261.5 87q49 0 86.5 -11.5t66.5 -29.5l-78 -160q-16 10 -40.5 17.5t-53.5 7.5 q-72 0 -125 -42t-69 -135l-23 -126h639l-176 -1004h-189l146 831h-451l-145 -831h-189l146 831h-451l-145 -831h-189l146 831h-189zM1583 1350q0 55 39 94t94 39t94 -39t39 -94t-39 -94t-94 -39t-94 38.5t-39 94.5z" />
<glyph unicode="&#xfb04;" horiz-adv-x="1818" d="M63 831l31 173h189l26 145q29 160 136.5 247t261.5 87q49 0 86.5 -11.5t66.5 -29.5l-78 -160q-16 10 -40.5 17.5t-53.5 7.5q-72 0 -125 -42t-69 -135l-23 -126h451l28 149q12 72 44 131t83 101t122 66t163 24h471l-260 -1475h-189l230 1303h-283q-168 0 -198 -173 l-23 -126h244l-31 -173h-244l-145 -831h-189l146 831h-451l-145 -831h-189l146 831h-189z" />
</font>
</defs>
</svg>
