<?xml version="1.0" standalone="no"?>
<!DOCTYPE svg PUBLIC "-//W3C//DTD SVG 1.1//EN" "http://www.w3.org/Graphics/SVG/1.1/DTD/svg11.dtd" >
<svg xmlns="http://www.w3.org/2000/svg" xmlns:xlink="http://www.w3.org/1999/xlink" version="1.1">
<metadata></metadata>
<defs>
<font id="product_sansbold_italic" horiz-adv-x="1175" >
<font-face units-per-em="2048" ascent="1638" descent="-410" />
<missing-glyph horiz-adv-x="450" />
<glyph horiz-adv-x="0" />
<glyph unicode="&#xd;" horiz-adv-x="0" d="M0 0z" />
<glyph horiz-adv-x="0" d="M0 0z" />
<glyph horiz-adv-x="0" d="M0 0z" />
<glyph unicode=" " horiz-adv-x="450" d="M0 0z" />
<glyph unicode="!" horiz-adv-x="550" d="M0 166q0 74 51 125t125 51t126 -51t52 -125t-52 -126t-126 -52t-125 52t-51 126zM123 504l70 540l73 422h277l-74 -422l-123 -540h-223z" />
<glyph unicode="&#x22;" horiz-adv-x="776" d="M137 1004l82 462h244l-82 -462h-244zM489 1004l82 462h244l-82 -462h-244z" />
<glyph unicode="#" horiz-adv-x="1345" d="M37 393l41 209h233l37 215h-239l38 209h236l68 375h227l-68 -375h230l67 375h226l-66 -375h236l-37 -209h-236l-37 -215h240l-37 -209h-240l-67 -393h-227l69 393h-229l-70 -393h-227l69 393h-237zM532 598h238l39 223h-238z" />
<glyph unicode="$" horiz-adv-x="1144" d="M-8 369l239 96q14 -78 58.5 -142.5t120.5 -91.5l67 392q-66 29 -123 66.5t-100 86.5t-67.5 110.5t-24.5 135.5q0 82 32.5 153.5t93 125t145.5 87t188 42.5l30 176h183l-33 -185q68 -16 120 -45.5t90 -69.5t63.5 -85t37.5 -88l-242 -93q-16 45 -42.5 80t-69.5 56l-66 -373 q158 -72 241 -162t83 -227q0 -98 -35 -176t-98.5 -134.5t-149.5 -89t-186 -43.5l-31 -176h-182l31 182q-68 14 -129.5 46t-111.5 82.5t-85 116t-47 147.5zM416 1032q0 -84 108 -149l54 305q-70 -12 -116 -50t-46 -106zM590 223q70 14 112.5 56t42.5 116q0 51 -24.5 86 t-73.5 64z" />
<glyph unicode="%" horiz-adv-x="1722" d="M123 1040q0 78 29.5 150t84 126t131 86t169.5 32q70 0 128 -22.5t101 -64.5t66.5 -98.5t23.5 -124.5q0 -82 -31.5 -153.5t-86 -123.5t-128 -83t-157.5 -31q-74 0 -134.5 23.5t-104.5 64.5t-67.5 97.5t-23.5 121.5zM215 80l1149 1356l137 -119l-1149 -1356zM346 1063 q0 -59 37 -94t88 -35q70 0 116 50t46 122q0 57 -34 92t-85 35q-76 0 -122 -49t-46 -121zM860 274q0 78 30 150t85 126t132 86t169 32q70 0 128 -22.5t101 -64.5t66.5 -98.5t23.5 -124.5q0 -82 -31.5 -153.5t-86 -123.5t-128 -83t-157.5 -31q-74 0 -135.5 23.5t-105.5 64.5 t-67.5 97.5t-23.5 121.5zM1083 297q0 -59 37 -94t88 -35q70 0 117 50t47 122q0 57 -34.5 92t-86.5 35q-74 0 -121 -49t-47 -121z" />
<glyph unicode="&#x26;" horiz-adv-x="1325" d="M16 418q0 160 80 284.5t234 208.5q-23 47 -37 94.5t-14 98.5q0 80 28.5 151.5t83.5 126t133 86t176 31.5q74 0 132.5 -19.5t101.5 -53t71.5 -80t47.5 -99.5l-240 -104q-10 49 -48 85t-97 36t-98.5 -38t-39.5 -93q0 -35 11.5 -64t33.5 -63l332 -537l162 217l168 -127 l-213 -276l113 -183l-219 -133l-74 117q-78 -61 -165 -89t-200 -28q-96 0 -180 32t-146.5 90t-99.5 142t-37 187zM279 457q0 -57 20 -103.5t55 -78t80 -49t96 -17.5q109 0 195 63l-281 449q-78 -47 -121.5 -111.5t-43.5 -152.5z" />
<glyph unicode="'" horiz-adv-x="423" d="M137 1004l82 462h244l-82 -462h-244z" />
<glyph unicode="(" horiz-adv-x="735" d="M111 502q0 317 143 596.5t401 498.5l172 -151q-213 -211 -330.5 -436.5t-117.5 -501.5q0 -102 12 -191.5t33.5 -167t52.5 -148.5t70 -138l-201 -142q-45 68 -88 151t-75.5 181.5t-52 211t-19.5 237.5z" />
<glyph unicode=")" horiz-adv-x="735" d="M-92 -127q106 104 189 213t140.5 223.5t87 238.5t29.5 263q0 205 -45 358.5t-121 286.5l199 141q45 -68 88 -150.5t76 -181t52.5 -211t19.5 -237.5q0 -317 -142.5 -596.5t-402.5 -499.5z" />
<glyph unicode="*" horiz-adv-x="950" d="M166 1126l72 181l208 -80l19 6l41 233h194l-43 -233l17 -6l213 71l53 -176l-238 -88l-10 -18l115 -199l-174 -106l-115 204h-16l-180 -204l-144 120l184 203l-4 19z" />
<glyph unicode="+" horiz-adv-x="1165" d="M61 436l41 238h351l61 348h238l-62 -348h348l-41 -238h-350l-61 -348h-238l62 348h-349z" />
<glyph unicode="," horiz-adv-x="555" d="M-63 -180l153 188q-33 23 -59.5 58.5t-26.5 99.5q0 37 14.5 68.5t39 56t56 38t68.5 13.5q74 0 126 -51t52 -125q0 -37 -17 -72t-52 -76l-242 -290z" />
<glyph unicode="-" horiz-adv-x="923" d="M76 516l41 238h694l-43 -238h-692z" />
<glyph unicode="." horiz-adv-x="550" d="M-2 166q0 74 52 125t126 51t126 -51t52 -125t-52 -126t-126 -52t-126 52t-52 126z" />
<glyph unicode="/" horiz-adv-x="983" d="M-78 0l866 1466h271l-869 -1466h-268z" />
<glyph unicode="0" horiz-adv-x="1355" d="M72 582q0 172 52 326.5t145 271t223.5 185.5t287.5 69q109 0 201 -40t158.5 -118t103.5 -192.5t37 -264.5q0 -172 -52 -326.5t-146.5 -271.5t-224.5 -185.5t-286 -68.5q-111 0 -201.5 40t-157.5 118t-103.5 192.5t-36.5 264.5zM344 608q0 -190 70.5 -289.5t183.5 -99.5 q94 0 170 53.5t129 137.5t82 185t29 198q0 190 -71 289.5t-185 99.5q-94 0 -170 -53.5t-128.5 -137.5t-81 -185t-28.5 -198z" />
<glyph unicode="1" horiz-adv-x="868" d="M164 1208l446 193h203l-248 -1401h-268l190 1083l-237 -94z" />
<glyph unicode="2" horiz-adv-x="1116" d="M-31 0l41 244q139 119 260 221q51 43 105 88q51 45 98 84q45 39 82 70.5t57 50.5q39 35 71 64.5t55.5 59t35.5 62.5t12 74q0 68 -51 116t-131 48q-92 0 -145 -51.5t-80 -122.5l-238 102q25 61 65 119.5t99.5 103.5t140 73t187.5 28q94 0 174 -28t137 -77t89 -117.5 t32 -150.5q0 -74 -21.5 -137.5t-60.5 -121t-94 -111.5t-123 -111q-6 -4 -25 -21q-20 -18 -47.5 -42.5t-62.5 -53.5t-70 -60q-82 -70 -184 -155l4 -12h559l-41 -236h-930z" />
<glyph unicode="3" horiz-adv-x="1146" d="M6 336l262 98q10 -100 71.5 -152.5t156.5 -52.5q51 0 95 14.5t77.5 41t53 64.5t19.5 87q0 86 -59 129t-164 43h-121l43 244h111q104 0 176 47t72 143q0 66 -48.5 105t-119.5 39q-43 0 -76 -13.5t-58.5 -36t-45 -51t-33.5 -59.5l-238 107q25 57 66 112t99 96t137 67 t184 26q90 0 165.5 -27t130 -74t85 -109.5t30.5 -136.5q0 -66 -18.5 -119t-51 -95t-74.5 -72.5t-91 -50.5l-2 -17q70 -37 122 -109.5t52 -177.5q0 -111 -41 -199.5t-115 -151t-174 -95.5t-217 -33q-86 0 -164 24.5t-139.5 71t-102.5 115t-55 158.5z" />
<glyph unicode="4" horiz-adv-x="1261" d="M-2 258l39 223l774 920h301l-156 -893h174l-45 -250h-174l-47 -258h-266l45 258h-645zM346 508h342l86 493h-16z" />
<glyph unicode="5" d="M16 346l256 94q10 -100 68.5 -162.5t157.5 -62.5q53 0 101 17.5t85 51t59.5 81t22.5 108.5q0 88 -53.5 146.5t-143.5 58.5q-63 0 -117.5 -26.5t-95.5 -67.5l-243 104l206 713h791l-41 -236h-567l-111 -327l15 -7q43 35 101 61t136 26q82 0 153.5 -29t125 -82t84 -130 t30.5 -175q0 -111 -39 -208t-111.5 -170t-176 -115t-232.5 -42q-80 0 -156.5 23.5t-140 71t-107.5 118t-57 166.5z" />
<glyph unicode="6" horiz-adv-x="1163" d="M29 406q0 82 19.5 149.5t55 130t86 123.5t111.5 129l447 504l182 -144l-357 -405l11 -12q45 20 102 20q66 0 129.5 -29.5t113.5 -83t80.5 -130t30.5 -169.5q0 -111 -39.5 -206t-112.5 -165.5t-176.5 -110.5t-230.5 -40q-100 0 -183 35t-143.5 94.5t-93 139t-32.5 170.5z M293 414q0 -90 63.5 -144.5t153.5 -54.5q55 0 104.5 18.5t84 52t55 81t20.5 104.5q0 90 -60.5 147.5t-156.5 57.5q-57 0 -105.5 -19.5t-84 -55.5t-55 -84t-19.5 -103z" />
<glyph unicode="7" horiz-adv-x="1118" d="M43 111l756 1024l-4 12h-637l47 254h950l-45 -264l-868 -1170z" />
<glyph unicode="8" horiz-adv-x="1179" d="M16 354q0 129 78 229.5t207 151.5l2 17q-49 37 -86 97t-37 146q0 94 41 175t111.5 139.5t166 91.5t201.5 33q90 0 166 -27t130.5 -73t84 -110.5t29.5 -138.5q0 -123 -63.5 -207.5t-161.5 -134.5l-2 -16q68 -41 114.5 -111.5t46.5 -179.5t-44 -194.5t-119.5 -147 t-180 -94.5t-223.5 -33q-106 0 -191 32t-145.5 85t-92.5 122.5t-32 147.5zM293 387q0 -80 56.5 -126t150.5 -46q55 0 104 14.5t87 44t60.5 72.5t22.5 98q0 72 -57.5 120t-149.5 48q-53 0 -102 -15t-87 -44t-61.5 -71t-23.5 -95zM438 1001q0 -72 53.5 -112.5t135.5 -40.5 q98 0 161.5 53t63.5 135q0 70 -50 114t-134 44q-96 0 -163 -50t-67 -143z" />
<glyph unicode="9" horiz-adv-x="1163" d="M117 911q0 111 40 206t112.5 166t176 111t230.5 40q100 0 183 -34t143.5 -94.5t93 -142.5t32.5 -176q0 -78 -19 -144.5t-55 -128t-86 -123t-110 -128.5l-448 -504l-183 143l357 406l-11 12q-41 -18 -96 -18q-61 0 -125.5 28.5t-117 83t-85 130t-32.5 167.5zM383 930 q0 -90 60.5 -146.5t158.5 -56.5q57 0 105.5 19.5t83 53.5t54 81t19.5 100q0 45 -17.5 84t-46 65.5t-68.5 42t-83 15.5q-57 0 -105 -19.5t-84 -53.5t-56.5 -81t-20.5 -104z" />
<glyph unicode=":" horiz-adv-x="550" d="M-2 166q0 74 52 125t126 51t126 -51t52 -125t-52 -126t-126 -52t-126 52t-52 126zM119 852q0 74 52 126t126 52t126 -52t52 -126t-52 -126t-126 -52t-126 52t-52 126z" />
<glyph unicode=";" horiz-adv-x="555" d="M-63 -168l153 188q-33 23 -59.5 59t-26.5 99q0 37 14.5 70t39 56.5t56 37.5t68.5 14q74 0 126 -52t52 -126q0 -37 -17 -71.5t-52 -75.5l-242 -289zM111 852q0 74 52 126t126 52t126 -52t52 -126t-52 -126t-126 -52t-126 52t-52 126z" />
<glyph unicode="&#x3c;" horiz-adv-x="1087" d="M63 455l37 213l920 385l-47 -273l-567 -223l-5 -16l490 -226l-45 -258z" />
<glyph unicode="=" horiz-adv-x="1189" d="M41 330l43 237h960l-43 -237h-960zM115 739l43 238h958l-41 -238h-960z" />
<glyph unicode="&#x3e;" horiz-adv-x="1087" d="M2 57l49 273l567 223l3 16l-488 226l45 258l783 -398l-39 -213z" />
<glyph unicode="?" horiz-adv-x="1052" d="M150 1178q20 63 62 121.5t101.5 102.5t137 70.5t170.5 26.5q88 0 161.5 -26.5t128 -72.5t84 -110.5t29.5 -140.5q0 -61 -19.5 -113.5t-53 -98.5t-78 -87t-95.5 -82q-41 -33 -67.5 -58.5t-45 -50t-29.5 -53t-20 -67.5l-6 -35h-268l12 67q8 49 22.5 91.5t41 80t70.5 76.5 t112 86q59 41 106.5 89t47.5 112q0 63 -45 104t-121 41q-86 0 -141.5 -51t-79.5 -121zM236 166q0 74 52 125t126 51t125 -51t51 -125t-51 -126t-125 -52t-126 52t-52 126z" />
<glyph unicode="@" horiz-adv-x="1796" d="M72 537q0 197 70.5 358.5t194.5 276t293.5 178t368.5 63.5q141 0 271.5 -46t228.5 -132t156.5 -210t58.5 -280q0 -109 -27.5 -208t-79 -174.5t-126 -120.5t-166.5 -45q-86 0 -144.5 38.5t-78.5 108.5q-51 -74 -128 -110.5t-163 -36.5q-72 0 -137.5 26.5t-114.5 75.5 t-78 116.5t-29 147.5q0 84 29 168t85 150.5t140 108.5t197 42q84 0 138 -30.5t83 -75.5h16l15 78h201l-91 -504q-2 -10 -3 -18.5t-1 -18.5q0 -41 21.5 -64.5t62.5 -23.5q43 0 77 30.5t58.5 80t37 111.5t12.5 128q0 106 -37 198.5t-107.5 160t-174 105.5t-234.5 38 q-150 0 -276 -51.5t-218 -141.5t-143 -215t-51 -272q0 -117 41.5 -213t112.5 -167t165 -110t197 -39q84 0 154.5 17.5t131.5 50.5l64 -178q-82 -39 -172 -57.5t-189 -18.5q-164 0 -296 57.5t-224 153.5t-142 224t-50 270zM651 580q0 -90 57.5 -137.5t131.5 -47.5 q49 0 92 18.5t74.5 52.5t49 80t17.5 101q0 86 -52 136.5t-130 50.5q-55 0 -99 -20.5t-76 -55.5t-48.5 -81t-16.5 -97z" />
<glyph unicode="A" horiz-adv-x="1466" d="M-104 0l798 1466h324l293 -1466h-295l-64 350h-559l-184 -350h-313zM524 604h381l-67 369l-21 176h-16l-82 -176z" />
<glyph unicode="B" horiz-adv-x="1288" d="M16 0l260 1466h521q106 0 188 -29.5t137.5 -78.5t84 -114.5t28.5 -137.5t-21.5 -128t-56.5 -98t-82 -70t-96 -42l-4 -16q80 -37 137 -111t57 -186q0 -104 -43 -188.5t-118.5 -144t-177 -91t-220.5 -31.5h-594zM338 252h307q49 0 94 13.5t79 39t53.5 63.5t19.5 87 q0 78 -49 127t-146 49h-293zM446 868h279q104 0 168.5 48.5t64.5 140.5q0 72 -45 117t-127 45h-278z" />
<glyph unicode="C" horiz-adv-x="1503" d="M61 647q0 172 66 326.5t182.5 271.5t278.5 185.5t356 68.5q186 0 319.5 -67.5t213.5 -184.5l-222 -180q-59 80 -141 125t-207 45q-117 0 -219 -45t-180 -123t-123 -182.5t-45 -224.5q0 -98 31.5 -178.5t87 -136.5t131.5 -87t166 -31q131 0 233.5 54.5t194.5 146.5 l176 -199q-70 -72 -139.5 -121t-145.5 -81.5t-162 -47t-186 -14.5q-139 0 -260 47t-211 135.5t-142.5 214t-52.5 283.5z" />
<glyph unicode="D" horiz-adv-x="1472" d="M16 0l260 1466h467q162 0 287 -48t209 -133t127 -202.5t43 -259.5q0 -164 -60.5 -312.5t-174 -262t-275.5 -181t-367 -67.5h-516zM338 262h209q131 0 239.5 41t185.5 112.5t119 168t42 209.5q0 199 -103.5 305t-314.5 106h-209z" />
<glyph unicode="E" horiz-adv-x="1183" d="M16 0l260 1466h930l-47 -262h-653l-60 -340h588l-47 -262h-588l-61 -340h655l-47 -262h-930z" />
<glyph unicode="F" horiz-adv-x="1142" d="M16 0l260 1466h930l-47 -262h-653l-64 -356h588l-45 -262h-588l-104 -586h-277z" />
<glyph unicode="G" horiz-adv-x="1658" d="M63 664q0 166 63.5 317.5t180.5 266t280 183t363 68.5q184 0 323.5 -64.5t225.5 -174.5l-219 -187q-51 72 -143.5 118t-216.5 46q-119 0 -224.5 -40t-183.5 -113.5t-124 -177t-46 -230.5q0 -104 34 -187t94 -140.5t141 -88.5t175 -31q209 0 342 117q49 41 82 97.5 t56 125.5h-451l41 236h719v-62q0 -176 -68.5 -323.5t-179.5 -247.5q-109 -98 -251 -151.5t-304 -53.5q-158 0 -288 51.5t-223 143.5t-145.5 220t-52.5 282z" />
<glyph unicode="H" horiz-adv-x="1464" d="M16 0l260 1466h277l-104 -585h618l104 585h275l-260 -1466h-275l109 618h-619l-108 -618h-277z" />
<glyph unicode="I" horiz-adv-x="571" d="M16 0l260 1466h277l-260 -1466h-277z" />
<glyph unicode="J" horiz-adv-x="1136" d="M-20 322l266 102q10 -96 67.5 -145.5t141.5 -49.5q96 0 157.5 61.5t81.5 172.5l176 1003h275l-176 -1001q-23 -133 -73 -227.5t-122 -153.5t-160 -88t-188 -29q-86 0 -162 25.5t-136 73t-99 112t-49 144.5z" />
<glyph unicode="K" horiz-adv-x="1370" d="M16 0l260 1466h277l-111 -620h17l639 620h342l-4 -16l-639 -610l436 -824l-4 -16h-324l-330 629l-206 -199l-76 -430h-277z" />
<glyph unicode="L" horiz-adv-x="1093" d="M16 0l260 1466h277l-215 -1204h623l-48 -262h-897z" />
<glyph unicode="M" horiz-adv-x="1755" d="M16 0l260 1466h265l311 -776h16l582 776h287l-260 -1466h-275l129 723l60 246h-17l-489 -658h-160l-264 658h-17l-26 -246l-129 -723h-273z" />
<glyph unicode="N" horiz-adv-x="1480" d="M16 0l260 1466h308l430 -983h16l35 283l123 700h274l-260 -1466h-274l-455 1038h-16l-33 -282l-135 -756h-273z" />
<glyph unicode="O" horiz-adv-x="1683" d="M61 649q0 172 63.5 326.5t178.5 270.5t275.5 184.5t355.5 68.5q154 0 280.5 -51t217 -142.5t140.5 -216t50 -272.5q0 -172 -63.5 -325.5t-178 -270.5t-275 -185.5t-355.5 -68.5q-147 0 -273.5 49.5t-218.5 138.5t-144.5 215t-52.5 279zM340 670q0 -100 34 -181t93 -138.5 t139 -89.5t172 -32q117 0 219.5 46.5t179 124t121.5 180t45 217.5q0 100 -33.5 181t-93 138.5t-139.5 89t-172 31.5q-121 0 -223 -47t-179 -126t-120 -181.5t-43 -212.5z" />
<glyph unicode="P" horiz-adv-x="1212" d="M16 0l260 1466h492q98 0 180 -30.5t142.5 -86t94.5 -133t34 -172.5q0 -121 -42 -215t-118 -158.5t-181.5 -98t-230.5 -33.5h-260l-94 -539h-277zM434 801h250q111 0 184.5 54t73.5 169q0 80 -48 130t-140 50h-248z" />
<glyph unicode="Q" horiz-adv-x="1683" d="M61 649q0 172 63.5 326.5t178.5 270.5t275.5 184.5t355.5 68.5q154 0 280.5 -51t217 -142.5t140.5 -216t50 -272.5q0 -205 -87 -381t-245 -295l78 -155l-244 -125l-75 153q-70 -23 -144.5 -35t-154.5 -12q-147 0 -273.5 49.5t-218.5 138.5t-144.5 215t-52.5 279zM340 670 q0 -100 34 -181t93 -138.5t139 -89.5t172 -32q84 0 154 21l-121 248l244 127l114 -236q80 78 127 183.5t47 224.5q0 100 -33.5 181t-93 138.5t-139.5 89t-172 31.5q-121 0 -223 -47t-179 -126t-120 -181.5t-43 -212.5z" />
<glyph unicode="R" horiz-adv-x="1269" d="M16 0l260 1466h484q104 0 190 -31.5t147.5 -87t94.5 -129t33 -159.5q0 -94 -31 -173t-83 -140.5t-121.5 -102.5t-149.5 -59l-4 -15l286 -553l-4 -16h-301l-282 551h-144l-98 -551h-277zM434 805h258q111 0 182.5 56.5t71.5 170.5q0 78 -52 129t-144 51h-244z" />
<glyph unicode="S" horiz-adv-x="1177" d="M-8 383l264 106q4 -55 22.5 -102t51 -82t79 -55.5t105.5 -20.5q106 0 180 52.5t74 142.5q0 76 -53 127t-185 102l-71 29q-59 23 -113.5 56.5t-95.5 80.5t-65.5 109.5t-24.5 142.5q0 92 40 171t109.5 135.5t164.5 89t206 32.5q113 0 192.5 -30.5t132 -78t81 -101.5 t38.5 -103l-254 -96q-14 66 -66 110.5t-153 44.5q-41 0 -80 -11t-69.5 -31.5t-49 -51.5t-18.5 -70q0 -68 50.5 -111.5t154.5 -82.5l86 -31q147 -55 234.5 -149.5t87.5 -251.5q0 -106 -41 -195.5t-115 -154t-177.5 -101.5t-228.5 -37q-92 0 -174 25.5t-147.5 78t-110.5 130.5 t-61 182z" />
<glyph unicode="T" horiz-adv-x="1193" d="M131 1204l47 262h1096l-47 -262h-410l-213 -1204h-276l213 1204h-410z" />
<glyph unicode="U" horiz-adv-x="1370" d="M80 451q0 31 3 72.5t13 99.5l150 843h276l-157 -891q-4 -29 -7.5 -51t-3.5 -45q0 -113 61.5 -181.5t190.5 -68.5q139 0 229.5 92.5t116.5 245.5l158 899h276l-161 -915q-53 -299 -223.5 -441.5t-432.5 -142.5q-109 0 -198.5 35t-154 98.5t-100.5 152.5t-36 198z" />
<glyph unicode="V" horiz-adv-x="1392" d="M154 1466h295l145 -884l22 -187h17l88 187l471 884h305l-790 -1466h-291z" />
<glyph unicode="W" horiz-adv-x="1953" d="M162 1466h289l73 -856l6 -157h17l71 157l322 660h262l96 -660l15 -155h16l57 155l367 856h297l-645 -1466h-268l-107 709l-14 159h-17l-69 -159l-352 -709h-271z" />
<glyph unicode="X" horiz-adv-x="1409" d="M-109 0l639 772l-350 694h346l213 -473h17l372 473h357l-596 -718l375 -748h-338l-248 514h-16l-414 -514h-357z" />
<glyph unicode="Y" horiz-adv-x="1304" d="M154 1466h319l207 -485h16l371 485h342l-625 -784l-120 -682h-277l121 682z" />
<glyph unicode="Z" horiz-adv-x="1220" d="M-63 0l49 279l893 925h-699l47 262h1033l-50 -278l-886 -926h731l-47 -262h-1071z" />
<glyph unicode="[" horiz-adv-x="720" d="M-16 -254l327 1876h508l-39 -221h-245l-252 -1434h245l-39 -221h-505z" />
<glyph unicode="\" horiz-adv-x="983" d="M188 1466h254l349 -1466h-254z" />
<glyph unicode="]" horiz-adv-x="720" d="M-100 -254l39 221h245l252 1434h-246l39 221h506l-327 -1876h-508z" />
<glyph unicode="^" horiz-adv-x="1054" d="M43 840l502 626h223l281 -626h-271l-151 372h-17l-276 -372h-291z" />
<glyph unicode="_" horiz-adv-x="1021" d="M-168 -442l43 237h1018l-41 -237h-1020z" />
<glyph unicode="`" horiz-adv-x="907" d="M330 1483h303l39 -279h-209z" />
<glyph unicode="a" horiz-adv-x="1095" d="M16 283q0 86 34 153.5t96.5 115.5t149.5 73.5t191 25.5q76 0 138.5 -13t119.5 -34l9 31q4 20 4 33q0 66 -54.5 108.5t-142.5 42.5q-78 0 -137 -29.5t-107 -84.5l-180 131q82 104 201 152t256 48q207 0 315.5 -98t108.5 -258q0 -25 -3 -50.5t-7 -54.5l-103 -575h-264 l18 106h-16q-47 -59 -117.5 -99t-171.5 -40q-76 0 -138 23.5t-106 65.5t-69 100.5t-25 126.5zM287 303q0 -63 46 -95t109 -32q51 0 97.5 19.5t82 51.5t59.5 73.5t32 87.5q-31 14 -87.5 31.5t-129.5 17.5q-86 0 -147.5 -38t-61.5 -116z" />
<glyph unicode="b" horiz-adv-x="1228" d="M-14 0l258 1466h268l-78 -440l-41 -143h17q41 57 118.5 105t198.5 48q86 0 161 -32.5t131 -93t89 -146.5t33 -195q0 -127 -44 -236.5t-120 -191.5t-177 -128t-216 -46q-111 0 -190 44t-120 110h-16l-20 -121h-252zM319 457q0 -59 19.5 -104.5t52.5 -76t76 -46t92 -15.5 q63 0 120.5 25.5t99.5 69.5t66.5 102.5t24.5 126.5q0 113 -62.5 181t-172.5 68q-74 0 -132.5 -27.5t-99.5 -73.5t-62.5 -105.5t-21.5 -124.5z" />
<glyph unicode="c" horiz-adv-x="1116" d="M10 440q0 119 43 226.5t123 189.5t194.5 131t258.5 49q174 0 286.5 -81t153.5 -212l-258 -100q-51 145 -219 145q-68 0 -126 -25.5t-99 -69.5t-64.5 -102.5t-23.5 -123.5q0 -55 18 -102.5t50 -80t75 -51t92 -18.5q90 0 152.5 40t105.5 112l229 -111 q-98 -156 -219.5 -222.5t-283.5 -66.5q-106 0 -196.5 35t-155 97.5t-100.5 149.5t-36 191z" />
<glyph unicode="d" horiz-adv-x="1228" d="M10 440q0 119 41 226.5t117 189.5t179.5 131t230.5 49q100 0 183 -44t118 -109h16l6 143l78 440h266l-258 -1466h-250l21 121h-17q-41 -59 -117.5 -106.5t-199.5 -47.5q-90 0 -166 35t-131 98.5t-86 150.5t-31 189zM279 461q0 -113 67.5 -179.5t177.5 -66.5 q59 0 114.5 24.5t97.5 67.5t67.5 104.5t25.5 135.5q0 111 -67 176t-176 65q-68 0 -124 -26.5t-97 -71.5t-63.5 -104.5t-22.5 -124.5z" />
<glyph unicode="e" horiz-adv-x="1138" d="M10 442q0 117 43 223.5t121 189.5t188.5 132t245.5 49q111 0 194 -33.5t139 -91t85 -133.5t29 -160q0 -96 -29 -178h-756v-20q4 -111 73 -163t161 -52q98 0 165.5 38t114.5 109l203 -106q-88 -131 -206.5 -205t-297.5 -74q-111 0 -197.5 37t-148 101.5t-94.5 151.5 t-33 185zM307 631h498v8q0 70 -54.5 124t-164.5 54q-100 0 -175 -54t-104 -132z" />
<glyph unicode="f" horiz-adv-x="813" d="M53 774l41 230h180l17 98q33 193 147.5 287t294.5 94q53 0 102.5 -14.5t84.5 -36.5l-109 -230q-18 12 -40.5 19.5t-51.5 7.5q-137 0 -162 -144l-14 -81h250l-41 -230h-250l-135 -774h-269l135 774h-180z" />
<glyph unicode="g" horiz-adv-x="1222" d="M-25 -170l263 96q16 -80 72.5 -122t138.5 -42q270 0 323 285l14 84h-16q-45 -68 -125 -104.5t-180 -36.5q-88 0 -164 32.5t-131 92t-87 144.5t-32 190q0 106 38 211.5t109.5 189.5t175 135t236.5 51q102 0 178 -37.5t117 -103.5h17l18 109h258l-174 -986 q-43 -244 -193.5 -368.5t-402.5 -124.5q-100 0 -178 26.5t-134.5 69.5t-91 98.5t-49.5 110.5zM319 467q0 -117 68 -176.5t164 -59.5q61 0 116.5 25t97.5 70t67.5 105.5t25.5 133.5q0 55 -19.5 98.5t-51 72t-73.5 43t-85 14.5q-68 0 -125.5 -28t-98 -73t-63.5 -103.5 t-23 -121.5z" />
<glyph unicode="h" d="M-14 0l258 1466h268l-74 -411l-49 -183h17q55 78 141 121t190 43q82 0 141.5 -25.5t99.5 -68.5t59.5 -100.5t19.5 -120.5q0 -47 -13 -121l-106 -600h-268l102 575q6 37 6 60q0 66 -39 109.5t-114 43.5q-61 0 -109.5 -23.5t-84.5 -63t-58.5 -94t-32.5 -118.5l-86 -489 h-268z" />
<glyph unicode="i" horiz-adv-x="530" d="M0 0l176 1004h268l-176 -1004h-268zM193 1321q0 72 50 122t122 50t122 -50t50 -122t-50 -122t-122 -50t-122 50t-50 122z" />
<glyph unicode="j" horiz-adv-x="530" d="M-293 -434l96 237q31 -18 68 -18q45 0 72.5 25.5t38.5 85.5l194 1108h268l-196 -1115q-18 -102 -51 -169.5t-80 -107.5t-107.5 -57.5t-134.5 -17.5q-41 0 -88 7t-80 22zM193 1321q0 72 50 122t122 50t122 -50t50 -122t-50 -122t-122 -50t-122 50t-50 122z" />
<glyph unicode="k" horiz-adv-x="1085" d="M-14 0l258 1466h268l-137 -784h16l373 322h346l-4 -17l-442 -369l303 -602l-4 -16h-304l-208 442l-140 -116l-57 -326h-268z" />
<glyph unicode="l" horiz-adv-x="497" d="M-14 0l258 1466h268l-258 -1466h-268z" />
<glyph unicode="m" horiz-adv-x="1802" d="M-14 0l176 1004h252l-25 -132h17q57 78 134.5 121t188.5 43q115 0 184.5 -53t96.5 -131q53 78 140 131t222 53q76 0 135.5 -23.5t98.5 -64.5t59.5 -97t20.5 -122q0 -27 -2.5 -52.5t-8.5 -58.5l-110 -618h-267l103 584q6 33 6 65q0 63 -35 101t-108 38q-51 0 -95.5 -23.5 t-79 -63t-58 -95t-36.5 -119.5l-86 -487h-268l102 584q6 31 7 63q0 68 -39 104.5t-109 36.5q-51 0 -94 -23.5t-77 -63t-56.5 -95t-34.5 -119.5l-86 -487h-268z" />
<glyph unicode="n" d="M-14 0l176 1004h252l-25 -132h17q53 78 139 121t190 43q78 0 137.5 -25.5t100.5 -68.5t61.5 -101.5t20.5 -123.5q0 -29 -2 -59.5t-9 -65.5l-106 -592h-266l102 575q2 10 3 28t1 34q0 66 -39 108.5t-116 42.5q-61 0 -108.5 -22.5t-82.5 -62t-57.5 -94t-34.5 -117.5 l-86 -492h-268z" />
<glyph unicode="o" horiz-adv-x="1179" d="M10 436q0 127 45 236.5t126 190.5t194 127t246 46q109 0 197.5 -36.5t151 -100t96.5 -148.5t34 -182q0 -127 -45 -237.5t-126 -191.5t-193.5 -127t-246.5 -46q-109 0 -197.5 37t-151 100.5t-96.5 148.5t-34 183zM279 463q0 -53 18 -99.5t51 -79t76 -51t92 -18.5 q68 0 125 25.5t100 70.5t66.5 103.5t23.5 126.5q0 53 -18 99t-50 79t-76 51t-93 18q-68 0 -125 -25.5t-100 -70.5t-66.5 -103.5t-23.5 -125.5z" />
<glyph unicode="p" horiz-adv-x="1220" d="M-68 -442l256 1446h250l-20 -121h16q41 59 118 106t200 47q90 0 165.5 -35.5t131 -98t86 -149.5t30.5 -190q0 -119 -41 -226.5t-116.5 -189t-180 -131t-229.5 -49.5q-100 0 -183 44t-118 110h-16l-7 -144l-73 -419h-269zM346 457q0 -111 67.5 -176.5t176.5 -65.5 q68 0 124 26.5t97 71.5t63.5 104.5t22.5 125.5q0 113 -67.5 179t-178.5 66q-59 0 -114.5 -24.5t-97.5 -67.5t-67.5 -104.5t-25.5 -134.5z" />
<glyph unicode="q" horiz-adv-x="1220" d="M10 434q0 127 44 236.5t120 191.5t177.5 128t215.5 46q111 0 190 -44t120 -109h16l20 121h250l-252 -1446h-268l74 419l41 144h-17q-41 -57 -118.5 -105.5t-198.5 -48.5q-86 0 -161 33t-131 93.5t-89 146.5t-33 194zM279 465q0 -113 63.5 -181.5t171.5 -68.5 q74 0 132.5 27.5t100 73.5t63 105.5t21.5 125.5q0 57 -19 102t-52 76t-76 47t-92 16q-66 0 -122 -25.5t-99 -69.5t-67.5 -102.5t-24.5 -125.5z" />
<glyph unicode="r" horiz-adv-x="833" d="M-14 0l176 1004h252l-25 -140h17q49 72 126.5 120t182.5 48q53 0 87 -10t58 -27l-100 -243q-23 10 -52.5 18t-72.5 8q-117 0 -196 -81t-101 -212l-84 -485h-268z" />
<glyph unicode="s" horiz-adv-x="989" d="M-29 254l248 100q16 -78 74.5 -114.5t136.5 -36.5q70 0 118 25.5t48 72.5q0 41 -33 66.5t-104 44.5l-109 26q-47 12 -94 35t-84 57.5t-60.5 81.5t-23.5 107q0 76 34 134t93 99t139 62.5t174 21.5q301 0 400 -241l-246 -90q-16 55 -65.5 84.5t-110.5 29.5 q-72 0 -111 -23.5t-39 -62.5q0 -66 113 -94l141 -37q129 -33 193.5 -106.5t64.5 -169.5q0 -84 -34.5 -150.5t-96 -113t-145.5 -71t-182 -24.5q-92 0 -166 22.5t-128.5 61.5t-90 91.5t-54.5 111.5z" />
<glyph unicode="t" horiz-adv-x="821" d="M55 774l41 230h176l56 307h268l-55 -307h245l-38 -230h-248l-68 -387q-4 -20 -4 -27v-20q0 -43 21.5 -72.5t74.5 -29.5q33 0 54.5 7t42.5 19l41 -244q-41 -18 -92 -27t-119 -9q-131 0 -215 69.5t-84 212.5q0 23 2 48.5t8 60.5l69 399h-176z" />
<glyph unicode="u" d="M41 287q0 29 2 57.5t8 67.5l107 592h266l-102 -576q-2 -12 -3.5 -25.5t-1.5 -35.5q0 -66 39 -109t117 -43q61 0 108.5 22.5t82 62.5t57 94.5t35.5 117.5l86 492h268l-176 -1004h-252l25 131h-17q-53 -78 -139 -121t-191 -43q-78 0 -137 25.5t-100 68.5t-61.5 101.5 t-20.5 124.5z" />
<glyph unicode="v" horiz-adv-x="1140" d="M61 1004h304l124 -639h17l364 639h310l-609 -1004h-266z" />
<glyph unicode="w" horiz-adv-x="1648" d="M57 1004h287l64 -629h14l311 629h279l92 -629h14l271 629h299l-494 -1004h-289l-90 633h-12l-314 -633h-284z" />
<glyph unicode="x" horiz-adv-x="1052" d="M-115 0l441 526l-258 478h317l129 -279h14l222 279h329l-434 -496l262 -508h-311l-137 293h-13l-231 -293h-330z" />
<glyph unicode="y" horiz-adv-x="1132" d="M16 -442l310 501l-250 945h299l145 -611h17l354 611h303l-885 -1446h-293z" />
<glyph unicode="z" horiz-adv-x="980" d="M-63 0l38 221l600 553h-487l41 230h825l-39 -222l-604 -553h512l-39 -229h-847z" />
<glyph unicode="{" horiz-adv-x="690" d="M29 571l39 226q53 0 98 31.5t57 103.5l60 334q29 164 133 260t289 96h83l-38 -221h-33q-74 0 -119 -43t-59 -121l-54 -299q-18 -104 -59 -163.5t-127 -82.5l-4 -16q59 -16 85 -56t26 -102q0 -23 -2.5 -43t-6.5 -45l-53 -299q-2 -14 -3 -23.5t-1 -23.5q0 -59 36 -88 t89 -29h33l-39 -221h-70q-70 0 -128 20.5t-99 58.5t-64.5 92t-23.5 122q0 39 6 82l55 315q2 10 2 19v16q0 100 -108 100z" />
<glyph unicode="|" horiz-adv-x="540" d="M-16 -246l327 1868h246l-328 -1868h-245z" />
<glyph unicode="}" horiz-adv-x="690" d="M-100 -254l39 221h34q72 0 117 43t60 121l53 299q18 104 60 163.5t128 82.5l2 16q-111 33 -110 158q0 23 3 43t7 45l51 299q4 16 5 25.5t1 21.5q0 59 -35.5 88t-89.5 29h-35l39 221h72q70 0 127 -20.5t99 -58.5t65.5 -92t23.5 -122q0 -23 -2 -38t-6 -44l-55 -315 q-2 -10 -2 -17v-18q0 -100 111 -100l-41 -226q-51 0 -97.5 -31.5t-58.5 -103.5l-57 -334q-29 -164 -134.5 -260t-289.5 -96h-84z" />
<glyph unicode="~" horiz-adv-x="1134" d="M-2 489q23 143 107.5 229.5t246.5 86.5q70 0 121 -18.5t94 -41.5q43 -25 83 -43t87 -18t76 25.5t41 62.5h217q-25 -143 -108.5 -229t-245.5 -86q-68 0 -119 18.5t-94 42.5q-45 23 -86 41.5t-86 18.5q-47 0 -77 -26t-40 -63h-217z" />
<glyph unicode="&#xa0;" horiz-adv-x="450" d="M0 0z" />
<glyph unicode="&#xa1;" horiz-adv-x="550" d="M-37 -442l74 422l123 540h223l-70 -540l-73 -422h-277zM152 858q0 74 52 126t126 52t126 -52t52 -126t-52.5 -125t-125.5 -51q-74 0 -126 51t-52 125z" />
<glyph unicode="&#xa2;" horiz-adv-x="1103" d="M45 631q0 117 38 219t107.5 181t167 129t215.5 65l31 176h184l-32 -178q131 -23 207.5 -95.5t113.5 -177.5l-233 -94q-35 104 -127 137l-105 -592q70 16 113 53.5t84 98.5l195 -92q-78 -129 -179.5 -201t-253.5 -88l-30 -172h-185l31 180q-78 16 -140.5 56t-107.5 98.5 t-69.5 134.5t-24.5 162zM293 659q0 -90 36 -153.5t99 -91.5l104 579q-55 -16 -99 -48t-74.5 -76t-48 -98.5t-17.5 -111.5z" />
<glyph unicode="&#xa3;" horiz-adv-x="1101" d="M-61 0l36 217q43 16 84 43t75 62.5t56.5 79.5t26.5 94h-186l35 204h112q-25 63 -46 133t-21 158q0 92 34.5 173t99 141.5t156 94.5t203.5 34q94 0 164 -26t118 -69t76.5 -97t41.5 -112l-252 -96q-10 66 -50 114t-131 48q-90 0 -148 -61.5t-58 -153.5q0 -78 24.5 -146.5 t48.5 -134.5h277l-35 -204h-215q-12 -74 -52 -135.5t-100 -108.5l9 -14h303q68 0 105.5 30.5t64.5 89.5l192 -90q-53 -131 -142 -199.5t-249 -68.5h-657z" />
<glyph unicode="&#xa4;" horiz-adv-x="1247" d="M123 307l119 117q-33 53 -51.5 113.5t-18.5 128.5t18.5 129t51.5 112l-119 119l131 131l119 -117q53 35 116.5 54.5t133.5 19.5q72 0 135 -19.5t116 -54.5l119 117l131 -131l-118 -119q33 -51 50 -112.5t17 -128.5q0 -133 -67 -242l118 -117l-131 -133l-119 117 q-53 -35 -116 -54.5t-135 -19.5q-70 0 -133.5 19.5t-116.5 54.5l-119 -117zM393 666q0 -49 17.5 -93.5t48 -76t73 -50t91.5 -18.5t91 18.5t72.5 50t48 75.5t17.5 94q0 49 -17.5 93t-48 75.5t-72.5 50t-91 18.5t-91.5 -18.5t-73 -50t-48 -75.5t-17.5 -93z" />
<glyph unicode="&#xa5;" horiz-adv-x="1294" d="M92 272l41 238h340l23 129h-340l43 238h186l-244 524h322l164 -387l37 -137h16l82 137l291 387h333l-423 -524h182l-43 -238h-330l-22 -129h329l-41 -238h-331l-50 -272h-274l47 272h-338z" />
<glyph unicode="&#xa6;" horiz-adv-x="540" d="M-14 -246l147 844h246l-148 -844h-245zM164 770l137 778h246l-137 -778h-246z" />
<glyph unicode="&#xa7;" horiz-adv-x="1146" d="M-57 -74l239 88q14 -109 77 -175t173 -66q43 0 83 11t70.5 32.5t49 54.5t18.5 74q0 82 -56 125t-179 86l-62 22q-119 41 -197.5 130t-78.5 206q0 111 59.5 195t153.5 137q-47 47 -77 109.5t-30 134.5q0 92 39 166.5t106.5 129t158 84t192.5 29.5q94 0 166 -25.5 t123 -68.5t82.5 -99.5t48.5 -117.5l-262 -96q-6 29 -19.5 57.5t-36 51t-56.5 36.5t-81 14q-37 0 -70.5 -9t-59 -26.5t-42 -42t-16.5 -57.5q0 -61 47 -102t162 -82l59 -21q152 -55 229.5 -143t77.5 -221q0 -121 -57 -204t-135 -136q39 -43 60.5 -100.5t21.5 -131.5 q0 -92 -41 -174t-111 -143t-163 -97t-197 -36q-100 0 -184.5 30.5t-146 85t-97 127t-41.5 158.5zM340 563q0 -66 50.5 -110.5t144.5 -79.5q6 -2 24.5 -8.5t38.5 -14.5t39 -14q16 -8 22 -10q41 29 72 71.5t31 98.5q0 78 -51.5 128t-171.5 93l-54 18q-57 -25 -101 -68.5 t-44 -103.5z" />
<glyph unicode="&#xa8;" horiz-adv-x="925" d="M225 1350q0 61 43 104t105 43q61 0 103 -43t42 -104q0 -59 -42 -103.5t-103 -44.5t-104.5 44t-43.5 104zM616 1350q0 61 43 104t103 43q63 0 105 -43t42 -104q0 -59 -42 -103.5t-105 -44.5q-59 0 -102.5 44t-43.5 104z" />
<glyph unicode="&#xa9;" horiz-adv-x="1089" d="M74 1028q0 96 36.5 182t101 150.5t149.5 101.5t184 37q96 0 182 -37t150.5 -101.5t101.5 -150.5t37 -182q0 -98 -37 -183t-101.5 -149.5t-150.5 -101.5t-182 -37q-98 0 -183.5 37t-150 101.5t-101 149.5t-36.5 183zM172 1028q0 -76 29.5 -143.5t81 -118.5t119 -81 t143.5 -30q78 0 145.5 30t118.5 81t80 118.5t29 143.5q0 78 -29 145.5t-80 118.5t-118.5 80t-145.5 29q-76 0 -143.5 -29t-119 -80t-81 -118.5t-29.5 -145.5zM309 1028q0 51 18.5 95t51.5 77t77 52.5t97 19.5q63 0 103 -22.5t75 -57.5l-65 -59q-23 23 -45.5 36t-67.5 13 q-59 0 -104.5 -44t-45.5 -110t45.5 -110t104.5 -44q43 0 71.5 17.5t51.5 46.5l69 -55q-33 -43 -79.5 -71t-112.5 -28q-53 0 -97 19.5t-77 52.5t-51.5 78t-18.5 94z" />
<glyph unicode="&#xaa;" horiz-adv-x="1013" d="M94 827q0 76 32 137.5t87 104.5t130 66.5t161 23.5q80 0 142.5 -14.5t109.5 -36.5l4 27q2 10 2 16v12q0 66 -48 105t-130 39q-61 0 -118.5 -26t-94.5 -77l-160 111q61 88 166.5 136t232.5 48q182 0 286.5 -84t104.5 -229q0 -35 -6 -72l-94 -528h-239l16 94h-16 q-47 -53 -114 -88t-153 -35q-66 0 -121 20.5t-95 56.5t-62.5 85t-22.5 108zM340 850q0 -53 42 -80t101 -27q43 0 84 16.5t74 44t55.5 63.5t28.5 75q-27 12 -79 28.5t-118 16.5q-35 0 -68.5 -7t-60 -24.5t-43 -43t-16.5 -62.5z" />
<glyph unicode="&#xab;" horiz-adv-x="1249" d="M47 555l516 471l137 -152l-370 -333l239 -322l-172 -135zM504 555l516 471l137 -152l-370 -333l239 -322l-172 -135z" />
<glyph unicode="&#xac;" horiz-adv-x="1216" d="M70 594l41 233h954l-107 -612h-235l68 379h-721z" />
<glyph unicode="&#xad;" horiz-adv-x="923" d="M76 516l41 238h694l-43 -238h-692z" />
<glyph unicode="&#xae;" horiz-adv-x="1089" d="M74 1028q0 96 36.5 182t101 150.5t149.5 101.5t184 37q96 0 182 -37t150.5 -101.5t101.5 -150.5t37 -182q0 -98 -37 -183t-101.5 -149.5t-150.5 -101.5t-182 -37q-98 0 -183.5 37t-150 101.5t-101 149.5t-36.5 183zM172 1028q0 -76 29.5 -143.5t81 -118.5t119 -81 t143.5 -30q78 0 145.5 30t118.5 81t80 118.5t29 143.5q0 78 -29 145.5t-80 118.5t-118.5 80t-145.5 29q-76 0 -143.5 -29t-119 -80t-81 -118.5t-29.5 -145.5zM387 797v463h197q59 0 104 -42t45 -106q0 -47 -29.5 -85t-72.5 -50l-4 -4l123 -172v-4h-107l-113 172h-49v-172 h-94zM481 1055h94q25 0 44.5 15t19.5 42q0 20 -16.5 38.5t-44.5 18.5h-97v-114z" />
<glyph unicode="&#xaf;" horiz-adv-x="851" d="M213 1247l37 205h606l-37 -205h-606z" />
<glyph unicode="&#xb0;" horiz-adv-x="665" d="M137 1139q0 66 22.5 120t62.5 93t94.5 60.5t119.5 21.5q49 0 93 -17.5t78 -48.5t53.5 -74t19.5 -94q0 -66 -22.5 -120t-62.5 -93t-95.5 -60.5t-118.5 -21.5q-49 0 -93 16.5t-78 47t-53.5 73.5t-19.5 97zM303 1157q0 -43 26.5 -68.5t67.5 -25.5q47 0 82 33.5t35 85.5 q0 41 -25.5 67.5t-66.5 26.5q-49 0 -84 -34t-35 -85z" />
<glyph unicode="&#xb1;" horiz-adv-x="1165" d="M-14 0l41 238h934l-41 -238h-934zM98 647l39 221h350l50 289h237l-49 -289h348l-39 -221h-348l-53 -289h-238l54 289h-351z" />
<glyph unicode="&#xb2;" horiz-adv-x="649" d="M51 717l25 129q78 68 143 123q27 25 55 47q27 23 49.5 42t38.5 34q14 14 21 18q14 12 33 27q18 14 33.5 32.5t25.5 38t10 39.5q0 35 -23.5 54.5t-58.5 19.5q-80 0 -110 -98l-154 59q29 94 106 147.5t187 53.5q113 0 178.5 -58.5t65.5 -148.5q0 -78 -41 -129t-115 -117 q-18 -16 -49 -41q-31 -27 -59 -51q-35 -29 -72 -59h276l-30 -162h-535z" />
<glyph unicode="&#xb3;" horiz-adv-x="686" d="M78 907l158 58q16 -57 47.5 -82t76.5 -25q43 0 79 24.5t36 71.5q0 39 -29.5 59.5t-80.5 20.5h-72l26 144h70q47 0 82 20.5t35 61.5q0 31 -24.5 48t-53.5 17q-47 0 -73.5 -22.5t-41.5 -51.5l-147 66q35 74 106.5 120t182.5 46q104 0 169.5 -54.5t65.5 -136.5 q0 -66 -36 -109.5t-89 -70.5q41 -23 65.5 -61.5t24.5 -87.5q0 -57 -22.5 -105.5t-64.5 -83.5t-99 -54.5t-125 -19.5q-96 0 -172 52.5t-94 154.5z" />
<glyph unicode="&#xb4;" horiz-adv-x="907" d="M389 1204l135 279h316l-234 -279h-217z" />
<glyph unicode="&#xb5;" d="M-98 -442l256 1446h266l-102 -576q-2 -12 -4 -26q-1 -13 -1 -35q0 -66 39 -109t117 -43q61 0 109 23q47 23 82 62q35 40 57 94q23 54 35 118l86 492h268l-176 -1004h-252l25 131h-17q-53 -78 -125 -121t-176 -43q-41 0 -80 14q-39 13 -63 35h-17l-4 -133l-57 -325h-266z " />
<glyph unicode="&#xb6;" horiz-adv-x="1316" d="M49 1036q0 100 38 180t100.5 135.5t145.5 85t175 29.5h645v-1908h-225v1689h-144v-1689h-225v1048h-51q-92 0 -175 30t-145.5 85t-100.5 135t-38 180z" />
<glyph unicode="&#xb7;" horiz-adv-x="436" d="M33 664q0 74 52 126t126 52t125 -52.5t51 -125.5q0 -74 -51 -126.5t-125 -52.5t-126 52.5t-52 126.5z" />
<glyph unicode="&#xb8;" horiz-adv-x="841" d="M-6 -350l139 55q4 -25 22.5 -41t47.5 -16t51 18.5t22 52.5q0 29 -16 46.5t-45 17.5q-18 0 -32.5 -9.5t-24.5 -19.5l-113 58l105 188h139l-60 -96q10 2 19 2h18q72 0 117 -50.5t45 -125.5q0 -100 -66.5 -157.5t-168.5 -57.5q-72 0 -128.5 38.5t-70.5 96.5z" />
<glyph unicode="&#xb9;" horiz-adv-x="557" d="M152 1348l278 118h133l-133 -749h-182l96 536l-133 -53z" />
<glyph unicode="&#xba;" horiz-adv-x="1095" d="M113 967q0 104 40 200.5t111.5 170t173 117.5t221.5 44q92 0 169 -27.5t132.5 -81t86 -129t30.5 -169.5q0 -109 -41 -205t-114.5 -170t-174 -117t-217.5 -43q-92 0 -168.5 28.5t-132 81t-86 128t-30.5 172.5zM356 987q0 -92 54.5 -149.5t140.5 -57.5q55 0 106.5 21.5 t90 60.5t61 92.5t22.5 114.5q0 92 -55 149.5t-141 57.5q-57 0 -107.5 -22.5t-88.5 -62.5t-60.5 -92t-22.5 -112z" />
<glyph unicode="&#xbb;" horiz-adv-x="1249" d="M25 236l368 333l-237 322l170 135l352 -471l-518 -471zM482 236l368 333l-237 322l170 135l352 -471l-518 -471z" />
<glyph unicode="&#xbc;" horiz-adv-x="1579" d="M135 80l1204 1417l143 -111l-1202 -1419zM201 1348l278 118h133l-133 -749h-182l96 536l-133 -53zM727 133l24 131l435 486h180l-82 -465h96l-27 -152h-96l-24 -133h-176l24 133h-354zM944 285h164l37 213h-17z" />
<glyph unicode="&#xbd;" horiz-adv-x="1654" d="M125 80l1204 1417l143 -111l-1202 -1419zM201 1348l278 118h133l-133 -749h-182l96 536l-133 -53zM893 0l25 129q78 68 143 123q27 25 56 47q27 23 49 42t39 34q14 14 20 18q14 12 33 27q18 14 33.5 32.5t25.5 38t10 39.5q0 35 -22.5 54.5t-58.5 19.5q-82 0 -109 -98 l-156 59q29 94 106 147.5t187 53.5q115 0 179.5 -58.5t64.5 -148.5q0 -78 -41 -129t-115 -117q-18 -16 -48 -41.5t-58 -50.5q-35 -29 -72 -59h275l-31 -162h-535z" />
<glyph unicode="&#xbe;" horiz-adv-x="1726" d="M127 907l158 58q16 -57 47.5 -82t76.5 -25q43 0 79 24.5t36 71.5q0 39 -29.5 59.5t-80.5 20.5h-72l26 144h70q47 0 82 20.5t35 61.5q0 31 -24.5 48t-53.5 17q-47 0 -73.5 -22.5t-41.5 -51.5l-147 66q35 74 106.5 120t182.5 46q104 0 169.5 -54.5t65.5 -136.5 q0 -66 -36 -109.5t-89 -70.5q41 -23 65.5 -61.5t24.5 -87.5q0 -57 -22.5 -105.5t-64.5 -83.5t-99 -54.5t-125 -19.5q-96 0 -172 52.5t-94 154.5zM250 80l1204 1417l143 -111l-1202 -1419zM873 133l24 131l435 486h180l-82 -465h96l-27 -152h-96l-24 -133h-176l24 133h-354z M1090 285h164l37 213h-17z" />
<glyph unicode="&#xbf;" horiz-adv-x="1030" d="M-33 -125q0 61 19.5 113.5t52.5 98.5t77 87t95 82q41 33 68.5 58.5t46 50t29 53t18.5 67.5l6 35h268l-12 -67q-8 -49 -22.5 -91.5t-41 -80t-70.5 -77.5t-112 -85q-57 -41 -105 -89t-48 -112q0 -63 45 -104t120 -41q86 0 141.5 51t80.5 121l219 -99q-23 -63 -65 -121.5 t-101.5 -102.5t-137 -70.5t-169.5 -26.5q-88 0 -162 26.5t-127 72.5t-83 110.5t-30 140.5zM399 858q0 74 52.5 126t126.5 52t125 -52t51 -126t-51.5 -125t-124.5 -51q-74 0 -126.5 51t-52.5 125z" />
<glyph unicode="&#xc0;" horiz-adv-x="1466" d="M-104 0l798 1466h324l293 -1466h-295l-64 350h-559l-184 -350h-313zM524 604h381l-67 369l-21 176h-16l-82 -176zM649 1860h303l39 -279h-209z" />
<glyph unicode="&#xc1;" horiz-adv-x="1466" d="M-104 0l798 1466h324l293 -1466h-295l-64 350h-559l-184 -350h-313zM524 604h381l-67 369l-21 176h-16l-82 -176zM737 1581l135 279h316l-234 -279h-217z" />
<glyph unicode="&#xc2;" horiz-adv-x="1466" d="M-104 0l798 1466h324l293 -1466h-295l-64 350h-559l-184 -350h-313zM494 1569l2 16l270 258h244l186 -258l-2 -16h-248l-63 121h-25l-100 -121h-264zM524 604h381l-67 369l-21 176h-16l-82 -176z" />
<glyph unicode="&#xc3;" horiz-adv-x="1466" d="M-104 0l798 1466h324l293 -1466h-295l-64 350h-559l-184 -350h-313zM494 1608q16 133 86.5 197.5t175.5 64.5q43 0 77.5 -13.5t65.5 -29.5q29 -18 55.5 -31.5t51.5 -13.5q53 0 67 59h189q-16 -133 -87.5 -197.5t-175.5 -64.5q-43 0 -77.5 13.5t-63.5 31.5 q-31 16 -57.5 29.5t-50.5 13.5q-53 0 -68 -59h-188zM524 604h381l-67 369l-21 176h-16l-82 -176z" />
<glyph unicode="&#xc4;" horiz-adv-x="1466" d="M-104 0l798 1466h324l293 -1466h-295l-64 350h-559l-184 -350h-313zM524 604h381l-67 369l-21 176h-16l-82 -176zM536 1727q0 61 43 104t105 43q61 0 103 -43t42 -104q0 -59 -42 -103.5t-103 -44.5t-104.5 44t-43.5 104zM927 1727q0 61 43 104t103 43q63 0 105 -43 t42 -104q0 -59 -42 -103.5t-105 -44.5q-59 0 -102.5 44t-43.5 104z" />
<glyph unicode="&#xc5;" horiz-adv-x="1466" d="M-104 0l757 1391q-51 70 -51 157q0 55 20.5 103.5t57.5 85.5t85 57.5t103 20.5t103.5 -20.5t84.5 -57.5t57.5 -85t21.5 -104q0 -59 -26 -112.5t-69 -89.5l271 -1346h-295l-64 350h-559l-184 -350h-313zM524 604h381l-67 369l-21 176h-16l-82 -176zM786 1548 q0 -35 23.5 -58.5t58.5 -23.5t58.5 23.5t23.5 58.5t-23.5 58.5t-58.5 23.5t-58.5 -23.5t-23.5 -58.5z" />
<glyph unicode="&#xc6;" horiz-adv-x="2058" d="M-127 0l1110 1466h1098l-47 -262h-654l-61 -340h590l-47 -262h-590l-60 -340h654l-45 -262h-930l61 354h-475l-262 -354h-342zM664 616h335l105 588h-21l-88 -143z" />
<glyph unicode="&#xc7;" horiz-adv-x="1503" d="M61 647q0 172 66 326.5t182.5 271.5t278.5 185.5t356 68.5q186 0 319.5 -67.5t213.5 -184.5l-222 -180q-59 80 -141 125t-207 45q-117 0 -219 -45t-180 -123t-123 -182.5t-45 -224.5q0 -98 31.5 -178.5t87 -136.5t131.5 -87t166 -31q131 0 233.5 54.5t194.5 146.5 l176 -199q-70 -72 -139.5 -121t-145.5 -81.5t-161 -47t-185 -14.5l-39 -63q10 2 19 2h18q72 0 117 -50.5t45 -125.5q0 -100 -67 -157.5t-169 -57.5q-72 0 -129 38.5t-69 96.5l139 55q4 -25 22.5 -41t45.5 -16q31 0 52 18.5t21 52.5q0 29 -16.5 46.5t-44.5 17.5 q-16 0 -30.5 -9.5t-25.5 -19.5l-114 58l94 168q-115 18 -213 72t-170 140.5t-113 201t-41 253.5z" />
<glyph unicode="&#xc8;" horiz-adv-x="1183" d="M16 0l260 1466h930l-47 -262h-653l-60 -340h588l-47 -262h-588l-61 -340h655l-47 -262h-930zM510 1860h303l39 -279h-209z" />
<glyph unicode="&#xc9;" horiz-adv-x="1183" d="M16 0l260 1466h930l-47 -262h-653l-60 -340h588l-47 -262h-588l-61 -340h655l-47 -262h-930zM616 1581l135 279h316l-234 -279h-217z" />
<glyph unicode="&#xca;" horiz-adv-x="1183" d="M16 0l260 1466h930l-47 -262h-653l-60 -340h588l-47 -262h-588l-61 -340h655l-47 -262h-930zM387 1569l2 16l270 258h244l186 -258l-2 -16h-248l-63 121h-25l-100 -121h-264z" />
<glyph unicode="&#xcb;" horiz-adv-x="1183" d="M16 0l260 1466h930l-47 -262h-653l-60 -340h588l-47 -262h-588l-61 -340h655l-47 -262h-930zM403 1727q0 61 43 104t105 43q61 0 103 -43t42 -104q0 -59 -42 -103.5t-103 -44.5t-104.5 44t-43.5 104zM794 1727q0 61 43 104t103 43q63 0 105 -43t42 -104q0 -59 -42 -103.5 t-105 -44.5q-59 0 -102.5 44t-43.5 104z" />
<glyph unicode="&#xcc;" horiz-adv-x="571" d="M16 0l260 1466h277l-260 -1466h-277zM219 1860h303l39 -279h-209z" />
<glyph unicode="&#xcd;" horiz-adv-x="571" d="M16 0l260 1466h277l-260 -1466h-277zM299 1581l135 279h316l-234 -279h-217z" />
<glyph unicode="&#xce;" horiz-adv-x="571" d="M16 0l260 1466h277l-260 -1466h-277zM62 1569l2 16l270 258h244l186 -258l-2 -16h-248l-63 121h-25l-100 -121h-264z" />
<glyph unicode="&#xcf;" horiz-adv-x="571" d="M16 0l260 1466h277l-260 -1466h-277zM137 1726q0 59 41 100.5t101 41.5q59 0 100 -41t41 -101q0 -57 -41 -99t-100 -42t-100.5 42t-41.5 99zM492 1726q0 59 41.5 100.5t99.5 41.5q59 0 100 -41t41 -101q0 -57 -41 -99t-100 -42q-57 0 -99 42t-42 99z" />
<glyph unicode="&#xd0;" horiz-adv-x="1595" d="M94 618l39 226h156l110 622h467q162 0 287 -48t209 -133t127 -202.5t43 -259.5q0 -164 -60.5 -312.5t-174 -262t-275.5 -181t-367 -67.5h-516l109 618h-154zM461 262h209q131 0 239.5 41t185 112.5t118.5 168t42 209.5q0 199 -103 305t-314 106h-209l-64 -360h377 l-41 -226h-377z" />
<glyph unicode="&#xd1;" horiz-adv-x="1480" d="M16 0l260 1466h308l430 -983h16l35 283l123 700h274l-260 -1466h-274l-455 1038h-16l-33 -282l-135 -756h-273zM551 1608q16 133 86.5 197.5t175.5 64.5q43 0 77.5 -13.5t65.5 -29.5q29 -18 55.5 -31.5t51.5 -13.5q53 0 67 59h189q-16 -133 -87.5 -197.5t-175.5 -64.5 q-43 0 -77.5 13.5t-63.5 31.5q-31 16 -57.5 29.5t-50.5 13.5q-53 0 -68 -59h-188z" />
<glyph unicode="&#xd2;" horiz-adv-x="1683" d="M61 649q0 172 63.5 326.5t178.5 270.5t275.5 184.5t355.5 68.5q154 0 280.5 -51t217 -142.5t140.5 -216t50 -272.5q0 -172 -63.5 -325.5t-178 -270.5t-275 -185.5t-355.5 -68.5q-147 0 -273.5 49.5t-218.5 138.5t-144.5 215t-52.5 279zM340 670q0 -100 34 -181t93 -138.5 t139 -89.5t172 -32q117 0 219.5 46.5t179 124t121.5 180t45 217.5q0 100 -33.5 181t-93 138.5t-139.5 89t-172 31.5q-121 0 -223 -47t-179 -126t-120 -181.5t-43 -212.5zM723 1860h303l39 -279h-209z" />
<glyph unicode="&#xd3;" horiz-adv-x="1683" d="M61 649q0 172 63.5 326.5t178.5 270.5t275.5 184.5t355.5 68.5q154 0 280.5 -51t217 -142.5t140.5 -216t50 -272.5q0 -172 -63.5 -325.5t-178 -270.5t-275 -185.5t-355.5 -68.5q-147 0 -273.5 49.5t-218.5 138.5t-144.5 215t-52.5 279zM340 670q0 -100 34 -181t93 -138.5 t139 -89.5t172 -32q117 0 219.5 46.5t179 124t121.5 180t45 217.5q0 100 -33.5 181t-93 138.5t-139.5 89t-172 31.5q-121 0 -223 -47t-179 -126t-120 -181.5t-43 -212.5zM854 1581l135 279h316l-234 -279h-217z" />
<glyph unicode="&#xd4;" horiz-adv-x="1683" d="M61 649q0 172 63.5 326.5t178.5 270.5t275.5 184.5t355.5 68.5q154 0 280.5 -51t217 -142.5t140.5 -216t50 -272.5q0 -172 -63.5 -325.5t-178 -270.5t-275 -185.5t-355.5 -68.5q-147 0 -273.5 49.5t-218.5 138.5t-144.5 215t-52.5 279zM340 670q0 -100 34 -181t93 -138.5 t139 -89.5t172 -32q117 0 219.5 46.5t179 124t121.5 180t45 217.5q0 100 -33.5 181t-93 138.5t-139.5 89t-172 31.5q-121 0 -223 -47t-179 -126t-120 -181.5t-43 -212.5zM625 1571l2 16l270 258h244l186 -258l-2 -16h-248l-63 121h-25l-100 -121h-264z" />
<glyph unicode="&#xd5;" horiz-adv-x="1683" d="M61 649q0 172 63.5 326.5t178.5 270.5t275.5 184.5t355.5 68.5q154 0 280.5 -51t217 -142.5t140.5 -216t50 -272.5q0 -172 -63.5 -325.5t-178 -270.5t-275 -185.5t-355.5 -68.5q-147 0 -273.5 49.5t-218.5 138.5t-144.5 215t-52.5 279zM340 670q0 -100 34 -181t93 -138.5 t139 -89.5t172 -32q117 0 219.5 46.5t179 124t121.5 180t45 217.5q0 100 -33.5 181t-93 138.5t-139.5 89t-172 31.5q-121 0 -223 -47t-179 -126t-120 -181.5t-43 -212.5zM601 1608q16 133 86.5 197.5t175.5 64.5q43 0 77.5 -13.5t65.5 -29.5q29 -18 55.5 -31.5t51.5 -13.5 q53 0 67 59h189q-16 -133 -87.5 -197.5t-175.5 -64.5q-43 0 -77.5 13.5t-63.5 31.5q-31 16 -57.5 29.5t-50.5 13.5q-53 0 -68 -59h-188z" />
<glyph unicode="&#xd6;" horiz-adv-x="1683" d="M61 649q0 172 63.5 326.5t178.5 270.5t275.5 184.5t355.5 68.5q154 0 280.5 -51t217 -142.5t140.5 -216t50 -272.5q0 -172 -63.5 -325.5t-178 -270.5t-275 -185.5t-355.5 -68.5q-147 0 -273.5 49.5t-218.5 138.5t-144.5 215t-52.5 279zM340 670q0 -100 34 -181t93 -138.5 t139 -89.5t172 -32q117 0 219.5 46.5t179 124t121.5 180t45 217.5q0 100 -33.5 181t-93 138.5t-139.5 89t-172 31.5q-121 0 -223 -47t-179 -126t-120 -181.5t-43 -212.5zM641 1727q0 61 43 104t105 43q61 0 103 -43t42 -104q0 -59 -42 -103.5t-103 -44.5t-104.5 44 t-43.5 104zM1032 1727q0 61 43 104t103 43q63 0 105 -43t42 -104q0 -59 -42 -103.5t-105 -44.5q-59 0 -102.5 44t-43.5 104z" />
<glyph unicode="&#xd7;" horiz-adv-x="1251" d="M31 240l393 323l-272 316l186 159l276 -319l398 325l145 -174l-393 -323l272 -316l-186 -159l-277 319l-397 -325z" />
<glyph unicode="&#xd8;" horiz-adv-x="1683" d="M61 649q0 172 63.5 326.5t178.5 270.5t275.5 184.5t355.5 68.5q176 0 321 -69l115 141l172 -139l-106 -134q90 -92 138 -213.5t48 -267.5q0 -172 -63.5 -325.5t-178 -270.5t-275.5 -185.5t-355 -68.5q-174 0 -324 70l-115 -143l-174 137l109 135q-88 90 -136.5 212 t-48.5 271zM340 670q0 -84 23.5 -152.5t64.5 -124.5l649 811q-41 16 -83 24.5t-89 8.5q-121 0 -223 -47t-179 -126t-120 -181t-43 -213zM606 260q76 -31 172 -31q117 0 219.5 46.5t179 124t121.5 180t45 217.5q0 82 -23.5 151.5t-64.5 124.5z" />
<glyph unicode="&#xd9;" horiz-adv-x="1370" d="M80 451q0 31 3 72.5t13 99.5l150 843h276l-157 -891q-4 -29 -7.5 -51t-3.5 -45q0 -113 61.5 -181.5t190.5 -68.5q139 0 229.5 92.5t116.5 245.5l158 899h276l-161 -915q-53 -299 -223.5 -441.5t-432.5 -142.5q-109 0 -198.5 35t-154 98.5t-100.5 152.5t-36 198zM596 1860 h303l39 -279h-209z" />
<glyph unicode="&#xda;" horiz-adv-x="1370" d="M80 451q0 31 3 72.5t13 99.5l150 843h276l-157 -891q-4 -29 -7.5 -51t-3.5 -45q0 -113 61.5 -181.5t190.5 -68.5q139 0 229.5 92.5t116.5 245.5l158 899h276l-161 -915q-53 -299 -223.5 -441.5t-432.5 -142.5q-109 0 -198.5 35t-154 98.5t-100.5 152.5t-36 198zM706 1581 l135 279h316l-234 -279h-217z" />
<glyph unicode="&#xdb;" horiz-adv-x="1370" d="M80 451q0 31 3 72.5t13 99.5l150 843h276l-157 -891q-4 -29 -7.5 -51t-3.5 -45q0 -113 61.5 -181.5t190.5 -68.5q139 0 229.5 92.5t116.5 245.5l158 899h276l-161 -915q-53 -299 -223.5 -441.5t-432.5 -142.5q-109 0 -198.5 35t-154 98.5t-100.5 152.5t-36 198zM469 1569 l2 16l270 258h244l186 -258l-2 -16h-248l-63 121h-25l-100 -121h-264z" />
<glyph unicode="&#xdc;" horiz-adv-x="1370" d="M80 451q0 31 3 72.5t13 99.5l150 843h276l-157 -891q-4 -29 -7.5 -51t-3.5 -45q0 -113 61.5 -181.5t190.5 -68.5q139 0 229.5 92.5t116.5 245.5l158 899h276l-161 -915q-53 -299 -223.5 -441.5t-432.5 -142.5q-109 0 -198.5 35t-154 98.5t-100.5 152.5t-36 198zM485 1727 q0 61 43 104t105 43q61 0 103 -43t42 -104q0 -59 -42 -103.5t-103 -44.5t-104.5 44t-43.5 104zM876 1727q0 61 43 104t103 43q63 0 105 -43t42 -104q0 -59 -42 -103.5t-105 -44.5q-59 0 -102.5 44t-43.5 104z" />
<glyph unicode="&#xdd;" horiz-adv-x="1304" d="M154 1466h319l207 -485h16l371 485h342l-625 -784l-120 -682h-277l121 682zM655 1581l135 279h316l-234 -279h-217z" />
<glyph unicode="&#xde;" horiz-adv-x="1212" d="M16 0l260 1466h277l-41 -221h217q98 0 180 -30.5t142.5 -87t94.5 -134.5t34 -172q0 -121 -42 -215t-118 -158.5t-181.5 -97.5t-230.5 -33h-260l-55 -317h-277zM395 580h250q111 0 184.5 54t73.5 167q0 82 -48 132t-140 50h-248z" />
<glyph unicode="&#xdf;" horiz-adv-x="1198" d="M16 0l183 1038q18 98 58 183.5t105.5 147t156.5 96t210 34.5q94 0 169 -29.5t127 -79t80 -115t28 -136.5q0 -68 -18.5 -122t-49.5 -96t-72 -72t-86 -48l-2 -17q78 -37 128 -116.5t50 -198.5q0 -109 -39.5 -198t-112.5 -152.5t-172.5 -99t-215.5 -35.5q-47 0 -78 2t-59 6 l43 248q25 -4 49 -6.5t55 -2.5q51 0 99 15.5t84 45.5t57.5 74t21.5 101q0 90 -55 143.5t-162 53.5h-51l41 235h41q49 0 92 13.5t74.5 38t51 60.5t19.5 83q0 72 -46 114.5t-128 42.5q-92 0 -150.5 -61.5t-74.5 -155.5l-182 -1034h-269z" />
<glyph unicode="&#xe0;" horiz-adv-x="1095" d="M16 283q0 86 34 153.5t96.5 115.5t149.5 73.5t191 25.5q76 0 138.5 -13t119.5 -34l9 31q4 20 4 33q0 66 -54.5 108.5t-142.5 42.5q-78 0 -137 -29.5t-107 -84.5l-180 131q82 104 201 152t256 48q207 0 315.5 -98t108.5 -258q0 -25 -3 -50.5t-7 -54.5l-103 -575h-264 l18 106h-16q-47 -59 -117.5 -99t-171.5 -40q-76 0 -138 23.5t-106 65.5t-69 100.5t-25 126.5zM287 303q0 -63 46 -95t109 -32q51 0 97.5 19.5t82 51.5t59.5 73.5t32 87.5q-31 14 -87.5 31.5t-129.5 17.5q-86 0 -147.5 -38t-61.5 -116zM406 1483h303l39 -279h-209z" />
<glyph unicode="&#xe1;" horiz-adv-x="1095" d="M16 283q0 86 34 153.5t96.5 115.5t149.5 73.5t191 25.5q76 0 138.5 -13t119.5 -34l9 31q4 20 4 33q0 66 -54.5 108.5t-142.5 42.5q-78 0 -137 -29.5t-107 -84.5l-180 131q82 104 201 152t256 48q207 0 315.5 -98t108.5 -258q0 -25 -3 -50.5t-7 -54.5l-103 -575h-264 l18 106h-16q-47 -59 -117.5 -99t-171.5 -40q-76 0 -138 23.5t-106 65.5t-69 100.5t-25 126.5zM287 303q0 -63 46 -95t109 -32q51 0 97.5 19.5t82 51.5t59.5 73.5t32 87.5q-31 14 -87.5 31.5t-129.5 17.5q-86 0 -147.5 -38t-61.5 -116zM504 1204l135 279h316l-234 -279h-217z " />
<glyph unicode="&#xe2;" horiz-adv-x="1095" d="M16 283q0 86 34 153.5t96.5 115.5t149.5 73.5t191 25.5q76 0 138.5 -13t119.5 -34l9 31q4 20 4 33q0 66 -54.5 108.5t-142.5 42.5q-78 0 -137 -29.5t-107 -84.5l-180 131q82 104 201 152t256 48q207 0 315.5 -98t108.5 -258q0 -25 -3 -50.5t-7 -54.5l-103 -575h-264 l18 106h-16q-47 -59 -117.5 -99t-171.5 -40q-76 0 -138 23.5t-106 65.5t-69 100.5t-25 126.5zM265 1192l2 16l270 258h244l186 -258l-2 -16h-248l-63 121h-25l-100 -121h-264zM287 303q0 -63 46 -95t109 -32q51 0 97.5 19.5t82 51.5t59.5 73.5t32 87.5q-31 14 -87.5 31.5 t-129.5 17.5q-86 0 -147.5 -38t-61.5 -116z" />
<glyph unicode="&#xe3;" horiz-adv-x="1095" d="M16 283q0 86 34 153.5t96.5 115.5t149.5 73.5t191 25.5q76 0 138.5 -13t119.5 -34l9 31q4 20 4 33q0 66 -54.5 108.5t-142.5 42.5q-78 0 -137 -29.5t-107 -84.5l-180 131q82 104 201 152t256 48q207 0 315.5 -98t108.5 -258q0 -25 -3 -50.5t-7 -54.5l-103 -575h-264 l18 106h-16q-47 -59 -117.5 -99t-171.5 -40q-76 0 -138 23.5t-106 65.5t-69 100.5t-25 126.5zM277 1233q16 133 86.5 197.5t175.5 64.5q43 0 77.5 -13.5t65.5 -29.5q29 -18 55.5 -31.5t51.5 -13.5q53 0 67 59h189q-16 -133 -87.5 -197.5t-175.5 -64.5q-43 0 -77.5 13.5 t-63.5 31.5q-31 16 -57.5 29.5t-50.5 13.5q-53 0 -68 -59h-188zM287 303q0 -63 46 -95t109 -32q51 0 97.5 19.5t82 51.5t59.5 73.5t32 87.5q-31 14 -87.5 31.5t-129.5 17.5q-86 0 -147.5 -38t-61.5 -116z" />
<glyph unicode="&#xe4;" horiz-adv-x="1095" d="M16 283q0 86 34 153.5t96.5 115.5t149.5 73.5t191 25.5q76 0 138.5 -13t119.5 -34l9 31q4 20 4 33q0 66 -54.5 108.5t-142.5 42.5q-78 0 -137 -29.5t-107 -84.5l-180 131q82 104 201 152t256 48q207 0 315.5 -98t108.5 -258q0 -25 -3 -50.5t-7 -54.5l-103 -575h-264 l18 106h-16q-47 -59 -117.5 -99t-171.5 -40q-76 0 -138 23.5t-106 65.5t-69 100.5t-25 126.5zM287 303q0 -63 46 -95t109 -32q51 0 97.5 19.5t82 51.5t59.5 73.5t32 87.5q-31 14 -87.5 31.5t-129.5 17.5q-86 0 -147.5 -38t-61.5 -116zM313 1350q0 61 43 104t105 43 q61 0 103 -43t42 -104q0 -59 -42 -103.5t-103 -44.5t-104.5 44t-43.5 104zM704 1350q0 61 43 104t103 43q63 0 105 -43t42 -104q0 -59 -42 -103.5t-105 -44.5q-59 0 -102.5 44t-43.5 104z" />
<glyph unicode="&#xe5;" horiz-adv-x="1095" d="M16 283q0 86 34 153.5t96.5 115.5t149.5 73.5t191 25.5q76 0 138.5 -13t119.5 -34l9 31q4 20 4 33q0 66 -54.5 108.5t-142.5 42.5q-78 0 -137 -29.5t-107 -84.5l-180 131q82 104 201 152t256 48q207 0 315.5 -98t108.5 -258q0 -25 -3 -50.5t-7 -54.5l-103 -575h-264 l18 106h-16q-47 -59 -117.5 -99t-171.5 -40q-76 0 -138 23.5t-106 65.5t-69 100.5t-25 126.5zM287 303q0 -63 46 -95t109 -32q51 0 97.5 19.5t82 51.5t59.5 73.5t32 87.5q-31 14 -87.5 31.5t-129.5 17.5q-86 0 -147.5 -38t-61.5 -116zM432 1370q0 45 17.5 86t47 71t69.5 47 t87 17q45 0 86 -17t71 -47t47 -71t17 -86q0 -47 -17 -87t-47 -69.5t-71 -47t-86 -17.5q-47 0 -87 17.5t-69.5 47t-47 69.5t-17.5 87zM584 1370q0 -29 20 -50t49 -21t50.5 21.5t21.5 49.5q0 29 -21.5 50.5t-50.5 21.5t-49 -21.5t-20 -50.5z" />
<glyph unicode="&#xe6;" horiz-adv-x="1849" d="M16 283q0 86 34 153.5t96.5 115.5t149.5 73.5t191 25.5q76 0 140.5 -13t117.5 -34l9 31q4 20 4 33q0 72 -54.5 111.5t-140.5 39.5q-72 0 -134 -29.5t-93 -82.5l-195 96q145 233 459 233q123 0 206 -47t130 -121q78 82 177 125t216 43q106 0 187 -33.5t136.5 -91 t84 -133.5t28.5 -160q0 -49 -7 -93t-21 -85h-756v-20q4 -111 72.5 -163t158.5 -52q100 0 168 38t115 109l203 -106q-88 -131 -207 -205t-299 -74q-141 0 -234.5 56.5t-152.5 148.5q-174 -205 -447 -205q-78 0 -140 23.5t-107 65.5t-70 100.5t-25 126.5zM287 303 q0 -63 46 -95t109 -32q51 0 97.5 19.5t82 51.5t59.5 73.5t32 87.5q-35 16 -89.5 32.5t-127.5 16.5q-86 0 -147.5 -38t-61.5 -116zM1018 631h498v8q0 31 -12.5 62.5t-38 57t-67.5 42t-102 16.5q-49 0 -93 -14.5t-80 -40t-63.5 -59t-41.5 -72.5z" />
<glyph unicode="&#xe7;" horiz-adv-x="1116" d="M10 440q0 119 43 226.5t123 189.5t194.5 131t258.5 49q174 0 286.5 -81t153.5 -212l-258 -100q-51 145 -219 145q-68 0 -126 -25.5t-99 -69.5t-64.5 -102.5t-23.5 -123.5q0 -55 18 -102.5t50 -80t75 -51t92 -18.5q90 0 152.5 40t105.5 112l229 -111 q-98 -156 -218.5 -222.5t-280.5 -66.5h-13l-38 -63q10 2 18 2h18q72 0 117 -50.5t45 -125.5q0 -100 -66.5 -157.5t-168.5 -57.5q-72 0 -128.5 38.5t-70.5 96.5l139 55q4 -25 22.5 -41t47.5 -16t51.5 18.5t22.5 52.5q0 29 -16.5 46.5t-45.5 17.5q-18 0 -32.5 -9.5 t-24.5 -19.5l-113 58l96 172q-80 18 -145 59t-111.5 100.5t-71 134t-24.5 162.5z" />
<glyph unicode="&#xe8;" horiz-adv-x="1138" d="M10 442q0 117 43 223.5t121 189.5t188.5 132t245.5 49q111 0 194 -33.5t139 -91t85 -133.5t29 -160q0 -96 -29 -178h-756v-20q4 -111 73 -163t161 -52q98 0 165.5 38t114.5 109l203 -106q-88 -131 -206.5 -205t-297.5 -74q-111 0 -197.5 37t-148 101.5t-94.5 151.5 t-33 185zM307 631h498v8q0 70 -54.5 124t-164.5 54q-100 0 -175 -54t-104 -132zM418 1483h303l39 -279h-209z" />
<glyph unicode="&#xe9;" horiz-adv-x="1138" d="M10 442q0 117 43 223.5t121 189.5t188.5 132t245.5 49q111 0 194 -33.5t139 -91t85 -133.5t29 -160q0 -96 -29 -178h-756v-20q4 -111 73 -163t161 -52q98 0 165.5 38t114.5 109l203 -106q-88 -131 -206.5 -205t-297.5 -74q-111 0 -197.5 37t-148 101.5t-94.5 151.5 t-33 185zM307 631h498v8q0 70 -54.5 124t-164.5 54q-100 0 -175 -54t-104 -132zM528 1204l135 279h316l-234 -279h-217z" />
<glyph unicode="&#xea;" horiz-adv-x="1138" d="M10 442q0 117 43 223.5t121 189.5t188.5 132t245.5 49q111 0 194 -33.5t139 -91t85 -133.5t29 -160q0 -96 -29 -178h-756v-20q4 -111 73 -163t161 -52q98 0 165.5 38t114.5 109l203 -106q-88 -131 -206.5 -205t-297.5 -74q-111 0 -197.5 37t-148 101.5t-94.5 151.5 t-33 185zM306 1174l2 16l270 258h244l186 -258l-2 -16h-248l-63 121h-25l-100 -121h-264zM307 631h498v8q0 70 -54.5 124t-164.5 54q-100 0 -175 -54t-104 -132z" />
<glyph unicode="&#xeb;" horiz-adv-x="1138" d="M10 442q0 117 43 223.5t121 189.5t188.5 132t245.5 49q111 0 194 -33.5t139 -91t85 -133.5t29 -160q0 -96 -29 -178h-756v-20q4 -111 73 -163t161 -52q98 0 165.5 38t114.5 109l203 -106q-88 -131 -206.5 -205t-297.5 -74q-111 0 -197.5 37t-148 101.5t-94.5 151.5 t-33 185zM307 631h498v8q0 70 -54.5 124t-164.5 54q-100 0 -175 -54t-104 -132zM327 1350q0 61 43 104t105 43q61 0 103 -43t42 -104q0 -59 -42 -103.5t-103 -44.5t-104.5 44t-43.5 104zM718 1350q0 61 43 104t103 43q63 0 105 -43t42 -104q0 -59 -42 -103.5t-105 -44.5 q-59 0 -102.5 44t-43.5 104z" />
<glyph unicode="&#xec;" horiz-adv-x="530" d="M0 0l176 1004h268l-176 -1004h-268zM113 1483h303l39 -279h-209z" />
<glyph unicode="&#xed;" horiz-adv-x="530" d="M0 0l176 1004h268l-176 -1004h-268zM233 1204l135 279h316l-234 -279h-217z" />
<glyph unicode="&#xee;" horiz-adv-x="530" d="M-6 1192l2 16l270 258h244l186 -258l-2 -16h-248l-63 121h-25l-100 -121h-264zM0 0l176 1004h268l-176 -1004h-268z" />
<glyph unicode="&#xef;" horiz-adv-x="530" d="M0 0l174 1004h268l-174 -1004h-268zM55 1352q0 59 42 100t100 41q59 0 100 -41t41 -100q0 -57 -41 -99.5t-100 -42.5q-57 0 -99.5 42t-42.5 100zM399 1352q0 59 42 100t100 41q59 0 100 -41t41 -100q0 -57 -41 -99.5t-100 -42.5q-57 0 -99.5 42t-42.5 100z" />
<glyph unicode="&#xf0;" horiz-adv-x="1183" d="M27 403q0 117 41 220.5t114.5 180.5t177 122t228.5 45q74 0 131 -21.5t92 -52.5l16 10q-43 125 -139 211l-252 -104l-63 153l147 62q-41 18 -84 30.5t-88 20.5l72 203q203 -43 352 -152l238 99l63 -152l-170 -70q86 -106 133 -246.5t47 -316.5q0 -135 -36.5 -257 t-112.5 -216t-190.5 -149.5t-268.5 -55.5q-94 0 -176 33t-142.5 91.5t-95 138t-34.5 173.5zM289 428q0 -104 65.5 -162.5t159.5 -58.5q57 0 108.5 24.5t89.5 65.5t60.5 94t22.5 113q0 106 -57.5 167.5t-155.5 61.5q-63 0 -117.5 -24.5t-93.5 -66.5t-60.5 -97.5t-21.5 -116.5 z" />
<glyph unicode="&#xf1;" d="M-14 0l176 1004h252l-25 -132h17q53 78 139 121t190 43q78 0 137.5 -25.5t100.5 -68.5t61.5 -101.5t20.5 -123.5q0 -29 -2 -59.5t-9 -65.5l-106 -592h-266l102 575q2 10 3 28t1 34q0 66 -39 108.5t-116 42.5q-61 0 -108.5 -22.5t-82.5 -62t-57.5 -94t-34.5 -117.5 l-86 -492h-268zM322 1233q16 133 86.5 197.5t175.5 64.5q43 0 77.5 -13.5t65.5 -29.5q29 -18 55.5 -31.5t51.5 -13.5q53 0 67 59h189q-16 -133 -87.5 -197.5t-175.5 -64.5q-43 0 -77.5 13.5t-63.5 31.5q-31 16 -57.5 29.5t-50.5 13.5q-53 0 -68 -59h-188z" />
<glyph unicode="&#xf2;" horiz-adv-x="1179" d="M10 436q0 127 45 236.5t126 190.5t194 127t246 46q109 0 197.5 -36.5t151 -100t96.5 -148.5t34 -182q0 -127 -45 -237.5t-126 -191.5t-193.5 -127t-246.5 -46q-109 0 -197.5 37t-151 100.5t-96.5 148.5t-34 183zM279 463q0 -53 18 -99.5t51 -79t76 -51t92 -18.5 q68 0 125 25.5t100 70.5t66.5 103.5t23.5 126.5q0 53 -18 99t-50 79t-76 51t-93 18q-68 0 -125 -25.5t-100 -70.5t-66.5 -103.5t-23.5 -125.5zM420 1483h303l39 -279h-209z" />
<glyph unicode="&#xf3;" horiz-adv-x="1179" d="M10 436q0 127 45 236.5t126 190.5t194 127t246 46q109 0 197.5 -36.5t151 -100t96.5 -148.5t34 -182q0 -127 -45 -237.5t-126 -191.5t-193.5 -127t-246.5 -46q-109 0 -197.5 37t-151 100.5t-96.5 148.5t-34 183zM279 463q0 -53 18 -99.5t51 -79t76 -51t92 -18.5 q68 0 125 25.5t100 70.5t66.5 103.5t23.5 126.5q0 53 -18 99t-50 79t-76 51t-93 18q-68 0 -125 -25.5t-100 -70.5t-66.5 -103.5t-23.5 -125.5zM555 1204l135 279h316l-234 -279h-217z" />
<glyph unicode="&#xf4;" horiz-adv-x="1179" d="M10 436q0 127 45 236.5t126 190.5t194 127t246 46q109 0 197.5 -36.5t151 -100t96.5 -148.5t34 -182q0 -127 -45 -237.5t-126 -191.5t-193.5 -127t-246.5 -46q-109 0 -197.5 37t-151 100.5t-96.5 148.5t-34 183zM279 463q0 -53 18 -99.5t51 -79t76 -51t92 -18.5 q68 0 125 25.5t100 70.5t66.5 103.5t23.5 126.5q0 53 -18 99t-50 79t-76 51t-93 18q-68 0 -125 -25.5t-100 -70.5t-66.5 -103.5t-23.5 -125.5zM318 1192l2 16l270 258h244l186 -258l-2 -16h-248l-63 121h-25l-100 -121h-264z" />
<glyph unicode="&#xf5;" horiz-adv-x="1179" d="M10 436q0 127 45 236.5t126 190.5t194 127t246 46q109 0 197.5 -36.5t151 -100t96.5 -148.5t34 -182q0 -127 -45 -237.5t-126 -191.5t-193.5 -127t-246.5 -46q-109 0 -197.5 37t-151 100.5t-96.5 148.5t-34 183zM279 463q0 -53 18 -99.5t51 -79t76 -51t92 -18.5 q68 0 125 25.5t100 70.5t66.5 103.5t23.5 126.5q0 53 -18 99t-50 79t-76 51t-93 18q-68 0 -125 -25.5t-100 -70.5t-66.5 -103.5t-23.5 -125.5zM312 1233q16 133 86.5 197.5t175.5 64.5q43 0 77.5 -13.5t65.5 -29.5q29 -18 55.5 -31.5t51.5 -13.5q53 0 67 59h189 q-16 -133 -87.5 -197.5t-175.5 -64.5q-43 0 -77.5 13.5t-63.5 31.5q-31 16 -57.5 29.5t-50.5 13.5q-53 0 -68 -59h-188z" />
<glyph unicode="&#xf6;" horiz-adv-x="1179" d="M10 436q0 127 45 236.5t126 190.5t194 127t246 46q109 0 197.5 -36.5t151 -100t96.5 -148.5t34 -182q0 -127 -45 -237.5t-126 -191.5t-193.5 -127t-246.5 -46q-109 0 -197.5 37t-151 100.5t-96.5 148.5t-34 183zM279 463q0 -53 18 -99.5t51 -79t76 -51t92 -18.5 q68 0 125 25.5t100 70.5t66.5 103.5t23.5 126.5q0 53 -18 99t-50 79t-76 51t-93 18q-68 0 -125 -25.5t-100 -70.5t-66.5 -103.5t-23.5 -125.5zM352 1350q0 61 43 104t105 43q61 0 103 -43t42 -104q0 -59 -42 -103.5t-103 -44.5t-104.5 44t-43.5 104zM743 1350q0 61 43 104 t103 43q63 0 105 -43t42 -104q0 -59 -42 -103.5t-105 -44.5q-59 0 -102.5 44t-43.5 104z" />
<glyph unicode="&#xf7;" horiz-adv-x="1165" d="M66 444l38 222h936l-41 -222h-933zM313 152q0 70 49.5 118.5t118.5 48.5q70 0 119 -49t49 -118q0 -70 -49 -119t-119 -49t-119 49t-49 119zM455 958q0 70 49 119t119 49q72 0 120 -49t48 -119t-48 -118.5t-120 -48.5q-70 0 -119 49t-49 118z" />
<glyph unicode="&#xf8;" horiz-adv-x="1179" d="M10 436q0 127 45 236.5t126 190.5t193.5 127t246.5 46q119 0 217 -47l92 115l149 -125l-86 -107q51 -61 79 -139t28 -164q0 -127 -45 -237.5t-126 -191.5t-193.5 -127t-246.5 -46q-104 0 -192 35l-80 -100l-158 116l74 93q-59 63 -91 146t-32 179zM279 463q0 -70 32 -129 l357 442q-31 12 -74 12q-68 0 -125 -25.5t-100 -70.5t-66.5 -103t-23.5 -126zM471 219q16 -4 25 -4h20q68 0 125 25.5t100 70.5t66.5 103.5t23.5 126.5q0 55 -20 102z" />
<glyph unicode="&#xf9;" d="M41 287q0 29 2 57.5t8 67.5l107 592h266l-102 -576q-2 -12 -3.5 -25.5t-1.5 -35.5q0 -66 39 -109t117 -43q61 0 108.5 22.5t82 62.5t57 94.5t35.5 117.5l86 492h268l-176 -1004h-252l25 131h-17q-53 -78 -139 -121t-191 -43q-78 0 -137 25.5t-100 68.5t-61.5 101.5 t-20.5 124.5zM443 1483h303l39 -279h-209z" />
<glyph unicode="&#xfa;" d="M41 287q0 29 2 57.5t8 67.5l107 592h266l-102 -576q-2 -12 -3.5 -25.5t-1.5 -35.5q0 -66 39 -109t117 -43q61 0 108.5 22.5t82 62.5t57 94.5t35.5 117.5l86 492h268l-176 -1004h-252l25 131h-17q-53 -78 -139 -121t-191 -43q-78 0 -137 25.5t-100 68.5t-61.5 101.5 t-20.5 124.5zM545 1204l135 279h316l-234 -279h-217z" />
<glyph unicode="&#xfb;" d="M41 287q0 29 2 57.5t8 67.5l107 592h266l-102 -576q-2 -12 -3.5 -25.5t-1.5 -35.5q0 -66 39 -109t117 -43q61 0 108.5 22.5t82 62.5t57 94.5t35.5 117.5l86 492h268l-176 -1004h-252l25 131h-17q-53 -78 -139 -121t-191 -43q-78 0 -137 25.5t-100 68.5t-61.5 101.5 t-20.5 124.5zM318 1161l2 16l270 258h244l186 -258l-2 -16h-248l-63 121h-25l-100 -121h-264z" />
<glyph unicode="&#xfc;" d="M41 287q0 29 2 57.5t8 67.5l107 592h266l-102 -576q-2 -12 -3.5 -25.5t-1.5 -35.5q0 -66 39 -109t117 -43q61 0 108.5 22.5t82 62.5t57 94.5t35.5 117.5l86 492h268l-176 -1004h-252l25 131h-17q-53 -78 -139 -121t-191 -43q-78 0 -137 25.5t-100 68.5t-61.5 101.5 t-20.5 124.5zM354 1350q0 61 43 104t105 43q61 0 103 -43t42 -104q0 -59 -42 -103.5t-103 -44.5t-104.5 44t-43.5 104zM745 1350q0 61 43 104t103 43q63 0 105 -43t42 -104q0 -59 -42 -103.5t-105 -44.5q-59 0 -102.5 44t-43.5 104z" />
<glyph unicode="&#xfd;" horiz-adv-x="1132" d="M16 -442l310 501l-250 945h299l145 -611h17l354 611h303l-885 -1446h-293zM539 1204l135 279h316l-234 -279h-217z" />
<glyph unicode="&#xfe;" horiz-adv-x="1228" d="M-59 -442l335 1908h269l-78 -440l-39 -143h16q41 59 117 106t199 47q90 0 165.5 -35.5t131 -98t86.5 -149.5t31 -190q0 -119 -41 -226.5t-116 -189t-179.5 -131t-229.5 -49.5q-102 0 -184 44t-119 110h-16l-4 -144l-76 -419h-268zM354 457q0 -111 69 -176.5t175 -65.5 q68 0 124 26.5t97 71.5t63.5 104.5t22.5 125.5q0 113 -66.5 179t-179.5 66q-59 0 -114.5 -24.5t-97 -67.5t-67.5 -104.5t-26 -134.5z" />
<glyph unicode="&#xff;" horiz-adv-x="1132" d="M16 -442l310 501l-250 945h299l145 -611h17l354 611h303l-885 -1446h-293zM331 1350q0 61 43 104t105 43q61 0 103 -43t42 -104q0 -59 -42 -103.5t-103 -44.5t-104.5 44t-43.5 104zM722 1350q0 61 43 104t103 43q63 0 105 -43t42 -104q0 -59 -42 -103.5t-105 -44.5 q-59 0 -102.5 44t-43.5 104z" />
<glyph unicode="&#x152;" horiz-adv-x="2347" d="M61 649q0 172 64.5 325.5t179.5 270.5t272.5 185.5t346.5 68.5q162 0 279.5 -51t191.5 -143h14l31 161h930l-48 -262h-653l-61 -340h590l-48 -262h-589l-60 -340h653l-45 -262h-929l24 141h-12q-82 -82 -200 -128t-265 -46q-141 0 -263 49.5t-211 139.5t-140.5 216 t-51.5 277zM340 670q0 -100 34 -181t94 -138.5t140 -89.5t172 -32q125 0 226.5 47.5t173 126t110.5 181t39 213.5q0 100 -31.5 181t-89 138.5t-136.5 89t-173 31.5q-123 0 -225.5 -47t-176 -125t-115.5 -180.5t-42 -214.5z" />
<glyph unicode="&#x153;" horiz-adv-x="1941" d="M20 436q0 127 45.5 236.5t126 190.5t193.5 127t246 46q121 0 214 -50t152 -134q78 84 184.5 134t243.5 50q109 0 192 -33.5t139 -91t85 -133.5t29 -160q0 -49 -7.5 -93t-21.5 -85h-756q-2 -10 -2 -14v-6q4 -111 74 -163t160 -52q100 0 166.5 38t113.5 109l205 -106 q-88 -131 -207.5 -205t-300.5 -74q-125 0 -216 48t-148 128q-78 -82 -185.5 -129t-242.5 -47q-111 0 -199 37t-151.5 100.5t-97.5 148.5t-34 183zM291 463q0 -53 18.5 -99.5t50 -79t75.5 -51t93 -18.5q68 0 125.5 25.5t99.5 70.5t65.5 103.5t23.5 126.5q0 53 -18.5 99 t-50.5 79t-76 51t-93 18q-68 0 -125 -25.5t-99 -70.5t-65.5 -103.5t-23.5 -125.5zM1122 631h498v8q0 31 -12.5 62.5t-38 57t-67.5 42t-101 16.5q-49 0 -93 -14.5t-81 -40t-63.5 -59t-41.5 -72.5z" />
<glyph unicode="&#x2c6;" horiz-adv-x="933" d="M197 1192l2 16l270 258h244l186 -258l-2 -16h-248l-63 121h-25l-100 -121h-264z" />
<glyph unicode="&#x2dc;" horiz-adv-x="858" d="M150 1231q16 133 86.5 197.5t175.5 64.5q43 0 77.5 -13.5t65.5 -29.5q29 -18 55.5 -31.5t51.5 -13.5q53 0 67 59h189q-16 -133 -87.5 -197.5t-175.5 -64.5q-43 0 -77.5 13.5t-63.5 31.5q-31 16 -57.5 29.5t-50.5 13.5q-53 0 -68 -59h-188z" />
<glyph unicode="&#x2000;" horiz-adv-x="937" />
<glyph unicode="&#x2001;" horiz-adv-x="1874" />
<glyph unicode="&#x2002;" horiz-adv-x="937" />
<glyph unicode="&#x2003;" horiz-adv-x="1874" />
<glyph unicode="&#x2004;" horiz-adv-x="624" />
<glyph unicode="&#x2005;" horiz-adv-x="468" />
<glyph unicode="&#x2006;" horiz-adv-x="312" />
<glyph unicode="&#x2007;" horiz-adv-x="312" />
<glyph unicode="&#x2008;" horiz-adv-x="234" />
<glyph unicode="&#x2009;" horiz-adv-x="374" />
<glyph unicode="&#x200a;" horiz-adv-x="104" />
<glyph unicode="&#x2010;" horiz-adv-x="923" d="M76 516l41 238h694l-43 -238h-692z" />
<glyph unicode="&#x2011;" horiz-adv-x="923" d="M76 516l41 238h694l-43 -238h-692z" />
<glyph unicode="&#x2012;" horiz-adv-x="923" d="M76 516l41 238h694l-43 -238h-692z" />
<glyph unicode="&#x2013;" horiz-adv-x="1251" d="M76 516l43 238h1020l-41 -238h-1022z" />
<glyph unicode="&#x2014;" horiz-adv-x="1878" d="M76 516l43 238h1648l-41 -238h-1650z" />
<glyph unicode="&#x2018;" horiz-adv-x="550" d="M154 1092q0 37 17 74.5t48 76.5l213 256l109 -88l-135 -158q41 -18 71.5 -60t30.5 -101q0 -37 -14.5 -69t-38 -56.5t-55 -38t-68.5 -13.5q-74 0 -126 51.5t-52 125.5z" />
<glyph unicode="&#x2019;" horiz-adv-x="550" d="M170 1004l135 157q-41 16 -71.5 58.5t-30.5 101.5q0 37 14 69.5t39 57.5t56.5 38t68.5 13q74 0 126 -51t52 -127q0 -35 -17.5 -73t-47.5 -77l-215 -256z" />
<glyph unicode="&#x201a;" horiz-adv-x="550" d="M-18 -155l135 157q-41 16 -71.5 58.5t-30.5 101.5q0 37 14 69.5t39 57.5t56.5 38t68.5 13q74 0 126 -51t52 -127q0 -35 -17.5 -73t-47.5 -77l-215 -256z" />
<glyph unicode="&#x201c;" horiz-adv-x="999" d="M154 1092q0 37 17 74.5t48 76.5l213 256l109 -88l-135 -158q41 -18 71.5 -60t30.5 -101q0 -37 -14.5 -69t-38 -56.5t-55 -38t-68.5 -13.5q-74 0 -126 51.5t-52 125.5zM603 1092q0 37 17 74.5t48 76.5l213 256l109 -88l-135 -158q41 -18 71.5 -60t30.5 -101 q0 -37 -14.5 -69t-38 -56.5t-55 -38t-68.5 -13.5q-74 0 -126 51.5t-52 125.5z" />
<glyph unicode="&#x201d;" horiz-adv-x="999" d="M170 1004l135 157q-41 16 -71.5 58.5t-30.5 101.5q0 37 14 69.5t39 57.5t56.5 38t68.5 13q74 0 126 -51t52 -127q0 -35 -17.5 -73t-47.5 -77l-215 -256zM619 1004l135 157q-41 16 -71.5 58.5t-30.5 101.5q0 37 14 69.5t39 57.5t56.5 38t68.5 13q74 0 126 -51t52 -127 q0 -35 -17.5 -73t-47.5 -77l-215 -256z" />
<glyph unicode="&#x201e;" horiz-adv-x="980" d="M-18 -155l135 157q-41 16 -71.5 58.5t-30.5 101.5q0 37 14 69.5t39 57.5t56.5 38t68.5 13q74 0 126 -51t52 -127q0 -35 -17.5 -73t-47.5 -77l-215 -256zM408 -155l135 157q-41 16 -71.5 58.5t-30.5 101.5q0 37 14 69.5t39 57.5t56.5 38t68.5 13q74 0 126 -51t52 -127 q0 -35 -17.5 -73t-47.5 -77l-215 -256z" />
<glyph unicode="&#x2022;" horiz-adv-x="862" d="M152 664q0 55 21.5 104t57 85t85 57.5t104.5 21.5t103 -21.5t85 -57.5t57.5 -85t20.5 -104t-20.5 -104.5t-57.5 -85.5t-85 -57.5t-103 -21.5t-104.5 21.5t-85 57.5t-57 85t-21.5 105z" />
<glyph unicode="&#x2026;" horiz-adv-x="1540" d="M-2 166q0 74 52 125t126 51t126 -51t52 -125t-52 -126t-126 -52t-126 52t-52 126zM492 166q0 74 52 125t126 51t126 -51t52 -125t-52 -126t-126 -52t-126 52t-52 126zM987 166q0 74 52 125t126 51t126 -51t52 -125t-52 -126t-126 -52t-126 52t-52 126z" />
<glyph unicode="&#x202f;" horiz-adv-x="374" />
<glyph unicode="&#x2039;" horiz-adv-x="792" d="M47 555l516 471l137 -152l-370 -333l239 -322l-172 -135z" />
<glyph unicode="&#x203a;" horiz-adv-x="792" d="M25 236l368 333l-237 322l170 135l352 -471l-518 -471z" />
<glyph unicode="&#x205f;" horiz-adv-x="468" />
<glyph unicode="&#x20ac;" horiz-adv-x="1337" d="M0 440l33 193h160q2 63 14 135h-150l33 193h178q47 102 121 189t170 149.5t216 98.5t259 36q100 0 181 -27t147 -74l-145 -217q-43 29 -96.5 46.5t-125.5 17.5q-139 0 -248.5 -60.5t-179.5 -158.5h432l-32 -193h-488q-16 -70 -16 -135h479l-33 -193h-413 q45 -109 136 -164t204 -55q86 0 142 18.5t112 51.5l100 -219q-84 -53 -176 -79t-205 -26t-211 33t-177 93.5t-133.5 148.5t-78.5 198h-209z" />
<glyph unicode="&#x25fc;" horiz-adv-x="1003" d="M0 0v1004h1004v-1004h-1004z" />
<glyph unicode="&#xfb01;" horiz-adv-x="1275" d="M53 774l41 230h180l17 98q33 193 147.5 287t294.5 94q66 0 113 -19l-60 -250q-29 14 -67 15q-137 0 -162 -144l-14 -81h645l-176 -1004h-269l136 774h-377l-135 -774h-269l135 774h-180zM936 1321q0 37 13.5 67.5t37 54t55 37t66.5 13.5q72 0 123 -50t51 -122t-51 -122 t-123 -50q-35 0 -66.5 13.5t-55 37t-37 54t-13.5 67.5z" />
<glyph unicode="&#xfb02;" horiz-adv-x="1259" d="M53 774l41 230h180l15 73q39 199 150.5 298.5t326.5 99.5h506l-260 -1475h-269l218 1227h-236q-68 0 -113 -38t-57 -114l-12 -71h233l-39 -230h-235l-135 -774h-269l135 774h-180z" />
<glyph unicode="&#xfb03;" horiz-adv-x="1918" d="M53 774l41 230h180l17 98q33 193 147.5 287t294.5 94q66 0 113 -19l-60 -247q-29 14 -67 14q-66 0 -108 -38t-54 -108l-14 -81h377l16 98q33 193 147.5 287t294.5 94q66 0 113 -19l-59 -250q-29 14 -68 15q-137 0 -162 -144l-14 -81h645l-176 -1004h-268l135 774h-377 l-135 -774h-269l136 774h-377l-135 -774h-269l135 774h-180zM1581 1321q0 37 13.5 67.5t37 54t55 37t66.5 13.5q72 0 123 -50t51 -122t-51 -122t-123 -50q-35 0 -66.5 13.5t-55 37t-37 54t-13.5 67.5z" />
<glyph unicode="&#xfb04;" horiz-adv-x="1902" d="M53 774l41 230h180l17 98q33 193 147.5 287t294.5 94q66 0 113 -19l-60 -250q-29 14 -67 15q-137 0 -162 -144l-14 -81h377l14 73q39 199 150.5 298.5t326.5 99.5h506l-260 -1475h-268l217 1227h-236q-68 0 -113 -38t-57 -114l-12 -71h233l-39 -230h-235l-135 -774h-269 l136 774h-377l-135 -774h-269l135 774h-180z" />
</font>
</defs>
</svg>
