<svg version="1" xmlns="http://www.w3.org/2000/svg" width="666.667" height="666.667" viewBox="0 0 500.000000 500.000000"><path d="M0 250v250h500V0H0v250zm430-31.5V370h-29v27.9l-13.6.3-13.6.3-.1 15-.2 15-151.7.3L70 429V126h27V95h29V67h304v151.5z"/><path d="M131 83.5V95h270v270h24V72H131v11.5zM102.2 112.7l.3 12.8 11.8.3 11.7.3V100h-24.1l.3 12.7z"/><path d="M131.2 112.7l.3 12.8 121.3.3 121.2.2-.2 119.5-.3 119.5H396V100H130.9l.3 12.7zM75 277.5V424h294.1l-.3-12.8-.3-12.7-135.7-.3L97 398V131H75v146.5z"/><path d="M102 262v131h267.1l-.3-11.2-.3-11.3-121.2-.3L126 370V131h-24v131z"/><path d="M131 248v117h238V131H131v117zm135.2-47l.3 48.1 26 .2 26 .2v26l-41.7.3-41.8.2V153h31l.2 48zM374 370.2c-.1.2-.2 5.4-.3 11.6l-.2 11.2H396v-23h-11c-6 0-11 .1-11 .2z"/></svg>