<svg version="1" xmlns="http://www.w3.org/2000/svg" width="666.667" height="666.667" viewBox="0 0 500.000000 500.000000"><path d="M0 250v250h500V0H0v250zm360.5-19v92.5l-8.7.3-8.8.3V341h-17v19H140V174h17v-18h18v-18l92.8.2 92.7.3V231z"/><path d="M177.2 148.2l.3 7.3 82.8.3 82.7.2v165h15V141H176.9l.3 7.2zM159 166v8h16v-16h-16v8z"/><path d="M177 166v8h149v147h15V158H177v8zM143 267v90h181v-16H157V177h-14v90z"/><path d="M159.2 257.7l.3 80.8h164l.3-7.3.3-7.2H175V177h-16l.2 80.7z"/><path d="M177 249v72h147V177H177v72zm83-28.5V250h31.5v15H241v-74h19v29.5zM326 331.5v7.6l7.3-.3 7.2-.3.3-7.3.3-7.2H326v7.5z"/></svg>